G04 #@! TF.FileFunction,Legend,Top*
%FSLAX46Y46*%
G04 Gerber Fmt 4.6, Leading zero omitted, Abs format (unit mm)*
G04 Created by KiCad (PCBNEW 0.201507290901+6012~27~ubuntu14.04.1-product) date Fri 31 Jul 2015 15:24:14 CEST*
%MOMM*%
G01*
G04 APERTURE LIST*
%ADD10C,0.100000*%
%ADD11C,0.150000*%
%ADD12C,0.250000*%
%ADD13C,0.200000*%
G04 APERTURE END LIST*
D10*
D11*
X98933000Y-54610000D02*
X99949000Y-54610000D01*
X98933000Y-70866000D02*
X98933000Y-54610000D01*
X99949000Y-70866000D02*
X98933000Y-70866000D01*
X105537000Y-54610000D02*
X99949000Y-54610000D01*
X99949000Y-54610000D02*
X99949000Y-70866000D01*
X99949000Y-70866000D02*
X105537000Y-70866000D01*
X105537000Y-70866000D02*
X105537000Y-54610000D01*
X192870000Y-50720000D02*
X98870000Y-50720000D01*
X98870000Y-95720000D02*
X192870000Y-95720000D01*
X98870000Y-104720000D02*
X98870000Y-97720000D01*
X192870000Y-104720000D02*
X98870000Y-104720000D01*
X192870000Y-41720000D02*
X192870000Y-104720000D01*
X98870000Y-41720000D02*
X192870000Y-41720000D01*
X98870000Y-48720000D02*
X98870000Y-41720000D01*
X98870000Y-97720000D02*
X98870000Y-48720000D01*
X192870000Y-97720000D02*
X98870000Y-97720000D01*
X192870000Y-48720000D02*
X192870000Y-97720000D01*
X98870000Y-48720000D02*
X192870000Y-48720000D01*
X119742421Y-129659233D02*
X119742421Y-130359233D01*
X118542421Y-130359233D02*
X118542421Y-129659233D01*
X121937421Y-133261233D02*
X121612421Y-133261233D01*
X121937421Y-140511233D02*
X121612421Y-140511233D01*
X114687421Y-140511233D02*
X115012421Y-140511233D01*
X114687421Y-133261233D02*
X115012421Y-133261233D01*
X121937421Y-133261233D02*
X121937421Y-133586233D01*
X114687421Y-133261233D02*
X114687421Y-133586233D01*
X114687421Y-140511233D02*
X114687421Y-140186233D01*
X121937421Y-140511233D02*
X121937421Y-140186233D01*
X121612421Y-133261233D02*
X121612421Y-131836233D01*
X96090005Y-112255551D02*
X96090005Y-111255551D01*
X97440005Y-111255551D02*
X97440005Y-112255551D01*
X117329421Y-129659233D02*
X117329421Y-130359233D01*
X116129421Y-130359233D02*
X116129421Y-129659233D01*
X115494421Y-144075233D02*
X115494421Y-143375233D01*
X116694421Y-143375233D02*
X116694421Y-144075233D01*
X119147013Y-111469987D02*
X119147013Y-110469987D01*
X117447013Y-110469987D02*
X117447013Y-111469987D01*
X103360047Y-121701000D02*
X104060047Y-121701000D01*
X104060047Y-122901000D02*
X103360047Y-122901000D01*
X180586000Y-149265000D02*
X179586000Y-149265000D01*
X179586000Y-147915000D02*
X180586000Y-147915000D01*
X105060005Y-111255551D02*
X105060005Y-112255551D01*
X103710005Y-112255551D02*
X103710005Y-111255551D01*
X113237747Y-119560119D02*
X113237747Y-114734119D01*
X113237747Y-114734119D02*
X123397747Y-114734119D01*
X123397747Y-114734119D02*
X123397747Y-119560119D01*
X123397747Y-119560119D02*
X113237747Y-119560119D01*
X123397747Y-117782119D02*
X122762747Y-117782119D01*
X122762747Y-117782119D02*
X122762747Y-116512119D01*
X122762747Y-116512119D02*
X123397747Y-116512119D01*
X199581609Y-89931779D02*
X199581609Y-90947779D01*
X199581609Y-90947779D02*
X222695609Y-90947779D01*
X222695609Y-90947779D02*
X222695609Y-89931779D01*
X199581609Y-80787779D02*
X199581609Y-79771779D01*
X199581609Y-79771779D02*
X222695609Y-79771779D01*
X222695609Y-79771779D02*
X222695609Y-80787779D01*
X222695609Y-85359779D02*
X225235609Y-85359779D01*
X199581609Y-85359779D02*
X197041609Y-85359779D01*
X199581609Y-80787779D02*
X199581609Y-89931779D01*
X222695609Y-89931779D02*
X222695609Y-80787779D01*
X83262543Y-143458745D02*
X88342543Y-143458745D01*
X80442543Y-143738745D02*
X80442543Y-142188745D01*
X80722543Y-140918745D02*
X83262543Y-140918745D01*
X83262543Y-140918745D02*
X83262543Y-143458745D01*
X88342543Y-143458745D02*
X88342543Y-138378745D01*
X88342543Y-138378745D02*
X83262543Y-138378745D01*
X80442543Y-143738745D02*
X81992543Y-143738745D01*
X80722543Y-138378745D02*
X80722543Y-140918745D01*
X83262543Y-138378745D02*
X80722543Y-138378745D01*
X110583789Y-116327949D02*
X110583789Y-115327949D01*
X111933789Y-115327949D02*
X111933789Y-116327949D01*
X110583789Y-118994949D02*
X110583789Y-117994949D01*
X111933789Y-117994949D02*
X111933789Y-118994949D01*
X100680000Y-122901000D02*
X99980000Y-122901000D01*
X99980000Y-121701000D02*
X100680000Y-121701000D01*
X102195000Y-125087000D02*
X102195000Y-124087000D01*
X103545000Y-124087000D02*
X103545000Y-125087000D01*
X101767000Y-124087000D02*
X101767000Y-125087000D01*
X100417000Y-125087000D02*
X100417000Y-124087000D01*
X94706534Y-115151456D02*
X93706534Y-115151456D01*
X93706534Y-113801456D02*
X94706534Y-113801456D01*
X101326534Y-113801456D02*
X102326534Y-113801456D01*
X102326534Y-115151456D02*
X101326534Y-115151456D01*
X199581609Y-67071779D02*
X199581609Y-68087779D01*
X199581609Y-68087779D02*
X222695609Y-68087779D01*
X222695609Y-68087779D02*
X222695609Y-67071779D01*
X199581609Y-57927779D02*
X199581609Y-56911779D01*
X199581609Y-56911779D02*
X222695609Y-56911779D01*
X222695609Y-56911779D02*
X222695609Y-57927779D01*
X222695609Y-62499779D02*
X225235609Y-62499779D01*
X199581609Y-62499779D02*
X197041609Y-62499779D01*
X199581609Y-57927779D02*
X199581609Y-67071779D01*
X222695609Y-67071779D02*
X222695609Y-57927779D01*
X199581609Y-78501779D02*
X199581609Y-79517779D01*
X199581609Y-79517779D02*
X222695609Y-79517779D01*
X222695609Y-79517779D02*
X222695609Y-78501779D01*
X199581609Y-69357779D02*
X199581609Y-68341779D01*
X199581609Y-68341779D02*
X222695609Y-68341779D01*
X222695609Y-68341779D02*
X222695609Y-69357779D01*
X222695609Y-73929779D02*
X225235609Y-73929779D01*
X199581609Y-73929779D02*
X197041609Y-73929779D01*
X199581609Y-69357779D02*
X199581609Y-78501779D01*
X222695609Y-78501779D02*
X222695609Y-69357779D01*
X82034474Y-116267231D02*
X82034474Y-117283231D01*
X81526474Y-116775231D02*
X82542474Y-116775231D01*
X89654474Y-119315231D02*
G75*
G03X89654474Y-119315231I-5080000J0D01*
G01*
D12*
X216944000Y-124263000D02*
G75*
G03X216944000Y-124263000I-500000J0D01*
G01*
X208744000Y-124263000D02*
G75*
G03X208744000Y-124263000I-500000J0D01*
G01*
X208744000Y-134463000D02*
G75*
G03X208744000Y-134463000I-500000J0D01*
G01*
X216944000Y-134463000D02*
G75*
G03X216944000Y-134463000I-500000J0D01*
G01*
X218544000Y-123613000D02*
X218544000Y-135213000D01*
X206144000Y-135213000D02*
X206144000Y-123613000D01*
X217744000Y-136013000D02*
X206944000Y-136013000D01*
X217744000Y-122813000D02*
X206944000Y-122813000D01*
X217744000Y-136013000D02*
G75*
G03X218544000Y-135213000I0J800000D01*
G01*
X218544000Y-123613000D02*
G75*
G03X217744000Y-122813000I-800000J0D01*
G01*
X206944000Y-122813000D02*
G75*
G03X206144000Y-123613000I0J-800000D01*
G01*
X206144000Y-135213000D02*
G75*
G03X206944000Y-136013000I800000J0D01*
G01*
X214944000Y-130913000D02*
X209744000Y-130913000D01*
X215344000Y-129413000D02*
G75*
G03X215344000Y-129413000I-3000000J0D01*
G01*
D11*
X143510000Y-108966000D02*
X143510000Y-151130000D01*
X192786000Y-108966000D02*
X143510000Y-108966000D01*
X192786000Y-151130000D02*
X192786000Y-108966000D01*
X143510000Y-151130000D02*
X192786000Y-151130000D01*
X160528000Y-147320000D02*
X178308000Y-147320000D01*
X178308000Y-147320000D02*
X178308000Y-149860000D01*
X178308000Y-149860000D02*
X160528000Y-149860000D01*
X157708000Y-147040000D02*
X159258000Y-147040000D01*
X160528000Y-147320000D02*
X160528000Y-149860000D01*
X159258000Y-150140000D02*
X157708000Y-150140000D01*
X157708000Y-150140000D02*
X157708000Y-147040000D01*
X124872000Y-135925000D02*
X125572000Y-135925000D01*
X125572000Y-137125000D02*
X124872000Y-137125000D01*
X123912000Y-134485000D02*
X123912000Y-133485000D01*
X125262000Y-133485000D02*
X125262000Y-134485000D01*
X103144165Y-111359311D02*
X103095905Y-111359311D01*
X100345185Y-112060351D02*
X100345185Y-111359311D01*
X100345185Y-111359311D02*
X100594105Y-111359311D01*
X103144165Y-111359311D02*
X103344825Y-111359311D01*
X103344825Y-111359311D02*
X103344825Y-112060351D01*
X95524165Y-111359311D02*
X95475905Y-111359311D01*
X92725185Y-112060351D02*
X92725185Y-111359311D01*
X92725185Y-111359311D02*
X92974105Y-111359311D01*
X95524165Y-111359311D02*
X95724825Y-111359311D01*
X95724825Y-111359311D02*
X95724825Y-112060351D01*
X82034474Y-103567231D02*
X82034474Y-104583231D01*
X81526474Y-104075231D02*
X82542474Y-104075231D01*
X89654474Y-106615231D02*
G75*
G03X89654474Y-106615231I-5080000J0D01*
G01*
X142071471Y-54610000D02*
X143087471Y-54610000D01*
X142071471Y-70866000D02*
X142071471Y-54610000D01*
X143087471Y-70866000D02*
X142071471Y-70866000D01*
X148675471Y-54610000D02*
X143087471Y-54610000D01*
X143087471Y-54610000D02*
X143087471Y-70866000D01*
X143087471Y-70866000D02*
X148675471Y-70866000D01*
X148675471Y-70866000D02*
X148675471Y-54610000D01*
X149691471Y-93201160D02*
X148675471Y-93201160D01*
X149691471Y-76945160D02*
X149691471Y-93201160D01*
X148675471Y-76945160D02*
X149691471Y-76945160D01*
X143087471Y-93201160D02*
X148675471Y-93201160D01*
X148675471Y-93201160D02*
X148675471Y-76945160D01*
X148675471Y-76945160D02*
X143087471Y-76945160D01*
X143087471Y-76945160D02*
X143087471Y-93201160D01*
X192723609Y-93233779D02*
X191707609Y-93233779D01*
X192723609Y-76977779D02*
X192723609Y-93233779D01*
X191707609Y-76977779D02*
X192723609Y-76977779D01*
X186119609Y-93233779D02*
X191707609Y-93233779D01*
X191707609Y-93233779D02*
X191707609Y-76977779D01*
X191707609Y-76977779D02*
X186119609Y-76977779D01*
X186119609Y-76977779D02*
X186119609Y-93233779D01*
X83262543Y-135838745D02*
X88342543Y-135838745D01*
X88342543Y-135838745D02*
X88342543Y-133298745D01*
X88342543Y-133298745D02*
X83262543Y-133298745D01*
X80442543Y-133018745D02*
X81992543Y-133018745D01*
X83262543Y-133298745D02*
X83262543Y-135838745D01*
X81992543Y-136118745D02*
X80442543Y-136118745D01*
X80442543Y-136118745D02*
X80442543Y-133018745D01*
X83312000Y-128143000D02*
X85852000Y-128143000D01*
X80492000Y-127863000D02*
X82042000Y-127863000D01*
X83312000Y-128143000D02*
X83312000Y-130683000D01*
X82042000Y-130963000D02*
X80492000Y-130963000D01*
X80492000Y-130963000D02*
X80492000Y-127863000D01*
X83312000Y-130683000D02*
X85852000Y-130683000D01*
X85852000Y-130683000D02*
X85852000Y-128143000D01*
X91551760Y-128113840D02*
X91551760Y-128162100D01*
X92252800Y-130912820D02*
X91551760Y-130912820D01*
X91551760Y-130912820D02*
X91551760Y-130663900D01*
X91551760Y-128113840D02*
X91551760Y-127913180D01*
X91551760Y-127913180D02*
X92252800Y-127913180D01*
X94067000Y-129913000D02*
X94067000Y-128913000D01*
X95417000Y-128913000D02*
X95417000Y-129913000D01*
X114462000Y-130386000D02*
X114462000Y-129686000D01*
X115662000Y-129686000D02*
X115662000Y-130386000D01*
X112811000Y-130386000D02*
X112811000Y-129686000D01*
X114011000Y-129686000D02*
X114011000Y-130386000D01*
X102146047Y-127880271D02*
X102146047Y-126880271D01*
X103496047Y-126880271D02*
X103496047Y-127880271D01*
X105323000Y-124087000D02*
X105323000Y-125087000D01*
X103973000Y-125087000D02*
X103973000Y-124087000D01*
X99989000Y-124087000D02*
X99989000Y-125087000D01*
X98639000Y-125087000D02*
X98639000Y-124087000D01*
X101711463Y-126851680D02*
X101711463Y-127851680D01*
X100361463Y-127851680D02*
X100361463Y-126851680D01*
X118618000Y-124983240D02*
X118818660Y-125384560D01*
X118818660Y-125384560D02*
X118920260Y-125984000D01*
X118920260Y-125984000D02*
X118818660Y-126484380D01*
X118818660Y-126484380D02*
X118419880Y-127182880D01*
X118419880Y-127182880D02*
X117817900Y-127584200D01*
X117817900Y-127584200D02*
X117218460Y-127784860D01*
X117218460Y-127784860D02*
X110619540Y-127784860D01*
X110619540Y-127784860D02*
X109918500Y-127584200D01*
X109918500Y-127584200D02*
X109519720Y-127284480D01*
X109519720Y-127284480D02*
X109118400Y-126784100D01*
X109118400Y-126784100D02*
X108917740Y-126184660D01*
X108917740Y-126184660D02*
X108917740Y-125684280D01*
X108917740Y-125684280D02*
X109118400Y-125183900D01*
X109118400Y-125183900D02*
X109618780Y-124584460D01*
X109618780Y-124584460D02*
X110119160Y-124284740D01*
X110119160Y-124284740D02*
X110619540Y-124183140D01*
X110718600Y-124183140D02*
X117320060Y-124183140D01*
X117320060Y-124183140D02*
X117718840Y-124284740D01*
X117718840Y-124284740D02*
X118219220Y-124584460D01*
X118219220Y-124584460D02*
X118719600Y-125084840D01*
X110728760Y-123654820D02*
X110269020Y-123703080D01*
X110269020Y-123703080D02*
X109870240Y-123814840D01*
X109870240Y-123814840D02*
X109438440Y-124033280D01*
X109438440Y-124033280D02*
X109148880Y-124264420D01*
X109148880Y-124264420D02*
X108818680Y-124614940D01*
X108818680Y-124614940D02*
X108529120Y-125153420D01*
X108529120Y-125153420D02*
X108399580Y-125752860D01*
X108399580Y-125752860D02*
X108399580Y-126263400D01*
X108399580Y-126263400D02*
X108569760Y-126964440D01*
X108569760Y-126964440D02*
X108968540Y-127553720D01*
X108968540Y-127553720D02*
X109428280Y-127924560D01*
X109428280Y-127924560D02*
X109849920Y-128132840D01*
X109849920Y-128132840D02*
X110299500Y-128292860D01*
X110299500Y-128292860D02*
X110738920Y-128323340D01*
X118079520Y-128104900D02*
X118457980Y-127883920D01*
X118457980Y-127883920D02*
X118778020Y-127604520D01*
X118778020Y-127604520D02*
X119029480Y-127274320D01*
X119029480Y-127274320D02*
X119329200Y-126723140D01*
X119329200Y-126723140D02*
X119438420Y-126253240D01*
X119438420Y-126253240D02*
X119458740Y-125793500D01*
X119458740Y-125793500D02*
X119369840Y-125333760D01*
X119369840Y-125333760D02*
X119179340Y-124884180D01*
X119179340Y-124884180D02*
X118818660Y-124414280D01*
X118818660Y-124414280D02*
X118468140Y-124094240D01*
X118468140Y-124094240D02*
X118079520Y-123863100D01*
X118079520Y-123863100D02*
X117650260Y-123723400D01*
X117650260Y-123723400D02*
X117208300Y-123654820D01*
X110718600Y-128313180D02*
X117170200Y-128313180D01*
X117170200Y-128313180D02*
X117589300Y-128275080D01*
X117589300Y-128275080D02*
X118079520Y-128104900D01*
X110718600Y-123654820D02*
X117170200Y-123654820D01*
X98210619Y-61563238D02*
X98163000Y-61658476D01*
X98067762Y-61753714D01*
X97924905Y-61896571D01*
X97877286Y-61991810D01*
X97877286Y-62087048D01*
X98115381Y-62039429D02*
X98067762Y-62134667D01*
X97972524Y-62229905D01*
X97782048Y-62277524D01*
X97448714Y-62277524D01*
X97258238Y-62229905D01*
X97163000Y-62134667D01*
X97115381Y-62039429D01*
X97115381Y-61848952D01*
X97163000Y-61753714D01*
X97258238Y-61658476D01*
X97448714Y-61610857D01*
X97782048Y-61610857D01*
X97972524Y-61658476D01*
X98067762Y-61753714D01*
X98115381Y-61848952D01*
X98115381Y-62039429D01*
X97210619Y-61229905D02*
X97163000Y-61182286D01*
X97115381Y-61087048D01*
X97115381Y-60848952D01*
X97163000Y-60753714D01*
X97210619Y-60706095D01*
X97305857Y-60658476D01*
X97401095Y-60658476D01*
X97543952Y-60706095D01*
X98115381Y-61277524D01*
X98115381Y-60658476D01*
X101536667Y-46672381D02*
X101203333Y-46196190D01*
X100965238Y-46672381D02*
X100965238Y-45672381D01*
X101346191Y-45672381D01*
X101441429Y-45720000D01*
X101489048Y-45767619D01*
X101536667Y-45862857D01*
X101536667Y-46005714D01*
X101489048Y-46100952D01*
X101441429Y-46148571D01*
X101346191Y-46196190D01*
X100965238Y-46196190D01*
X101965238Y-46148571D02*
X102298572Y-46148571D01*
X102441429Y-46672381D02*
X101965238Y-46672381D01*
X101965238Y-45672381D01*
X102441429Y-45672381D01*
X103203334Y-46148571D02*
X102870000Y-46148571D01*
X102870000Y-46672381D02*
X102870000Y-45672381D01*
X103346191Y-45672381D01*
X103870000Y-45672381D02*
X103870000Y-45910476D01*
X103631905Y-45815238D02*
X103870000Y-45910476D01*
X104108096Y-45815238D01*
X103727143Y-46100952D02*
X103870000Y-45910476D01*
X104012858Y-46100952D01*
X104631905Y-45672381D02*
X104631905Y-45910476D01*
X104393810Y-45815238D02*
X104631905Y-45910476D01*
X104870001Y-45815238D01*
X104489048Y-46100952D02*
X104631905Y-45910476D01*
X104774763Y-46100952D01*
X83479946Y-73594632D02*
X84194232Y-73594632D01*
X84337089Y-73642252D01*
X84432327Y-73737490D01*
X84479946Y-73880347D01*
X84479946Y-73975585D01*
X84479946Y-72594632D02*
X84479946Y-73166061D01*
X84479946Y-72880347D02*
X83479946Y-72880347D01*
X83622803Y-72975585D01*
X83718041Y-73070823D01*
X83765660Y-73166061D01*
X121399564Y-130175899D02*
X121447183Y-130223518D01*
X121494802Y-130366375D01*
X121494802Y-130461613D01*
X121447183Y-130604471D01*
X121351945Y-130699709D01*
X121256707Y-130747328D01*
X121066231Y-130794947D01*
X120923373Y-130794947D01*
X120732897Y-130747328D01*
X120637659Y-130699709D01*
X120542421Y-130604471D01*
X120494802Y-130461613D01*
X120494802Y-130366375D01*
X120542421Y-130223518D01*
X120590040Y-130175899D01*
X120590040Y-129794947D02*
X120542421Y-129747328D01*
X120494802Y-129652090D01*
X120494802Y-129413994D01*
X120542421Y-129318756D01*
X120590040Y-129271137D01*
X120685278Y-129223518D01*
X120780516Y-129223518D01*
X120923373Y-129271137D01*
X121494802Y-129842566D01*
X121494802Y-129223518D01*
X124814802Y-137862423D02*
X123814802Y-137862423D01*
X124719564Y-136814804D02*
X124767183Y-136862423D01*
X124814802Y-137005280D01*
X124814802Y-137100518D01*
X124767183Y-137243376D01*
X124671945Y-137338614D01*
X124576707Y-137386233D01*
X124386231Y-137433852D01*
X124243373Y-137433852D01*
X124052897Y-137386233D01*
X123957659Y-137338614D01*
X123862421Y-137243376D01*
X123814802Y-137100518D01*
X123814802Y-137005280D01*
X123862421Y-136862423D01*
X123910040Y-136814804D01*
X124814802Y-135862423D02*
X124814802Y-136433852D01*
X124814802Y-136148138D02*
X123814802Y-136148138D01*
X123957659Y-136243376D01*
X124052897Y-136338614D01*
X124100516Y-136433852D01*
X99117386Y-111922217D02*
X98641195Y-112255551D01*
X99117386Y-112493646D02*
X98117386Y-112493646D01*
X98117386Y-112112693D01*
X98165005Y-112017455D01*
X98212624Y-111969836D01*
X98307862Y-111922217D01*
X98450719Y-111922217D01*
X98545957Y-111969836D01*
X98593576Y-112017455D01*
X98641195Y-112112693D01*
X98641195Y-112493646D01*
X98212624Y-111541265D02*
X98165005Y-111493646D01*
X98117386Y-111398408D01*
X98117386Y-111160312D01*
X98165005Y-111065074D01*
X98212624Y-111017455D01*
X98307862Y-110969836D01*
X98403100Y-110969836D01*
X98545957Y-111017455D01*
X99117386Y-111588884D01*
X99117386Y-110969836D01*
X118986564Y-130175899D02*
X119034183Y-130223518D01*
X119081802Y-130366375D01*
X119081802Y-130461613D01*
X119034183Y-130604471D01*
X118938945Y-130699709D01*
X118843707Y-130747328D01*
X118653231Y-130794947D01*
X118510373Y-130794947D01*
X118319897Y-130747328D01*
X118224659Y-130699709D01*
X118129421Y-130604471D01*
X118081802Y-130461613D01*
X118081802Y-130366375D01*
X118129421Y-130223518D01*
X118177040Y-130175899D01*
X119081802Y-129223518D02*
X119081802Y-129794947D01*
X119081802Y-129509233D02*
X118081802Y-129509233D01*
X118224659Y-129604471D01*
X118319897Y-129699709D01*
X118367516Y-129794947D01*
X114551564Y-143891899D02*
X114599183Y-143939518D01*
X114646802Y-144082375D01*
X114646802Y-144177613D01*
X114599183Y-144320471D01*
X114503945Y-144415709D01*
X114408707Y-144463328D01*
X114218231Y-144510947D01*
X114075373Y-144510947D01*
X113884897Y-144463328D01*
X113789659Y-144415709D01*
X113694421Y-144320471D01*
X113646802Y-144177613D01*
X113646802Y-144082375D01*
X113694421Y-143939518D01*
X113742040Y-143891899D01*
X113646802Y-143558566D02*
X113646802Y-142939518D01*
X114027754Y-143272852D01*
X114027754Y-143129994D01*
X114075373Y-143034756D01*
X114122992Y-142987137D01*
X114218231Y-142939518D01*
X114456326Y-142939518D01*
X114551564Y-142987137D01*
X114599183Y-143034756D01*
X114646802Y-143129994D01*
X114646802Y-143415709D01*
X114599183Y-143510947D01*
X114551564Y-143558566D01*
X120754156Y-111136653D02*
X120801775Y-111184272D01*
X120849394Y-111327129D01*
X120849394Y-111422367D01*
X120801775Y-111565225D01*
X120706537Y-111660463D01*
X120611299Y-111708082D01*
X120420823Y-111755701D01*
X120277965Y-111755701D01*
X120087489Y-111708082D01*
X119992251Y-111660463D01*
X119897013Y-111565225D01*
X119849394Y-111422367D01*
X119849394Y-111327129D01*
X119897013Y-111184272D01*
X119944632Y-111136653D01*
X120182727Y-110279510D02*
X120849394Y-110279510D01*
X119801775Y-110517606D02*
X120516061Y-110755701D01*
X120516061Y-110136653D01*
X103543381Y-120758143D02*
X103495762Y-120805762D01*
X103352905Y-120853381D01*
X103257667Y-120853381D01*
X103114809Y-120805762D01*
X103019571Y-120710524D01*
X102971952Y-120615286D01*
X102924333Y-120424810D01*
X102924333Y-120281952D01*
X102971952Y-120091476D01*
X103019571Y-119996238D01*
X103114809Y-119901000D01*
X103257667Y-119853381D01*
X103352905Y-119853381D01*
X103495762Y-119901000D01*
X103543381Y-119948619D01*
X104448143Y-119853381D02*
X103971952Y-119853381D01*
X103924333Y-120329571D01*
X103971952Y-120281952D01*
X104067190Y-120234333D01*
X104305286Y-120234333D01*
X104400524Y-120281952D01*
X104448143Y-120329571D01*
X104495762Y-120424810D01*
X104495762Y-120662905D01*
X104448143Y-120758143D01*
X104400524Y-120805762D01*
X104305286Y-120853381D01*
X104067190Y-120853381D01*
X103971952Y-120805762D01*
X103924333Y-120758143D01*
X179919334Y-147142381D02*
X179586000Y-146666190D01*
X179347905Y-147142381D02*
X179347905Y-146142381D01*
X179728858Y-146142381D01*
X179824096Y-146190000D01*
X179871715Y-146237619D01*
X179919334Y-146332857D01*
X179919334Y-146475714D01*
X179871715Y-146570952D01*
X179824096Y-146618571D01*
X179728858Y-146666190D01*
X179347905Y-146666190D01*
X180252667Y-146142381D02*
X180871715Y-146142381D01*
X180538381Y-146523333D01*
X180681239Y-146523333D01*
X180776477Y-146570952D01*
X180824096Y-146618571D01*
X180871715Y-146713810D01*
X180871715Y-146951905D01*
X180824096Y-147047143D01*
X180776477Y-147094762D01*
X180681239Y-147142381D01*
X180395524Y-147142381D01*
X180300286Y-147094762D01*
X180252667Y-147047143D01*
X102937386Y-111922217D02*
X102461195Y-112255551D01*
X102937386Y-112493646D02*
X101937386Y-112493646D01*
X101937386Y-112112693D01*
X101985005Y-112017455D01*
X102032624Y-111969836D01*
X102127862Y-111922217D01*
X102270719Y-111922217D01*
X102365957Y-111969836D01*
X102413576Y-112017455D01*
X102461195Y-112112693D01*
X102461195Y-112493646D01*
X102270719Y-111065074D02*
X102937386Y-111065074D01*
X101889767Y-111303170D02*
X102604053Y-111541265D01*
X102604053Y-110922217D01*
X117555842Y-117996500D02*
X117555842Y-118806024D01*
X117603461Y-118901262D01*
X117651080Y-118948881D01*
X117746318Y-118996500D01*
X117936795Y-118996500D01*
X118032033Y-118948881D01*
X118079652Y-118901262D01*
X118127271Y-118806024D01*
X118127271Y-117996500D01*
X119127271Y-118996500D02*
X118555842Y-118996500D01*
X118841556Y-118996500D02*
X118841556Y-117996500D01*
X118746318Y-118139357D01*
X118651080Y-118234595D01*
X118555842Y-118282214D01*
X210971943Y-78827160D02*
X210638609Y-78350969D01*
X210400514Y-78827160D02*
X210400514Y-77827160D01*
X210781467Y-77827160D01*
X210876705Y-77874779D01*
X210924324Y-77922398D01*
X210971943Y-78017636D01*
X210971943Y-78160493D01*
X210924324Y-78255731D01*
X210876705Y-78303350D01*
X210781467Y-78350969D01*
X210400514Y-78350969D01*
X211924324Y-78827160D02*
X211352895Y-78827160D01*
X211638609Y-78827160D02*
X211638609Y-77827160D01*
X211543371Y-77970017D01*
X211448133Y-78065255D01*
X211352895Y-78112874D01*
X77344924Y-142926840D02*
X76344924Y-142926840D01*
X76344924Y-142545887D01*
X76392543Y-142450649D01*
X76440162Y-142403030D01*
X76535400Y-142355411D01*
X76678257Y-142355411D01*
X76773495Y-142403030D01*
X76821114Y-142450649D01*
X76868733Y-142545887D01*
X76868733Y-142926840D01*
X76440162Y-141974459D02*
X76392543Y-141926840D01*
X76344924Y-141831602D01*
X76344924Y-141593506D01*
X76392543Y-141498268D01*
X76440162Y-141450649D01*
X76535400Y-141403030D01*
X76630638Y-141403030D01*
X76773495Y-141450649D01*
X77344924Y-142022078D01*
X77344924Y-141403030D01*
X113611170Y-115994615D02*
X113134979Y-116327949D01*
X113611170Y-116566044D02*
X112611170Y-116566044D01*
X112611170Y-116185091D01*
X112658789Y-116089853D01*
X112706408Y-116042234D01*
X112801646Y-115994615D01*
X112944503Y-115994615D01*
X113039741Y-116042234D01*
X113087360Y-116089853D01*
X113134979Y-116185091D01*
X113134979Y-116566044D01*
X112611170Y-115089853D02*
X112611170Y-115566044D01*
X113087360Y-115613663D01*
X113039741Y-115566044D01*
X112992122Y-115470806D01*
X112992122Y-115232710D01*
X113039741Y-115137472D01*
X113087360Y-115089853D01*
X113182599Y-115042234D01*
X113420694Y-115042234D01*
X113515932Y-115089853D01*
X113563551Y-115137472D01*
X113611170Y-115232710D01*
X113611170Y-115470806D01*
X113563551Y-115566044D01*
X113515932Y-115613663D01*
X113611170Y-118661615D02*
X113134979Y-118994949D01*
X113611170Y-119233044D02*
X112611170Y-119233044D01*
X112611170Y-118852091D01*
X112658789Y-118756853D01*
X112706408Y-118709234D01*
X112801646Y-118661615D01*
X112944503Y-118661615D01*
X113039741Y-118709234D01*
X113087360Y-118756853D01*
X113134979Y-118852091D01*
X113134979Y-119233044D01*
X112611170Y-117804472D02*
X112611170Y-117994949D01*
X112658789Y-118090187D01*
X112706408Y-118137806D01*
X112849265Y-118233044D01*
X113039741Y-118280663D01*
X113420694Y-118280663D01*
X113515932Y-118233044D01*
X113563551Y-118185425D01*
X113611170Y-118090187D01*
X113611170Y-117899710D01*
X113563551Y-117804472D01*
X113515932Y-117756853D01*
X113420694Y-117709234D01*
X113182599Y-117709234D01*
X113087360Y-117756853D01*
X113039741Y-117804472D01*
X112992122Y-117899710D01*
X112992122Y-118090187D01*
X113039741Y-118185425D01*
X113087360Y-118233044D01*
X113182599Y-118280663D01*
X100163334Y-124558143D02*
X100115715Y-124605762D01*
X99972858Y-124653381D01*
X99877620Y-124653381D01*
X99734762Y-124605762D01*
X99639524Y-124510524D01*
X99591905Y-124415286D01*
X99544286Y-124224810D01*
X99544286Y-124081952D01*
X99591905Y-123891476D01*
X99639524Y-123796238D01*
X99734762Y-123701000D01*
X99877620Y-123653381D01*
X99972858Y-123653381D01*
X100115715Y-123701000D01*
X100163334Y-123748619D01*
X101020477Y-123653381D02*
X100830000Y-123653381D01*
X100734762Y-123701000D01*
X100687143Y-123748619D01*
X100591905Y-123891476D01*
X100544286Y-124081952D01*
X100544286Y-124462905D01*
X100591905Y-124558143D01*
X100639524Y-124605762D01*
X100734762Y-124653381D01*
X100925239Y-124653381D01*
X101020477Y-124605762D01*
X101068096Y-124558143D01*
X101115715Y-124462905D01*
X101115715Y-124224810D01*
X101068096Y-124129571D01*
X101020477Y-124081952D01*
X100925239Y-124034333D01*
X100734762Y-124034333D01*
X100639524Y-124081952D01*
X100591905Y-124129571D01*
X100544286Y-124224810D01*
X105222381Y-124753666D02*
X104746190Y-125087000D01*
X105222381Y-125325095D02*
X104222381Y-125325095D01*
X104222381Y-124944142D01*
X104270000Y-124848904D01*
X104317619Y-124801285D01*
X104412857Y-124753666D01*
X104555714Y-124753666D01*
X104650952Y-124801285D01*
X104698571Y-124848904D01*
X104746190Y-124944142D01*
X104746190Y-125325095D01*
X104222381Y-124420333D02*
X104222381Y-123753666D01*
X105222381Y-124182238D01*
X99644381Y-124753666D02*
X99168190Y-125087000D01*
X99644381Y-125325095D02*
X98644381Y-125325095D01*
X98644381Y-124944142D01*
X98692000Y-124848904D01*
X98739619Y-124801285D01*
X98834857Y-124753666D01*
X98977714Y-124753666D01*
X99072952Y-124801285D01*
X99120571Y-124848904D01*
X99168190Y-124944142D01*
X99168190Y-125325095D01*
X99072952Y-124182238D02*
X99025333Y-124277476D01*
X98977714Y-124325095D01*
X98882476Y-124372714D01*
X98834857Y-124372714D01*
X98739619Y-124325095D01*
X98692000Y-124277476D01*
X98644381Y-124182238D01*
X98644381Y-123991761D01*
X98692000Y-123896523D01*
X98739619Y-123848904D01*
X98834857Y-123801285D01*
X98882476Y-123801285D01*
X98977714Y-123848904D01*
X99025333Y-123896523D01*
X99072952Y-123991761D01*
X99072952Y-124182238D01*
X99120571Y-124277476D01*
X99168190Y-124325095D01*
X99263429Y-124372714D01*
X99453905Y-124372714D01*
X99549143Y-124325095D01*
X99596762Y-124277476D01*
X99644381Y-124182238D01*
X99644381Y-123991761D01*
X99596762Y-123896523D01*
X99549143Y-123848904D01*
X99453905Y-123801285D01*
X99263429Y-123801285D01*
X99168190Y-123848904D01*
X99120571Y-123896523D01*
X99072952Y-123991761D01*
X94039868Y-113028837D02*
X93706534Y-112552646D01*
X93468439Y-113028837D02*
X93468439Y-112028837D01*
X93849392Y-112028837D01*
X93944630Y-112076456D01*
X93992249Y-112124075D01*
X94039868Y-112219313D01*
X94039868Y-112362170D01*
X93992249Y-112457408D01*
X93944630Y-112505027D01*
X93849392Y-112552646D01*
X93468439Y-112552646D01*
X94516058Y-113028837D02*
X94706534Y-113028837D01*
X94801773Y-112981218D01*
X94849392Y-112933599D01*
X94944630Y-112790742D01*
X94992249Y-112600266D01*
X94992249Y-112219313D01*
X94944630Y-112124075D01*
X94897011Y-112076456D01*
X94801773Y-112028837D01*
X94611296Y-112028837D01*
X94516058Y-112076456D01*
X94468439Y-112124075D01*
X94420820Y-112219313D01*
X94420820Y-112457408D01*
X94468439Y-112552646D01*
X94516058Y-112600266D01*
X94611296Y-112647885D01*
X94801773Y-112647885D01*
X94897011Y-112600266D01*
X94944630Y-112552646D01*
X94992249Y-112457408D01*
X101183677Y-116828837D02*
X100850343Y-116352646D01*
X100612248Y-116828837D02*
X100612248Y-115828837D01*
X100993201Y-115828837D01*
X101088439Y-115876456D01*
X101136058Y-115924075D01*
X101183677Y-116019313D01*
X101183677Y-116162170D01*
X101136058Y-116257408D01*
X101088439Y-116305027D01*
X100993201Y-116352646D01*
X100612248Y-116352646D01*
X102136058Y-116828837D02*
X101564629Y-116828837D01*
X101850343Y-116828837D02*
X101850343Y-115828837D01*
X101755105Y-115971694D01*
X101659867Y-116066932D01*
X101564629Y-116114551D01*
X102755105Y-115828837D02*
X102850344Y-115828837D01*
X102945582Y-115876456D01*
X102993201Y-115924075D01*
X103040820Y-116019313D01*
X103088439Y-116209789D01*
X103088439Y-116447885D01*
X103040820Y-116638361D01*
X102993201Y-116733599D01*
X102945582Y-116781218D01*
X102850344Y-116828837D01*
X102755105Y-116828837D01*
X102659867Y-116781218D01*
X102612248Y-116733599D01*
X102564629Y-116638361D01*
X102517010Y-116447885D01*
X102517010Y-116209789D01*
X102564629Y-116019313D01*
X102612248Y-115924075D01*
X102659867Y-115876456D01*
X102755105Y-115828837D01*
X210495752Y-55967160D02*
X210162418Y-55490969D01*
X209924323Y-55967160D02*
X209924323Y-54967160D01*
X210305276Y-54967160D01*
X210400514Y-55014779D01*
X210448133Y-55062398D01*
X210495752Y-55157636D01*
X210495752Y-55300493D01*
X210448133Y-55395731D01*
X210400514Y-55443350D01*
X210305276Y-55490969D01*
X209924323Y-55490969D01*
X211448133Y-55967160D02*
X210876704Y-55967160D01*
X211162418Y-55967160D02*
X211162418Y-54967160D01*
X211067180Y-55110017D01*
X210971942Y-55205255D01*
X210876704Y-55252874D01*
X212400514Y-55967160D02*
X211829085Y-55967160D01*
X212114799Y-55967160D02*
X212114799Y-54967160D01*
X212019561Y-55110017D01*
X211924323Y-55205255D01*
X211829085Y-55252874D01*
X210495752Y-67397160D02*
X210162418Y-66920969D01*
X209924323Y-67397160D02*
X209924323Y-66397160D01*
X210305276Y-66397160D01*
X210400514Y-66444779D01*
X210448133Y-66492398D01*
X210495752Y-66587636D01*
X210495752Y-66730493D01*
X210448133Y-66825731D01*
X210400514Y-66873350D01*
X210305276Y-66920969D01*
X209924323Y-66920969D01*
X211448133Y-67397160D02*
X210876704Y-67397160D01*
X211162418Y-67397160D02*
X211162418Y-66397160D01*
X211067180Y-66540017D01*
X210971942Y-66635255D01*
X210876704Y-66682874D01*
X211829085Y-66492398D02*
X211876704Y-66444779D01*
X211971942Y-66397160D01*
X212210038Y-66397160D01*
X212305276Y-66444779D01*
X212352895Y-66492398D01*
X212400514Y-66587636D01*
X212400514Y-66682874D01*
X212352895Y-66825731D01*
X211781466Y-67397160D01*
X212400514Y-67397160D01*
X84407808Y-113322374D02*
X84360189Y-113369993D01*
X84217332Y-113417612D01*
X84122094Y-113417612D01*
X83979236Y-113369993D01*
X83883998Y-113274755D01*
X83836379Y-113179517D01*
X83788760Y-112989041D01*
X83788760Y-112846183D01*
X83836379Y-112655707D01*
X83883998Y-112560469D01*
X83979236Y-112465231D01*
X84122094Y-112417612D01*
X84217332Y-112417612D01*
X84360189Y-112465231D01*
X84407808Y-112512850D01*
X84741141Y-112417612D02*
X85407808Y-112417612D01*
X84979236Y-113417612D01*
D13*
X210629714Y-140241571D02*
X210963048Y-140241571D01*
X211105905Y-140765381D02*
X210629714Y-140765381D01*
X210629714Y-139765381D01*
X211105905Y-139765381D01*
X211534476Y-140765381D02*
X211534476Y-139765381D01*
X212105905Y-140765381D01*
X212105905Y-139765381D01*
X213153524Y-140670143D02*
X213105905Y-140717762D01*
X212963048Y-140765381D01*
X212867810Y-140765381D01*
X212724952Y-140717762D01*
X212629714Y-140622524D01*
X212582095Y-140527286D01*
X212534476Y-140336810D01*
X212534476Y-140193952D01*
X212582095Y-140003476D01*
X212629714Y-139908238D01*
X212724952Y-139813000D01*
X212867810Y-139765381D01*
X212963048Y-139765381D01*
X213105905Y-139813000D01*
X213153524Y-139860619D01*
X214105905Y-140765381D02*
X213534476Y-140765381D01*
X213820190Y-140765381D02*
X213820190Y-139765381D01*
X213724952Y-139908238D01*
X213629714Y-140003476D01*
X213534476Y-140051095D01*
X205939238Y-138479667D02*
X206415429Y-138479667D01*
X205844000Y-138765381D02*
X206177333Y-137765381D01*
X206510667Y-138765381D01*
X207320191Y-138765381D02*
X206844000Y-138765381D01*
X206844000Y-137765381D01*
X207653524Y-138765381D02*
X207653524Y-137765381D01*
X208034477Y-137765381D01*
X208129715Y-137813000D01*
X208177334Y-137860619D01*
X208224953Y-137955857D01*
X208224953Y-138098714D01*
X208177334Y-138193952D01*
X208129715Y-138241571D01*
X208034477Y-138289190D01*
X207653524Y-138289190D01*
X208605905Y-138717762D02*
X208748762Y-138765381D01*
X208986858Y-138765381D01*
X209082096Y-138717762D01*
X209129715Y-138670143D01*
X209177334Y-138574905D01*
X209177334Y-138479667D01*
X209129715Y-138384429D01*
X209082096Y-138336810D01*
X208986858Y-138289190D01*
X208796381Y-138241571D01*
X208701143Y-138193952D01*
X208653524Y-138146333D01*
X208605905Y-138051095D01*
X208605905Y-137955857D01*
X208653524Y-137860619D01*
X208701143Y-137813000D01*
X208796381Y-137765381D01*
X209034477Y-137765381D01*
X209177334Y-137813000D01*
X209605905Y-138384429D02*
X210367810Y-138384429D01*
X210796381Y-138717762D02*
X210939238Y-138765381D01*
X211177334Y-138765381D01*
X211272572Y-138717762D01*
X211320191Y-138670143D01*
X211367810Y-138574905D01*
X211367810Y-138479667D01*
X211320191Y-138384429D01*
X211272572Y-138336810D01*
X211177334Y-138289190D01*
X210986857Y-138241571D01*
X210891619Y-138193952D01*
X210844000Y-138146333D01*
X210796381Y-138051095D01*
X210796381Y-137955857D01*
X210844000Y-137860619D01*
X210891619Y-137813000D01*
X210986857Y-137765381D01*
X211224953Y-137765381D01*
X211367810Y-137813000D01*
X211653524Y-137765381D02*
X212224953Y-137765381D01*
X211939238Y-138765381D02*
X211939238Y-137765381D01*
X212558286Y-138241571D02*
X212891620Y-138241571D01*
X213034477Y-138765381D02*
X212558286Y-138765381D01*
X212558286Y-137765381D01*
X213034477Y-137765381D01*
X214034477Y-138670143D02*
X213986858Y-138717762D01*
X213844001Y-138765381D01*
X213748763Y-138765381D01*
X213605905Y-138717762D01*
X213510667Y-138622524D01*
X213463048Y-138527286D01*
X213415429Y-138336810D01*
X213415429Y-138193952D01*
X213463048Y-138003476D01*
X213510667Y-137908238D01*
X213605905Y-137813000D01*
X213748763Y-137765381D01*
X213844001Y-137765381D01*
X213986858Y-137813000D01*
X214034477Y-137860619D01*
X214986858Y-138765381D02*
X214415429Y-138765381D01*
X214701143Y-138765381D02*
X214701143Y-137765381D01*
X214605905Y-137908238D01*
X214510667Y-138003476D01*
X214415429Y-138051095D01*
X215367810Y-137860619D02*
X215415429Y-137813000D01*
X215510667Y-137765381D01*
X215748763Y-137765381D01*
X215844001Y-137813000D01*
X215891620Y-137860619D01*
X215939239Y-137955857D01*
X215939239Y-138051095D01*
X215891620Y-138193952D01*
X215320191Y-138765381D01*
X215939239Y-138765381D01*
X216367810Y-138241571D02*
X216701144Y-138241571D01*
X216844001Y-138765381D02*
X216367810Y-138765381D01*
X216367810Y-137765381D01*
X216844001Y-137765381D01*
X217463048Y-137765381D02*
X217558287Y-137765381D01*
X217653525Y-137813000D01*
X217701144Y-137860619D01*
X217748763Y-137955857D01*
X217796382Y-138146333D01*
X217796382Y-138384429D01*
X217748763Y-138574905D01*
X217701144Y-138670143D01*
X217653525Y-138717762D01*
X217558287Y-138765381D01*
X217463048Y-138765381D01*
X217367810Y-138717762D01*
X217320191Y-138670143D01*
X217272572Y-138574905D01*
X217224953Y-138384429D01*
X217224953Y-138146333D01*
X217272572Y-137955857D01*
X217320191Y-137860619D01*
X217367810Y-137813000D01*
X217463048Y-137765381D01*
X218367810Y-138193952D02*
X218272572Y-138146333D01*
X218224953Y-138098714D01*
X218177334Y-138003476D01*
X218177334Y-137955857D01*
X218224953Y-137860619D01*
X218272572Y-137813000D01*
X218367810Y-137765381D01*
X218558287Y-137765381D01*
X218653525Y-137813000D01*
X218701144Y-137860619D01*
X218748763Y-137955857D01*
X218748763Y-138003476D01*
X218701144Y-138098714D01*
X218653525Y-138146333D01*
X218558287Y-138193952D01*
X218367810Y-138193952D01*
X218272572Y-138241571D01*
X218224953Y-138289190D01*
X218177334Y-138384429D01*
X218177334Y-138574905D01*
X218224953Y-138670143D01*
X218272572Y-138717762D01*
X218367810Y-138765381D01*
X218558287Y-138765381D01*
X218653525Y-138717762D01*
X218701144Y-138670143D01*
X218748763Y-138574905D01*
X218748763Y-138384429D01*
X218701144Y-138289190D01*
X218653525Y-138241571D01*
X218558287Y-138193952D01*
D11*
X154610381Y-149328095D02*
X153610381Y-149328095D01*
X153610381Y-148947142D01*
X153658000Y-148851904D01*
X153705619Y-148804285D01*
X153800857Y-148756666D01*
X153943714Y-148756666D01*
X154038952Y-148804285D01*
X154086571Y-148851904D01*
X154134190Y-148947142D01*
X154134190Y-149328095D01*
X154610381Y-147804285D02*
X154610381Y-148375714D01*
X154610381Y-148090000D02*
X153610381Y-148090000D01*
X153753238Y-148185238D01*
X153848476Y-148280476D01*
X153896095Y-148375714D01*
X125055334Y-134982143D02*
X125007715Y-135029762D01*
X124864858Y-135077381D01*
X124769620Y-135077381D01*
X124626762Y-135029762D01*
X124531524Y-134934524D01*
X124483905Y-134839286D01*
X124436286Y-134648810D01*
X124436286Y-134505952D01*
X124483905Y-134315476D01*
X124531524Y-134220238D01*
X124626762Y-134125000D01*
X124769620Y-134077381D01*
X124864858Y-134077381D01*
X125007715Y-134125000D01*
X125055334Y-134172619D01*
X125626762Y-134505952D02*
X125531524Y-134458333D01*
X125483905Y-134410714D01*
X125436286Y-134315476D01*
X125436286Y-134267857D01*
X125483905Y-134172619D01*
X125531524Y-134125000D01*
X125626762Y-134077381D01*
X125817239Y-134077381D01*
X125912477Y-134125000D01*
X125960096Y-134172619D01*
X126007715Y-134267857D01*
X126007715Y-134315476D01*
X125960096Y-134410714D01*
X125912477Y-134458333D01*
X125817239Y-134505952D01*
X125626762Y-134505952D01*
X125531524Y-134553571D01*
X125483905Y-134601190D01*
X125436286Y-134696429D01*
X125436286Y-134886905D01*
X125483905Y-134982143D01*
X125531524Y-135029762D01*
X125626762Y-135077381D01*
X125817239Y-135077381D01*
X125912477Y-135029762D01*
X125960096Y-134982143D01*
X126007715Y-134886905D01*
X126007715Y-134696429D01*
X125960096Y-134601190D01*
X125912477Y-134553571D01*
X125817239Y-134505952D01*
X126939381Y-134627857D02*
X126463190Y-134961191D01*
X126939381Y-135199286D02*
X125939381Y-135199286D01*
X125939381Y-134818333D01*
X125987000Y-134723095D01*
X126034619Y-134675476D01*
X126129857Y-134627857D01*
X126272714Y-134627857D01*
X126367952Y-134675476D01*
X126415571Y-134723095D01*
X126463190Y-134818333D01*
X126463190Y-135199286D01*
X126939381Y-133675476D02*
X126939381Y-134246905D01*
X126939381Y-133961191D02*
X125939381Y-133961191D01*
X126082238Y-134056429D01*
X126177476Y-134151667D01*
X126225095Y-134246905D01*
X125939381Y-133342143D02*
X125939381Y-132723095D01*
X126320333Y-133056429D01*
X126320333Y-132913571D01*
X126367952Y-132818333D01*
X126415571Y-132770714D01*
X126510810Y-132723095D01*
X126748905Y-132723095D01*
X126844143Y-132770714D01*
X126891762Y-132818333D01*
X126939381Y-132913571D01*
X126939381Y-133199286D01*
X126891762Y-133294524D01*
X126844143Y-133342143D01*
X101749767Y-110307170D02*
X101654529Y-110259551D01*
X101559291Y-110164313D01*
X101416434Y-110021456D01*
X101321195Y-109973837D01*
X101225957Y-109973837D01*
X101273576Y-110211932D02*
X101178338Y-110164313D01*
X101083100Y-110069075D01*
X101035481Y-109878599D01*
X101035481Y-109545265D01*
X101083100Y-109354789D01*
X101178338Y-109259551D01*
X101273576Y-109211932D01*
X101464053Y-109211932D01*
X101559291Y-109259551D01*
X101654529Y-109354789D01*
X101702148Y-109545265D01*
X101702148Y-109878599D01*
X101654529Y-110069075D01*
X101559291Y-110164313D01*
X101464053Y-110211932D01*
X101273576Y-110211932D01*
X102559291Y-109211932D02*
X102368814Y-109211932D01*
X102273576Y-109259551D01*
X102225957Y-109307170D01*
X102130719Y-109450027D01*
X102083100Y-109640503D01*
X102083100Y-110021456D01*
X102130719Y-110116694D01*
X102178338Y-110164313D01*
X102273576Y-110211932D01*
X102464053Y-110211932D01*
X102559291Y-110164313D01*
X102606910Y-110116694D01*
X102654529Y-110021456D01*
X102654529Y-109783361D01*
X102606910Y-109688122D01*
X102559291Y-109640503D01*
X102464053Y-109592884D01*
X102273576Y-109592884D01*
X102178338Y-109640503D01*
X102130719Y-109688122D01*
X102083100Y-109783361D01*
X94129767Y-110307170D02*
X94034529Y-110259551D01*
X93939291Y-110164313D01*
X93796434Y-110021456D01*
X93701195Y-109973837D01*
X93605957Y-109973837D01*
X93653576Y-110211932D02*
X93558338Y-110164313D01*
X93463100Y-110069075D01*
X93415481Y-109878599D01*
X93415481Y-109545265D01*
X93463100Y-109354789D01*
X93558338Y-109259551D01*
X93653576Y-109211932D01*
X93844053Y-109211932D01*
X93939291Y-109259551D01*
X94034529Y-109354789D01*
X94082148Y-109545265D01*
X94082148Y-109878599D01*
X94034529Y-110069075D01*
X93939291Y-110164313D01*
X93844053Y-110211932D01*
X93653576Y-110211932D01*
X95034529Y-110211932D02*
X94463100Y-110211932D01*
X94748814Y-110211932D02*
X94748814Y-109211932D01*
X94653576Y-109354789D01*
X94558338Y-109450027D01*
X94463100Y-109497646D01*
X84407808Y-100622374D02*
X84360189Y-100669993D01*
X84217332Y-100717612D01*
X84122094Y-100717612D01*
X83979236Y-100669993D01*
X83883998Y-100574755D01*
X83836379Y-100479517D01*
X83788760Y-100289041D01*
X83788760Y-100146183D01*
X83836379Y-99955707D01*
X83883998Y-99860469D01*
X83979236Y-99765231D01*
X84122094Y-99717612D01*
X84217332Y-99717612D01*
X84360189Y-99765231D01*
X84407808Y-99812850D01*
X84883998Y-100717612D02*
X85074474Y-100717612D01*
X85169713Y-100669993D01*
X85217332Y-100622374D01*
X85312570Y-100479517D01*
X85360189Y-100289041D01*
X85360189Y-99908088D01*
X85312570Y-99812850D01*
X85264951Y-99765231D01*
X85169713Y-99717612D01*
X84979236Y-99717612D01*
X84883998Y-99765231D01*
X84836379Y-99812850D01*
X84788760Y-99908088D01*
X84788760Y-100146183D01*
X84836379Y-100241421D01*
X84883998Y-100289041D01*
X84979236Y-100336660D01*
X85169713Y-100336660D01*
X85264951Y-100289041D01*
X85312570Y-100241421D01*
X85360189Y-100146183D01*
X141349090Y-61563238D02*
X141301471Y-61658476D01*
X141206233Y-61753714D01*
X141063376Y-61896571D01*
X141015757Y-61991810D01*
X141015757Y-62087048D01*
X141253852Y-62039429D02*
X141206233Y-62134667D01*
X141110995Y-62229905D01*
X140920519Y-62277524D01*
X140587185Y-62277524D01*
X140396709Y-62229905D01*
X140301471Y-62134667D01*
X140253852Y-62039429D01*
X140253852Y-61848952D01*
X140301471Y-61753714D01*
X140396709Y-61658476D01*
X140587185Y-61610857D01*
X140920519Y-61610857D01*
X141110995Y-61658476D01*
X141206233Y-61753714D01*
X141253852Y-61848952D01*
X141253852Y-62039429D01*
X140587185Y-60753714D02*
X141253852Y-60753714D01*
X140206233Y-60991810D02*
X140920519Y-61229905D01*
X140920519Y-60610857D01*
X151509090Y-86438398D02*
X151461471Y-86533636D01*
X151366233Y-86628874D01*
X151223376Y-86771731D01*
X151175757Y-86866970D01*
X151175757Y-86962208D01*
X151413852Y-86914589D02*
X151366233Y-87009827D01*
X151270995Y-87105065D01*
X151080519Y-87152684D01*
X150747185Y-87152684D01*
X150556709Y-87105065D01*
X150461471Y-87009827D01*
X150413852Y-86914589D01*
X150413852Y-86724112D01*
X150461471Y-86628874D01*
X150556709Y-86533636D01*
X150747185Y-86486017D01*
X151080519Y-86486017D01*
X151270995Y-86533636D01*
X151366233Y-86628874D01*
X151413852Y-86724112D01*
X151413852Y-86914589D01*
X150413852Y-86152684D02*
X150413852Y-85533636D01*
X150794804Y-85866970D01*
X150794804Y-85724112D01*
X150842423Y-85628874D01*
X150890042Y-85581255D01*
X150985281Y-85533636D01*
X151223376Y-85533636D01*
X151318614Y-85581255D01*
X151366233Y-85628874D01*
X151413852Y-85724112D01*
X151413852Y-86009827D01*
X151366233Y-86105065D01*
X151318614Y-86152684D01*
X194541228Y-86471017D02*
X194493609Y-86566255D01*
X194398371Y-86661493D01*
X194255514Y-86804350D01*
X194207895Y-86899589D01*
X194207895Y-86994827D01*
X194445990Y-86947208D02*
X194398371Y-87042446D01*
X194303133Y-87137684D01*
X194112657Y-87185303D01*
X193779323Y-87185303D01*
X193588847Y-87137684D01*
X193493609Y-87042446D01*
X193445990Y-86947208D01*
X193445990Y-86756731D01*
X193493609Y-86661493D01*
X193588847Y-86566255D01*
X193779323Y-86518636D01*
X194112657Y-86518636D01*
X194303133Y-86566255D01*
X194398371Y-86661493D01*
X194445990Y-86756731D01*
X194445990Y-86947208D01*
X193445990Y-85613874D02*
X193445990Y-86090065D01*
X193922180Y-86137684D01*
X193874561Y-86090065D01*
X193826942Y-85994827D01*
X193826942Y-85756731D01*
X193874561Y-85661493D01*
X193922180Y-85613874D01*
X194017419Y-85566255D01*
X194255514Y-85566255D01*
X194350752Y-85613874D01*
X194398371Y-85661493D01*
X194445990Y-85756731D01*
X194445990Y-85994827D01*
X194398371Y-86090065D01*
X194350752Y-86137684D01*
X77344924Y-135306840D02*
X76344924Y-135306840D01*
X76344924Y-134925887D01*
X76392543Y-134830649D01*
X76440162Y-134783030D01*
X76535400Y-134735411D01*
X76678257Y-134735411D01*
X76773495Y-134783030D01*
X76821114Y-134830649D01*
X76868733Y-134925887D01*
X76868733Y-135306840D01*
X76344924Y-134402078D02*
X76344924Y-133783030D01*
X76725876Y-134116364D01*
X76725876Y-133973506D01*
X76773495Y-133878268D01*
X76821114Y-133830649D01*
X76916353Y-133783030D01*
X77154448Y-133783030D01*
X77249686Y-133830649D01*
X77297305Y-133878268D01*
X77344924Y-133973506D01*
X77344924Y-134259221D01*
X77297305Y-134354459D01*
X77249686Y-134402078D01*
X77394381Y-130151095D02*
X76394381Y-130151095D01*
X76394381Y-129770142D01*
X76442000Y-129674904D01*
X76489619Y-129627285D01*
X76584857Y-129579666D01*
X76727714Y-129579666D01*
X76822952Y-129627285D01*
X76870571Y-129674904D01*
X76918190Y-129770142D01*
X76918190Y-130151095D01*
X76727714Y-128722523D02*
X77394381Y-128722523D01*
X76346762Y-128960619D02*
X77061048Y-129198714D01*
X77061048Y-128579666D01*
X90499619Y-129508238D02*
X90452000Y-129603476D01*
X90356762Y-129698714D01*
X90213905Y-129841571D01*
X90166286Y-129936810D01*
X90166286Y-130032048D01*
X90404381Y-129984429D02*
X90356762Y-130079667D01*
X90261524Y-130174905D01*
X90071048Y-130222524D01*
X89737714Y-130222524D01*
X89547238Y-130174905D01*
X89452000Y-130079667D01*
X89404381Y-129984429D01*
X89404381Y-129793952D01*
X89452000Y-129698714D01*
X89547238Y-129603476D01*
X89737714Y-129555857D01*
X90071048Y-129555857D01*
X90261524Y-129603476D01*
X90356762Y-129698714D01*
X90404381Y-129793952D01*
X90404381Y-129984429D01*
X89404381Y-129222524D02*
X89404381Y-128555857D01*
X90404381Y-128984429D01*
X97094381Y-130055857D02*
X96618190Y-130389191D01*
X97094381Y-130627286D02*
X96094381Y-130627286D01*
X96094381Y-130246333D01*
X96142000Y-130151095D01*
X96189619Y-130103476D01*
X96284857Y-130055857D01*
X96427714Y-130055857D01*
X96522952Y-130103476D01*
X96570571Y-130151095D01*
X96618190Y-130246333D01*
X96618190Y-130627286D01*
X97094381Y-129103476D02*
X97094381Y-129674905D01*
X97094381Y-129389191D02*
X96094381Y-129389191D01*
X96237238Y-129484429D01*
X96332476Y-129579667D01*
X96380095Y-129674905D01*
X96427714Y-128246333D02*
X97094381Y-128246333D01*
X96046762Y-128484429D02*
X96761048Y-128722524D01*
X96761048Y-128103476D01*
X113519143Y-130678857D02*
X113566762Y-130726476D01*
X113614381Y-130869333D01*
X113614381Y-130964571D01*
X113566762Y-131107429D01*
X113471524Y-131202667D01*
X113376286Y-131250286D01*
X113185810Y-131297905D01*
X113042952Y-131297905D01*
X112852476Y-131250286D01*
X112757238Y-131202667D01*
X112662000Y-131107429D01*
X112614381Y-130964571D01*
X112614381Y-130869333D01*
X112662000Y-130726476D01*
X112709619Y-130678857D01*
X113614381Y-129726476D02*
X113614381Y-130297905D01*
X113614381Y-130012191D02*
X112614381Y-130012191D01*
X112757238Y-130107429D01*
X112852476Y-130202667D01*
X112900095Y-130297905D01*
X112614381Y-129107429D02*
X112614381Y-129012190D01*
X112662000Y-128916952D01*
X112709619Y-128869333D01*
X112804857Y-128821714D01*
X112995333Y-128774095D01*
X113233429Y-128774095D01*
X113423905Y-128821714D01*
X113519143Y-128869333D01*
X113566762Y-128916952D01*
X113614381Y-129012190D01*
X113614381Y-129107429D01*
X113566762Y-129202667D01*
X113519143Y-129250286D01*
X113423905Y-129297905D01*
X113233429Y-129345524D01*
X112995333Y-129345524D01*
X112804857Y-129297905D01*
X112709619Y-129250286D01*
X112662000Y-129202667D01*
X112614381Y-129107429D01*
X111868143Y-130678857D02*
X111915762Y-130726476D01*
X111963381Y-130869333D01*
X111963381Y-130964571D01*
X111915762Y-131107429D01*
X111820524Y-131202667D01*
X111725286Y-131250286D01*
X111534810Y-131297905D01*
X111391952Y-131297905D01*
X111201476Y-131250286D01*
X111106238Y-131202667D01*
X111011000Y-131107429D01*
X110963381Y-130964571D01*
X110963381Y-130869333D01*
X111011000Y-130726476D01*
X111058619Y-130678857D01*
X111963381Y-129726476D02*
X111963381Y-130297905D01*
X111963381Y-130012191D02*
X110963381Y-130012191D01*
X111106238Y-130107429D01*
X111201476Y-130202667D01*
X111249095Y-130297905D01*
X111963381Y-128774095D02*
X111963381Y-129345524D01*
X111963381Y-129059810D02*
X110963381Y-129059810D01*
X111106238Y-129155048D01*
X111201476Y-129250286D01*
X111249095Y-129345524D01*
X105173428Y-128023128D02*
X104697237Y-128356462D01*
X105173428Y-128594557D02*
X104173428Y-128594557D01*
X104173428Y-128213604D01*
X104221047Y-128118366D01*
X104268666Y-128070747D01*
X104363904Y-128023128D01*
X104506761Y-128023128D01*
X104601999Y-128070747D01*
X104649618Y-128118366D01*
X104697237Y-128213604D01*
X104697237Y-128594557D01*
X105173428Y-127070747D02*
X105173428Y-127642176D01*
X105173428Y-127356462D02*
X104173428Y-127356462D01*
X104316285Y-127451700D01*
X104411523Y-127546938D01*
X104459142Y-127642176D01*
X104173428Y-126165985D02*
X104173428Y-126642176D01*
X104649618Y-126689795D01*
X104601999Y-126642176D01*
X104554380Y-126546938D01*
X104554380Y-126308842D01*
X104601999Y-126213604D01*
X104649618Y-126165985D01*
X104744857Y-126118366D01*
X104982952Y-126118366D01*
X105078190Y-126165985D01*
X105125809Y-126213604D01*
X105173428Y-126308842D01*
X105173428Y-126546938D01*
X105125809Y-126642176D01*
X105078190Y-126689795D01*
X103200381Y-125229857D02*
X102724190Y-125563191D01*
X103200381Y-125801286D02*
X102200381Y-125801286D01*
X102200381Y-125420333D01*
X102248000Y-125325095D01*
X102295619Y-125277476D01*
X102390857Y-125229857D01*
X102533714Y-125229857D01*
X102628952Y-125277476D01*
X102676571Y-125325095D01*
X102724190Y-125420333D01*
X102724190Y-125801286D01*
X103200381Y-124277476D02*
X103200381Y-124848905D01*
X103200381Y-124563191D02*
X102200381Y-124563191D01*
X102343238Y-124658429D01*
X102438476Y-124753667D01*
X102486095Y-124848905D01*
X102200381Y-123420333D02*
X102200381Y-123610810D01*
X102248000Y-123706048D01*
X102295619Y-123753667D01*
X102438476Y-123848905D01*
X102628952Y-123896524D01*
X103009905Y-123896524D01*
X103105143Y-123848905D01*
X103152762Y-123801286D01*
X103200381Y-123706048D01*
X103200381Y-123515571D01*
X103152762Y-123420333D01*
X103105143Y-123372714D01*
X103009905Y-123325095D01*
X102771810Y-123325095D01*
X102676571Y-123372714D01*
X102628952Y-123420333D01*
X102581333Y-123515571D01*
X102581333Y-123706048D01*
X102628952Y-123801286D01*
X102676571Y-123848905D01*
X102771810Y-123896524D01*
X97866381Y-125229857D02*
X97390190Y-125563191D01*
X97866381Y-125801286D02*
X96866381Y-125801286D01*
X96866381Y-125420333D01*
X96914000Y-125325095D01*
X96961619Y-125277476D01*
X97056857Y-125229857D01*
X97199714Y-125229857D01*
X97294952Y-125277476D01*
X97342571Y-125325095D01*
X97390190Y-125420333D01*
X97390190Y-125801286D01*
X97866381Y-124277476D02*
X97866381Y-124848905D01*
X97866381Y-124563191D02*
X96866381Y-124563191D01*
X97009238Y-124658429D01*
X97104476Y-124753667D01*
X97152095Y-124848905D01*
X96866381Y-123944143D02*
X96866381Y-123277476D01*
X97866381Y-123706048D01*
X99588844Y-127994537D02*
X99112653Y-128327871D01*
X99588844Y-128565966D02*
X98588844Y-128565966D01*
X98588844Y-128185013D01*
X98636463Y-128089775D01*
X98684082Y-128042156D01*
X98779320Y-127994537D01*
X98922177Y-127994537D01*
X99017415Y-128042156D01*
X99065034Y-128089775D01*
X99112653Y-128185013D01*
X99112653Y-128565966D01*
X99588844Y-127042156D02*
X99588844Y-127613585D01*
X99588844Y-127327871D02*
X98588844Y-127327871D01*
X98731701Y-127423109D01*
X98826939Y-127518347D01*
X98874558Y-127613585D01*
X99017415Y-126470728D02*
X98969796Y-126565966D01*
X98922177Y-126613585D01*
X98826939Y-126661204D01*
X98779320Y-126661204D01*
X98684082Y-126613585D01*
X98636463Y-126565966D01*
X98588844Y-126470728D01*
X98588844Y-126280251D01*
X98636463Y-126185013D01*
X98684082Y-126137394D01*
X98779320Y-126089775D01*
X98826939Y-126089775D01*
X98922177Y-126137394D01*
X98969796Y-126185013D01*
X99017415Y-126280251D01*
X99017415Y-126470728D01*
X99065034Y-126565966D01*
X99112653Y-126613585D01*
X99207892Y-126661204D01*
X99398368Y-126661204D01*
X99493606Y-126613585D01*
X99541225Y-126565966D01*
X99588844Y-126470728D01*
X99588844Y-126280251D01*
X99541225Y-126185013D01*
X99493606Y-126137394D01*
X99398368Y-126089775D01*
X99207892Y-126089775D01*
X99112653Y-126137394D01*
X99065034Y-126185013D01*
X99017415Y-126280251D01*
X113442809Y-122150190D02*
X113442809Y-122626381D01*
X113109476Y-121626381D02*
X113442809Y-122150190D01*
X113776143Y-121626381D01*
X114633286Y-122626381D02*
X114061857Y-122626381D01*
X114347571Y-122626381D02*
X114347571Y-121626381D01*
X114252333Y-121769238D01*
X114157095Y-121864476D01*
X114061857Y-121912095D01*
M02*
