G04 #@! TF.FileFunction,Copper,L1,Top,Signal*
%FSLAX46Y46*%
G04 Gerber Fmt 4.6, Leading zero omitted, Abs format (unit mm)*
G04 Created by KiCad (PCBNEW 0.201507290901+6012~27~ubuntu14.04.1-product) date Fri 31 Jul 2015 15:24:14 CEST*
%MOMM*%
G01*
G04 APERTURE LIST*
%ADD10C,0.100000*%
%ADD11C,0.150000*%
%ADD12O,4.500880X2.499360*%
%ADD13C,3.000000*%
%ADD14O,3.600000X2.400000*%
%ADD15R,0.750000X0.800000*%
%ADD16R,0.550000X1.600000*%
%ADD17R,1.600000X0.550000*%
%ADD18R,0.900000X0.500000*%
%ADD19R,1.250000X1.000000*%
%ADD20R,0.800000X0.750000*%
%ADD21R,0.500000X0.900000*%
%ADD22R,0.508000X1.143000*%
%ADD23C,1.800000*%
%ADD24R,1.727200X1.727200*%
%ADD25O,1.727200X1.727200*%
%ADD26C,1.501140*%
%ADD27C,1.750000*%
%ADD28O,4.000000X4.000000*%
%ADD29R,1.727200X2.032000*%
%ADD30O,1.727200X2.032000*%
%ADD31R,0.800100X0.800100*%
%ADD32R,2.032000X2.032000*%
%ADD33O,2.032000X2.032000*%
%ADD34C,0.600000*%
%ADD35C,0.500000*%
%ADD36C,2.000000*%
%ADD37C,0.250000*%
%ADD38C,5.000000*%
%ADD39C,0.254000*%
G04 APERTURE END LIST*
D10*
D11*
X81526474Y-116775231D02*
X82542474Y-116775231D01*
X82034474Y-116267231D02*
X82034474Y-117283231D01*
X81526474Y-104075231D02*
X82542474Y-104075231D01*
X82034474Y-103567231D02*
X82034474Y-104583231D01*
D12*
X102743000Y-62738000D03*
X102743000Y-68326000D03*
X102743000Y-57150000D03*
D13*
X102870000Y-45720000D03*
X145870000Y-45720000D03*
X188870000Y-45720000D03*
X188870000Y-100720000D03*
X145870000Y-100720000D03*
X102870000Y-100720000D03*
D14*
X81277565Y-92161299D03*
X81277565Y-87961299D03*
X81277565Y-83761299D03*
X81277565Y-79561299D03*
X81277565Y-75361299D03*
X81277565Y-71161299D03*
X81277565Y-66961299D03*
X81277565Y-62761299D03*
X81277565Y-58561299D03*
X81277565Y-54361299D03*
X86777565Y-92161299D03*
X86777565Y-87961299D03*
X86777565Y-83561299D03*
X86777565Y-79361299D03*
X86777565Y-75161299D03*
X86777565Y-71161299D03*
X86777565Y-66961299D03*
X86877565Y-62761299D03*
X86777565Y-58561299D03*
X86777565Y-54361299D03*
D15*
X119142421Y-129259233D03*
X119142421Y-130759233D03*
D16*
X121112421Y-132636233D03*
X120312421Y-132636233D03*
X119512421Y-132636233D03*
X118712421Y-132636233D03*
X117912421Y-132636233D03*
X117112421Y-132636233D03*
X116312421Y-132636233D03*
X115512421Y-132636233D03*
D17*
X114062421Y-134086233D03*
X114062421Y-134886233D03*
X114062421Y-135686233D03*
X114062421Y-136486233D03*
X114062421Y-137286233D03*
X114062421Y-138086233D03*
X114062421Y-138886233D03*
X114062421Y-139686233D03*
D16*
X115512421Y-141136233D03*
X116312421Y-141136233D03*
X117112421Y-141136233D03*
X117912421Y-141136233D03*
X118712421Y-141136233D03*
X119512421Y-141136233D03*
X120312421Y-141136233D03*
X121112421Y-141136233D03*
D17*
X122562421Y-139686233D03*
X122562421Y-138886233D03*
X122562421Y-138086233D03*
X122562421Y-137286233D03*
X122562421Y-136486233D03*
X122562421Y-135686233D03*
X122562421Y-134886233D03*
X122562421Y-134086233D03*
D18*
X96765005Y-111005551D03*
X96765005Y-112505551D03*
D15*
X116729421Y-129259233D03*
X116729421Y-130759233D03*
X116094421Y-144475233D03*
X116094421Y-142975233D03*
D19*
X118297013Y-109969987D03*
X118297013Y-111969987D03*
D20*
X102960047Y-122301000D03*
X104460047Y-122301000D03*
D21*
X179336000Y-148590000D03*
X180836000Y-148590000D03*
D18*
X104385005Y-112505551D03*
X104385005Y-111005551D03*
D22*
X122127747Y-113972119D03*
X120857747Y-113972119D03*
X119587747Y-113972119D03*
X118317747Y-113972119D03*
X117047747Y-113972119D03*
X115777747Y-113972119D03*
X114507747Y-113972119D03*
X114507747Y-120322119D03*
X115777747Y-120322119D03*
X118317747Y-120322119D03*
X119587747Y-120322119D03*
X120857747Y-120322119D03*
X122127747Y-120322119D03*
X117047747Y-120322119D03*
D23*
X195898609Y-85359779D03*
X226378609Y-85359779D03*
D24*
X81992543Y-142188745D03*
D25*
X81992543Y-139648745D03*
X84532543Y-142188745D03*
X84532543Y-139648745D03*
X87072543Y-142188745D03*
X87072543Y-139648745D03*
D18*
X111258789Y-115077949D03*
X111258789Y-116577949D03*
X111258789Y-117744949D03*
X111258789Y-119244949D03*
D20*
X101080000Y-122301000D03*
X99580000Y-122301000D03*
D18*
X102870000Y-123837000D03*
X102870000Y-125337000D03*
X101092000Y-125337000D03*
X101092000Y-123837000D03*
D21*
X93456534Y-114476456D03*
X94956534Y-114476456D03*
X102576534Y-114476456D03*
X101076534Y-114476456D03*
D23*
X195898609Y-62499779D03*
X226378609Y-62499779D03*
X195898609Y-73929779D03*
X226378609Y-73929779D03*
D26*
X87114474Y-119315231D03*
X82034474Y-119315231D03*
D27*
X214844000Y-121913000D03*
X209844000Y-121913000D03*
X212344000Y-121913000D03*
X209844000Y-136413000D03*
X214844000Y-136413000D03*
D28*
X206144000Y-129413000D03*
X218544000Y-129413000D03*
D29*
X159258000Y-148590000D03*
D30*
X161798000Y-148590000D03*
X164338000Y-148590000D03*
X166878000Y-148590000D03*
X169418000Y-148590000D03*
X171958000Y-148590000D03*
X174498000Y-148590000D03*
X177038000Y-148590000D03*
D20*
X124472000Y-136525000D03*
X125972000Y-136525000D03*
D18*
X124587000Y-133235000D03*
X124587000Y-134735000D03*
D31*
X100895005Y-113010311D03*
X102795005Y-113010311D03*
X101845005Y-111011331D03*
X93275005Y-113010311D03*
X95175005Y-113010311D03*
X94225005Y-111011331D03*
D26*
X87114474Y-106615231D03*
X82034474Y-106615231D03*
D12*
X145881471Y-62738000D03*
X145881471Y-68326000D03*
X145881471Y-57150000D03*
X145881471Y-85073160D03*
X145881471Y-79485160D03*
X145881471Y-90661160D03*
X188913609Y-85105779D03*
X188913609Y-79517779D03*
X188913609Y-90693779D03*
D29*
X81992543Y-134568745D03*
D30*
X84532543Y-134568745D03*
X87072543Y-134568745D03*
D32*
X82042000Y-129413000D03*
D33*
X84582000Y-129413000D03*
D31*
X93202760Y-130363000D03*
X93202760Y-128463000D03*
X91203780Y-129413000D03*
D18*
X94742000Y-128663000D03*
X94742000Y-130163000D03*
D15*
X115062000Y-130786000D03*
X115062000Y-129286000D03*
X113411000Y-130786000D03*
X113411000Y-129286000D03*
D18*
X102821047Y-126630271D03*
X102821047Y-128130271D03*
X104648000Y-125337000D03*
X104648000Y-123837000D03*
X99314000Y-125337000D03*
X99314000Y-123837000D03*
X101036463Y-128101680D03*
X101036463Y-126601680D03*
D26*
X111478060Y-125984000D03*
X116359940Y-125984000D03*
D34*
X117898686Y-135158017D03*
X117348000Y-112014000D03*
X123698004Y-137287000D03*
X114529575Y-121292430D03*
X122803203Y-130795380D03*
X114945401Y-142959007D03*
X181609984Y-148590000D03*
X117891488Y-130451819D03*
X113411000Y-113828230D03*
X119634000Y-113030000D03*
X121350253Y-139060221D03*
X120338154Y-142256001D03*
X121836377Y-141157583D03*
X121158000Y-133858000D03*
X111252000Y-137287000D03*
X122495221Y-140475606D03*
X122127747Y-113034366D03*
X95885000Y-114427000D03*
D35*
X117912421Y-132636233D02*
X117912421Y-135144282D01*
D36*
X86577565Y-75361299D02*
X86777565Y-75161299D01*
X86577565Y-83761299D02*
X86777565Y-83561299D01*
D37*
X93275005Y-113010311D02*
X93275005Y-114294927D01*
X93275005Y-114294927D02*
X93456534Y-114476456D01*
X93275005Y-113010311D02*
X93275005Y-114246551D01*
X93275005Y-114246551D02*
X93336005Y-114307551D01*
D36*
X78105000Y-64897000D02*
X78105000Y-53115474D01*
X78105000Y-53115474D02*
X80059175Y-51161299D01*
X80059175Y-51161299D02*
X82977565Y-51161299D01*
X82977565Y-51161299D02*
X86177565Y-54361299D01*
X86177565Y-54361299D02*
X86777565Y-54361299D01*
X81277565Y-71161299D02*
X80677565Y-71161299D01*
X80677565Y-71161299D02*
X78105000Y-68588734D01*
X78105000Y-68588734D02*
X78105000Y-63153652D01*
X80677565Y-79561299D02*
X78105000Y-76988734D01*
X78105000Y-76988734D02*
X78105000Y-63153652D01*
X82034474Y-106615231D02*
X78105000Y-102685757D01*
X78105000Y-102685757D02*
X78105000Y-82133864D01*
X78105000Y-82133864D02*
X80677565Y-79561299D01*
D35*
X84532543Y-134568745D02*
X84532543Y-134416345D01*
X84532543Y-134416345D02*
X80995199Y-130879001D01*
X80995199Y-130879001D02*
X80665999Y-130879001D01*
X80575999Y-118687001D02*
X83058000Y-116205000D01*
X80665999Y-130879001D02*
X80575999Y-130789001D01*
X80575999Y-130789001D02*
X80575999Y-118687001D01*
X83058000Y-116205000D02*
X83058000Y-107638757D01*
X83058000Y-107638757D02*
X82034474Y-106615231D01*
D38*
X86777565Y-54361299D02*
X86777565Y-58280113D01*
X86777565Y-58280113D02*
X86777565Y-58561299D01*
D35*
X117348000Y-112014000D02*
X118253000Y-112014000D01*
X118253000Y-112014000D02*
X118297013Y-111969987D01*
X118317747Y-113972119D02*
X118317747Y-111990721D01*
X118317747Y-111990721D02*
X118297013Y-111969987D01*
D38*
X100464822Y-57237990D02*
X101492004Y-57237990D01*
X101492004Y-57237990D02*
X102655010Y-57237990D01*
X86777565Y-58561299D02*
X100168695Y-58561299D01*
X100168695Y-58561299D02*
X101492004Y-57237990D01*
X145881471Y-57150000D02*
X143157539Y-54426068D01*
X143157539Y-54426068D02*
X86842334Y-54426068D01*
X86842334Y-54426068D02*
X86777565Y-54361299D01*
D36*
X80677565Y-79561299D02*
X81277565Y-79561299D01*
D38*
X102655010Y-57237990D02*
X102743000Y-57150000D01*
X102743000Y-57150000D02*
X95097023Y-57150000D01*
X145881471Y-57150000D02*
X102743000Y-57150000D01*
D37*
X113578376Y-114453250D02*
X113993746Y-114868620D01*
X115198746Y-114691622D02*
X115198746Y-113140618D01*
X113993746Y-114868620D02*
X115021748Y-114868620D01*
X117047747Y-113654619D02*
X117047747Y-113972119D01*
X102960047Y-122301000D02*
X102960047Y-120686953D01*
X102960047Y-120686953D02*
X109193750Y-114453250D01*
X109193750Y-114453250D02*
X113578376Y-114453250D01*
X115021748Y-114868620D02*
X115198746Y-114691622D01*
X115198746Y-113140618D02*
X115263746Y-113075618D01*
X115263746Y-113075618D02*
X116468746Y-113075618D01*
X116468746Y-113075618D02*
X117047747Y-113654619D01*
X102870000Y-123837000D02*
X102870000Y-122391047D01*
X102870000Y-122391047D02*
X102960047Y-122301000D01*
X114062421Y-137286233D02*
X113012421Y-137286233D01*
X113012421Y-137286233D02*
X103856459Y-128130271D01*
X103856459Y-128130271D02*
X103521047Y-128130271D01*
X103521047Y-128130271D02*
X102821047Y-128130271D01*
X103631460Y-128705272D02*
X101840055Y-128705272D01*
X101840055Y-128705272D02*
X101236463Y-128101680D01*
X101236463Y-128101680D02*
X101036463Y-128101680D01*
X114062421Y-138086233D02*
X113012421Y-138086233D01*
X113012421Y-138086233D02*
X103631460Y-128705272D01*
X86171154Y-138010134D02*
X112136322Y-138010134D01*
X112136322Y-138010134D02*
X113012421Y-138886233D01*
X84532543Y-139648745D02*
X86171154Y-138010134D01*
X113012421Y-138886233D02*
X114062421Y-138886233D01*
X83343942Y-138460144D02*
X83668944Y-138785146D01*
X81422014Y-138460144D02*
X83343942Y-138460144D01*
X80803942Y-139078216D02*
X81422014Y-138460144D01*
X80803942Y-143312346D02*
X80803942Y-139078216D01*
X83668944Y-138785146D02*
X84532543Y-139648745D01*
X81382596Y-143891000D02*
X80803942Y-143312346D01*
X85555275Y-143891000D02*
X81382596Y-143891000D01*
X170517868Y-146997468D02*
X88661743Y-146997468D01*
X171958000Y-148437600D02*
X170517868Y-146997468D01*
X88661743Y-146997468D02*
X85555275Y-143891000D01*
X171958000Y-148590000D02*
X171958000Y-148437600D01*
X111868654Y-138460144D02*
X86502014Y-138460144D01*
X81992543Y-141075145D02*
X81992543Y-142188745D01*
X85782991Y-140301887D02*
X85114878Y-140970000D01*
X85114878Y-140970000D02*
X82097688Y-140970000D01*
X85782991Y-139179167D02*
X85782991Y-140301887D01*
X113186710Y-139778200D02*
X111868654Y-138460144D01*
X86502014Y-138460144D02*
X85782991Y-139179167D01*
X114114600Y-139778200D02*
X113186710Y-139778200D01*
X82097688Y-140970000D02*
X81992543Y-141075145D01*
X84532543Y-142188745D02*
X85878288Y-140843000D01*
X85878288Y-140843000D02*
X87884000Y-140843000D01*
X87884000Y-140843000D02*
X89807504Y-138919496D01*
X89807504Y-138919496D02*
X111691596Y-138919496D01*
X111691596Y-138919496D02*
X113908333Y-141136233D01*
X113908333Y-141136233D02*
X115512421Y-141136233D01*
X88891257Y-146547459D02*
X85396142Y-143052344D01*
X174498000Y-148590000D02*
X174498000Y-148437600D01*
X174498000Y-148437600D02*
X172607859Y-146547459D01*
X172607859Y-146547459D02*
X88891257Y-146547459D01*
X85396142Y-143052344D02*
X84532543Y-142188745D01*
X123697237Y-137286233D02*
X123698004Y-137287000D01*
X122562421Y-137286233D02*
X123697237Y-137286233D01*
X114529575Y-121292430D02*
X114529575Y-120343947D01*
X114529575Y-120343947D02*
X114507747Y-120322119D01*
X114507747Y-120322119D02*
X114507747Y-119500619D01*
X114507747Y-119500619D02*
X114252077Y-119244949D01*
X114252077Y-119244949D02*
X111958789Y-119244949D01*
X111958789Y-119244949D02*
X111258789Y-119244949D01*
X120566004Y-146097449D02*
X89101833Y-146097449D01*
X124587000Y-134735000D02*
X124587000Y-136410000D01*
X124587000Y-136410000D02*
X124472000Y-136525000D01*
X124587000Y-134735000D02*
X124587000Y-142076453D01*
X124587000Y-142076453D02*
X120566004Y-146097449D01*
X89101833Y-146097449D02*
X87072543Y-144068159D01*
X87072543Y-144068159D02*
X87072543Y-142188745D01*
X122562421Y-136486233D02*
X124433233Y-136486233D01*
X124433233Y-136486233D02*
X124472000Y-136525000D01*
D36*
X81277565Y-92161299D02*
X81277565Y-102613565D01*
X84582000Y-105918000D02*
X84582000Y-116767705D01*
X81277565Y-102613565D02*
X84582000Y-105918000D01*
X84582000Y-116767705D02*
X82034474Y-119315231D01*
D35*
X122897380Y-130795380D02*
X122803203Y-130795380D01*
X124587000Y-132485000D02*
X122897380Y-130795380D01*
X124587000Y-133235000D02*
X124587000Y-132485000D01*
X114961627Y-142975233D02*
X114945401Y-142959007D01*
X116094421Y-142975233D02*
X114961627Y-142975233D01*
X181609984Y-148590000D02*
X180836000Y-148590000D01*
X119142421Y-130759233D02*
X118198902Y-130759233D01*
X118198902Y-130759233D02*
X117891488Y-130451819D01*
X116729421Y-130759233D02*
X117584074Y-130759233D01*
X117584074Y-130759233D02*
X117891488Y-130451819D01*
X116094421Y-142975233D02*
X116312421Y-142757233D01*
X116312421Y-142757233D02*
X116312421Y-141136233D01*
X117112421Y-132636233D02*
X117112421Y-131142233D01*
X117112421Y-131142233D02*
X116729421Y-130759233D01*
X118712421Y-132636233D02*
X118712421Y-131189233D01*
X118712421Y-131189233D02*
X119142421Y-130759233D01*
D36*
X86777565Y-92161299D02*
X81277565Y-92161299D01*
X81277565Y-87961299D02*
X81277565Y-92161299D01*
D37*
X179336000Y-148590000D02*
X177038000Y-148590000D01*
X177026000Y-148578000D02*
X177038000Y-148590000D01*
X96765005Y-111005551D02*
X96765005Y-73303235D01*
X96765005Y-73303235D02*
X101742240Y-68326000D01*
X101742240Y-68326000D02*
X102743000Y-68326000D01*
X145881471Y-90661160D02*
X144880711Y-90661160D01*
X144880711Y-90661160D02*
X142875000Y-92666871D01*
X142875000Y-92666871D02*
X142875000Y-105430368D01*
X142875000Y-105430368D02*
X133436748Y-114868620D01*
X133436748Y-114868620D02*
X121436748Y-114868620D01*
X121436748Y-114868620D02*
X120782746Y-114868620D01*
X115777747Y-113972119D02*
X115777747Y-114824358D01*
X115822009Y-114868620D02*
X115777747Y-114824358D01*
X115777747Y-114824358D02*
X115777747Y-116806825D01*
X120857747Y-113972119D02*
X120857747Y-114793619D01*
X120857747Y-114793619D02*
X120782746Y-114868620D01*
X120782746Y-114868620D02*
X115822009Y-114868620D01*
X115777747Y-115015747D02*
X115777747Y-113972119D01*
X115777747Y-116806825D02*
X116332000Y-117361078D01*
X116332000Y-117361078D02*
X116332000Y-119606372D01*
X116332000Y-119606372D02*
X117047747Y-120322119D01*
D38*
X195898609Y-73929779D02*
X195898609Y-85898967D01*
X195898609Y-85898967D02*
X191191787Y-90605789D01*
X191191787Y-90605789D02*
X189001599Y-90605789D01*
X189001599Y-90605789D02*
X188913609Y-90693779D01*
X195898609Y-73929779D02*
X195898609Y-85359779D01*
X195898609Y-62499779D02*
X195898609Y-73929779D01*
X188913609Y-90693779D02*
X145914090Y-90693779D01*
X145914090Y-90693779D02*
X145881471Y-90661160D01*
D37*
X104385005Y-111005551D02*
X104385005Y-108821706D01*
X104385005Y-108821706D02*
X144880711Y-68326000D01*
X144880711Y-68326000D02*
X145881471Y-68326000D01*
X100895005Y-113010311D02*
X100895005Y-114294927D01*
X100895005Y-114294927D02*
X101076534Y-114476456D01*
X100895005Y-113010311D02*
X100895005Y-114246551D01*
X100895005Y-114246551D02*
X100956005Y-114307551D01*
X111258789Y-116577949D02*
X114799949Y-116577949D01*
X114799949Y-116577949D02*
X115777747Y-117555747D01*
X115777747Y-117555747D02*
X115777747Y-119500619D01*
X115777747Y-119500619D02*
X115777747Y-120322119D01*
X111258789Y-116577949D02*
X111258789Y-117744949D01*
X112986736Y-113828230D02*
X113411000Y-113828230D01*
X108927770Y-113828230D02*
X112986736Y-113828230D01*
X101080000Y-122301000D02*
X101080000Y-121676000D01*
X101080000Y-121676000D02*
X108927770Y-113828230D01*
X101092000Y-123837000D02*
X101092000Y-122313000D01*
X101092000Y-122313000D02*
X101080000Y-122301000D01*
X119587747Y-113972119D02*
X119587747Y-113076253D01*
X119587747Y-113076253D02*
X119634000Y-113030000D01*
X214844000Y-121913000D02*
X213643999Y-123113001D01*
X213643999Y-123113001D02*
X129494155Y-123113001D01*
X129494155Y-123113001D02*
X122152554Y-130454602D01*
X122152554Y-130454602D02*
X122152554Y-133151366D01*
X122152554Y-133151366D02*
X122562421Y-133561233D01*
X122562421Y-133561233D02*
X122562421Y-134086233D01*
X209844000Y-121913000D02*
X208606564Y-121913000D01*
X208606564Y-121913000D02*
X207863233Y-122656331D01*
X207863233Y-122656331D02*
X129242323Y-122656331D01*
X129242323Y-122656331D02*
X120312421Y-131586233D01*
X120312421Y-131586233D02*
X120312421Y-132636233D01*
X121512421Y-138886233D02*
X121350253Y-139048401D01*
X122562421Y-138886233D02*
X121512421Y-138886233D01*
X121350253Y-139048401D02*
X121350253Y-139060221D01*
X120312421Y-142230268D02*
X120338154Y-142256001D01*
X120312421Y-141136233D02*
X120312421Y-142230268D01*
X121112421Y-141136233D02*
X121815027Y-141136233D01*
X121815027Y-141136233D02*
X121836377Y-141157583D01*
X96765005Y-112505551D02*
X96565005Y-112505551D01*
X96565005Y-112505551D02*
X95070785Y-111011331D01*
X95070785Y-111011331D02*
X94875055Y-111011331D01*
X94875055Y-111011331D02*
X94225005Y-111011331D01*
X104385005Y-112505551D02*
X104185005Y-112505551D01*
X104185005Y-112505551D02*
X102690785Y-111011331D01*
X102690785Y-111011331D02*
X102495055Y-111011331D01*
X102495055Y-111011331D02*
X101845005Y-111011331D01*
X110998000Y-137541000D02*
X84812398Y-137541000D01*
X84812398Y-137541000D02*
X81992543Y-134721145D01*
X81992543Y-134721145D02*
X81992543Y-134568745D01*
X121158000Y-133858000D02*
X121158000Y-132681812D01*
X121158000Y-132681812D02*
X121112421Y-132636233D01*
X108204000Y-137541000D02*
X110998000Y-137541000D01*
X110998000Y-137541000D02*
X111252000Y-137287000D01*
X103886000Y-127381000D02*
X97724000Y-127381000D01*
X97724000Y-127381000D02*
X94942000Y-130163000D01*
X94942000Y-130163000D02*
X94742000Y-130163000D01*
X114062421Y-136486233D02*
X113012421Y-136486233D01*
X113012421Y-136486233D02*
X103907188Y-127381000D01*
X94742000Y-130163000D02*
X93402760Y-130163000D01*
X93402760Y-130163000D02*
X93202760Y-130363000D01*
D35*
X82042000Y-129413000D02*
X82042000Y-127897000D01*
X89408000Y-120531000D02*
X89408000Y-91440000D01*
X82042000Y-127897000D02*
X89408000Y-120531000D01*
X89408000Y-91440000D02*
X88011000Y-90043000D01*
X88011000Y-90043000D02*
X85217000Y-90043000D01*
X85217000Y-90043000D02*
X83827555Y-88653555D01*
X83827555Y-88653555D02*
X83827555Y-56911289D01*
X83827555Y-56911289D02*
X81277565Y-54361299D01*
X91203780Y-129413000D02*
X84582000Y-129413000D01*
D37*
X122562421Y-140408406D02*
X122495221Y-140475606D01*
X122562421Y-139686233D02*
X122562421Y-140408406D01*
X115062000Y-130786000D02*
X115062000Y-130761000D01*
X115062000Y-130761000D02*
X116029420Y-129793580D01*
X116359940Y-127045466D02*
X116359940Y-125984000D01*
X116029420Y-129793580D02*
X116029420Y-127375986D01*
X116029420Y-127375986D02*
X116359940Y-127045466D01*
X116312421Y-132636233D02*
X116312421Y-131586233D01*
X116312421Y-131586233D02*
X116162188Y-131436000D01*
X116162188Y-131436000D02*
X115687000Y-131436000D01*
X115687000Y-131436000D02*
X115062000Y-130811000D01*
X115062000Y-130811000D02*
X115062000Y-130786000D01*
X113411000Y-130786000D02*
X112786000Y-130786000D01*
X112786000Y-130786000D02*
X111478060Y-129478060D01*
X111478060Y-129478060D02*
X111478060Y-127045466D01*
X111478060Y-127045466D02*
X111478060Y-125984000D01*
X115512421Y-132636233D02*
X114987421Y-132636233D01*
X114987421Y-132636233D02*
X113411000Y-131059812D01*
X113411000Y-131059812D02*
X113411000Y-130786000D01*
X104648000Y-125337000D02*
X102870000Y-125337000D01*
X102821047Y-126630271D02*
X102821047Y-125385953D01*
X102821047Y-125385953D02*
X102870000Y-125337000D01*
X99314000Y-125337000D02*
X101092000Y-125337000D01*
X101036463Y-126601680D02*
X101036463Y-125392537D01*
X101036463Y-125392537D02*
X101092000Y-125337000D01*
X114507747Y-113972119D02*
X114507747Y-112217905D01*
X114507747Y-112217905D02*
X114507747Y-107488253D01*
X105970679Y-112204879D02*
X114494721Y-112204879D01*
X114494721Y-112204879D02*
X114507747Y-112217905D01*
X114507747Y-107488253D02*
X142510840Y-79485160D01*
X142510840Y-79485160D02*
X145881471Y-79485160D01*
X103699102Y-114476456D02*
X102576534Y-114476456D01*
X105970679Y-112204879D02*
X103699102Y-114476456D01*
X122127747Y-113034366D02*
X122127747Y-105174912D01*
X122127747Y-105174912D02*
X132922747Y-94379912D01*
X122127747Y-113972119D02*
X122127747Y-113034366D01*
X94956534Y-114476456D02*
X95835544Y-114476456D01*
X95835544Y-114476456D02*
X95885000Y-114427000D01*
X132922747Y-94379912D02*
X144117659Y-83185000D01*
X144117659Y-83185000D02*
X182745948Y-83185000D01*
X186413169Y-79517779D02*
X188913609Y-79517779D01*
X182745948Y-83185000D02*
X186413169Y-79517779D01*
D39*
G36*
X229743000Y-151003000D02*
X71247000Y-151003000D01*
X71247000Y-53115474D01*
X76724000Y-53115474D01*
X76724000Y-76988734D01*
X76829122Y-77517220D01*
X77128486Y-77965248D01*
X78232000Y-79068762D01*
X78232000Y-80053836D01*
X77128486Y-81157350D01*
X76829122Y-81605378D01*
X76724000Y-82133864D01*
X76724000Y-102685757D01*
X76808632Y-103111231D01*
X76829122Y-103214243D01*
X77128486Y-103662271D01*
X81057959Y-107591745D01*
X81505988Y-107891109D01*
X82034474Y-107996230D01*
X82427000Y-107918153D01*
X82427000Y-115943631D01*
X82384523Y-115986108D01*
X82356915Y-115944790D01*
X82208978Y-115845942D01*
X82034474Y-115811231D01*
X81859970Y-115845942D01*
X81712033Y-115944790D01*
X81613185Y-116092727D01*
X81578474Y-116267231D01*
X81578474Y-116319231D01*
X81526474Y-116319231D01*
X81351970Y-116353942D01*
X81204033Y-116452790D01*
X81105185Y-116600727D01*
X81070474Y-116775231D01*
X81105185Y-116949735D01*
X81204033Y-117097672D01*
X81245352Y-117125280D01*
X80129815Y-118240817D01*
X79993031Y-118445528D01*
X79944999Y-118687001D01*
X79944999Y-130789001D01*
X79979133Y-130960602D01*
X79993031Y-131030474D01*
X80129815Y-131235185D01*
X80219814Y-131325185D01*
X80424525Y-131461969D01*
X80464588Y-131469938D01*
X80665999Y-131510001D01*
X80733831Y-131510001D01*
X82388111Y-133164281D01*
X81128943Y-133164281D01*
X80987753Y-133190848D01*
X80858078Y-133274291D01*
X80771084Y-133401611D01*
X80740479Y-133552745D01*
X80740479Y-135584745D01*
X80767046Y-135725935D01*
X80850489Y-135855610D01*
X80977809Y-135942604D01*
X81128943Y-135973209D01*
X82529015Y-135973209D01*
X84454602Y-137898796D01*
X84618760Y-138008483D01*
X84812398Y-138047000D01*
X85418696Y-138047000D01*
X84994120Y-138471576D01*
X84532543Y-138379762D01*
X84070966Y-138471576D01*
X83701738Y-138102348D01*
X83537580Y-137992661D01*
X83343942Y-137954144D01*
X81422014Y-137954144D01*
X81228376Y-137992661D01*
X81064218Y-138102348D01*
X80446146Y-138720420D01*
X80336459Y-138884578D01*
X80297942Y-139078216D01*
X80297942Y-143312346D01*
X80336459Y-143505984D01*
X80446146Y-143670142D01*
X81024800Y-144248796D01*
X81188958Y-144358483D01*
X81382596Y-144397000D01*
X85345683Y-144397000D01*
X88303947Y-147355264D01*
X88468105Y-147464951D01*
X88661743Y-147503468D01*
X158020219Y-147503468D01*
X158005936Y-147574000D01*
X158005936Y-149606000D01*
X158032503Y-149747190D01*
X158115946Y-149876865D01*
X158243266Y-149963859D01*
X158394400Y-149994464D01*
X160121600Y-149994464D01*
X160262790Y-149967897D01*
X160392465Y-149884454D01*
X160479459Y-149757134D01*
X160510064Y-149606000D01*
X160510064Y-149508817D01*
X160895964Y-149940732D01*
X161423209Y-150194709D01*
X161438974Y-150197358D01*
X161671000Y-150076217D01*
X161671000Y-148717000D01*
X161651000Y-148717000D01*
X161651000Y-148463000D01*
X161671000Y-148463000D01*
X161671000Y-148443000D01*
X161925000Y-148443000D01*
X161925000Y-148463000D01*
X161945000Y-148463000D01*
X161945000Y-148717000D01*
X161925000Y-148717000D01*
X161925000Y-150076217D01*
X162157026Y-150197358D01*
X162172791Y-150194709D01*
X162700036Y-149940732D01*
X163089954Y-149504320D01*
X163185296Y-149231757D01*
X163188140Y-149246057D01*
X163457935Y-149649834D01*
X163861712Y-149919629D01*
X164338000Y-150014369D01*
X164814288Y-149919629D01*
X165218065Y-149649834D01*
X165487860Y-149246057D01*
X165582600Y-148769769D01*
X165582600Y-148410231D01*
X165487860Y-147933943D01*
X165218065Y-147530166D01*
X165178109Y-147503468D01*
X166037891Y-147503468D01*
X165997935Y-147530166D01*
X165728140Y-147933943D01*
X165633400Y-148410231D01*
X165633400Y-148769769D01*
X165728140Y-149246057D01*
X165997935Y-149649834D01*
X166401712Y-149919629D01*
X166878000Y-150014369D01*
X167354288Y-149919629D01*
X167758065Y-149649834D01*
X168027860Y-149246057D01*
X168122600Y-148769769D01*
X168122600Y-148410231D01*
X168027860Y-147933943D01*
X167758065Y-147530166D01*
X167718109Y-147503468D01*
X168577891Y-147503468D01*
X168537935Y-147530166D01*
X168268140Y-147933943D01*
X168173400Y-148410231D01*
X168173400Y-148769769D01*
X168268140Y-149246057D01*
X168537935Y-149649834D01*
X168941712Y-149919629D01*
X169418000Y-150014369D01*
X169894288Y-149919629D01*
X170298065Y-149649834D01*
X170567860Y-149246057D01*
X170662600Y-148769769D01*
X170662600Y-148410231D01*
X170567860Y-147933943D01*
X170298065Y-147530166D01*
X170258109Y-147503468D01*
X170308276Y-147503468D01*
X170796628Y-147991820D01*
X170713400Y-148410231D01*
X170713400Y-148769769D01*
X170808140Y-149246057D01*
X171077935Y-149649834D01*
X171481712Y-149919629D01*
X171958000Y-150014369D01*
X172434288Y-149919629D01*
X172838065Y-149649834D01*
X173107860Y-149246057D01*
X173202600Y-148769769D01*
X173202600Y-148410231D01*
X173107860Y-147933943D01*
X172838065Y-147530166D01*
X172434288Y-147260371D01*
X171958000Y-147165631D01*
X171493932Y-147257940D01*
X171289451Y-147053459D01*
X172398267Y-147053459D01*
X173336628Y-147991820D01*
X173253400Y-148410231D01*
X173253400Y-148769769D01*
X173348140Y-149246057D01*
X173617935Y-149649834D01*
X174021712Y-149919629D01*
X174498000Y-150014369D01*
X174974288Y-149919629D01*
X175378065Y-149649834D01*
X175647860Y-149246057D01*
X175742600Y-148769769D01*
X175742600Y-148410231D01*
X175793400Y-148410231D01*
X175793400Y-148769769D01*
X175888140Y-149246057D01*
X176157935Y-149649834D01*
X176561712Y-149919629D01*
X177038000Y-150014369D01*
X177514288Y-149919629D01*
X177918065Y-149649834D01*
X178187860Y-149246057D01*
X178217708Y-149096000D01*
X178708073Y-149096000D01*
X178724103Y-149181190D01*
X178807546Y-149310865D01*
X178934866Y-149397859D01*
X179086000Y-149428464D01*
X179586000Y-149428464D01*
X179727190Y-149401897D01*
X179856865Y-149318454D01*
X179943859Y-149191134D01*
X179974464Y-149040000D01*
X179974464Y-148140000D01*
X180197536Y-148140000D01*
X180197536Y-149040000D01*
X180224103Y-149181190D01*
X180307546Y-149310865D01*
X180434866Y-149397859D01*
X180586000Y-149428464D01*
X181086000Y-149428464D01*
X181227190Y-149401897D01*
X181356865Y-149318454D01*
X181408059Y-149243530D01*
X181473930Y-149270882D01*
X181744849Y-149271118D01*
X181995236Y-149167661D01*
X182186971Y-148976259D01*
X182290866Y-148726054D01*
X182291102Y-148455135D01*
X182187645Y-148204748D01*
X181996243Y-148013013D01*
X181746038Y-147909118D01*
X181475119Y-147908882D01*
X181407902Y-147936655D01*
X181364454Y-147869135D01*
X181237134Y-147782141D01*
X181086000Y-147751536D01*
X180586000Y-147751536D01*
X180444810Y-147778103D01*
X180315135Y-147861546D01*
X180228141Y-147988866D01*
X180197536Y-148140000D01*
X179974464Y-148140000D01*
X179947897Y-147998810D01*
X179864454Y-147869135D01*
X179737134Y-147782141D01*
X179586000Y-147751536D01*
X179086000Y-147751536D01*
X178944810Y-147778103D01*
X178815135Y-147861546D01*
X178728141Y-147988866D01*
X178708876Y-148084000D01*
X178217708Y-148084000D01*
X178187860Y-147933943D01*
X177918065Y-147530166D01*
X177514288Y-147260371D01*
X177038000Y-147165631D01*
X176561712Y-147260371D01*
X176157935Y-147530166D01*
X175888140Y-147933943D01*
X175793400Y-148410231D01*
X175742600Y-148410231D01*
X175647860Y-147933943D01*
X175378065Y-147530166D01*
X174974288Y-147260371D01*
X174498000Y-147165631D01*
X174033932Y-147257940D01*
X172965655Y-146189663D01*
X172801497Y-146079976D01*
X172607859Y-146041459D01*
X121337586Y-146041459D01*
X124944796Y-142434249D01*
X125054483Y-142270091D01*
X125093000Y-142076453D01*
X125093000Y-137319026D01*
X125212302Y-137438327D01*
X125445691Y-137535000D01*
X125686250Y-137535000D01*
X125845000Y-137376250D01*
X125845000Y-136652000D01*
X126099000Y-136652000D01*
X126099000Y-137376250D01*
X126257750Y-137535000D01*
X126498309Y-137535000D01*
X126643016Y-137475060D01*
X208961545Y-137475060D01*
X209044884Y-137728953D01*
X209609306Y-137934590D01*
X210209458Y-137908579D01*
X210643116Y-137728953D01*
X210726455Y-137475060D01*
X209844000Y-136592605D01*
X208961545Y-137475060D01*
X126643016Y-137475060D01*
X126731698Y-137438327D01*
X126910327Y-137259699D01*
X127007000Y-137026310D01*
X127007000Y-136810750D01*
X126848250Y-136652000D01*
X126099000Y-136652000D01*
X125845000Y-136652000D01*
X125825000Y-136652000D01*
X125825000Y-136398000D01*
X125845000Y-136398000D01*
X125845000Y-135673750D01*
X126099000Y-135673750D01*
X126099000Y-136398000D01*
X126848250Y-136398000D01*
X127007000Y-136239250D01*
X127007000Y-136178306D01*
X208322410Y-136178306D01*
X208348421Y-136778458D01*
X208528047Y-137212116D01*
X208781940Y-137295455D01*
X209664395Y-136413000D01*
X210023605Y-136413000D01*
X210906060Y-137295455D01*
X211159953Y-137212116D01*
X211360473Y-136661738D01*
X213587783Y-136661738D01*
X213778595Y-137123537D01*
X214131604Y-137477164D01*
X214593070Y-137668781D01*
X215092738Y-137669217D01*
X215554537Y-137478405D01*
X215908164Y-137125396D01*
X216099781Y-136663930D01*
X216100217Y-136164262D01*
X215909405Y-135702463D01*
X215556396Y-135348836D01*
X215094930Y-135157219D01*
X214595262Y-135156783D01*
X214133463Y-135347595D01*
X213779836Y-135700604D01*
X213588219Y-136162070D01*
X213587783Y-136661738D01*
X211360473Y-136661738D01*
X211365590Y-136647694D01*
X211339579Y-136047542D01*
X211159953Y-135613884D01*
X210906060Y-135530545D01*
X210023605Y-136413000D01*
X209664395Y-136413000D01*
X208781940Y-135530545D01*
X208528047Y-135613884D01*
X208322410Y-136178306D01*
X127007000Y-136178306D01*
X127007000Y-136023690D01*
X126910327Y-135790301D01*
X126731698Y-135611673D01*
X126498309Y-135515000D01*
X126257750Y-135515000D01*
X126099000Y-135673750D01*
X125845000Y-135673750D01*
X125686250Y-135515000D01*
X125445691Y-135515000D01*
X125212302Y-135611673D01*
X125093000Y-135730974D01*
X125093000Y-135362927D01*
X125156703Y-135350940D01*
X208961545Y-135350940D01*
X209844000Y-136233395D01*
X210726455Y-135350940D01*
X210643116Y-135097047D01*
X210078694Y-134891410D01*
X209478542Y-134917421D01*
X209044884Y-135097047D01*
X208961545Y-135350940D01*
X125156703Y-135350940D01*
X125178190Y-135346897D01*
X125307865Y-135263454D01*
X125394859Y-135136134D01*
X125425464Y-134985000D01*
X125425464Y-134485000D01*
X125398897Y-134343810D01*
X125315454Y-134214135D01*
X125188134Y-134127141D01*
X125037000Y-134096536D01*
X124137000Y-134096536D01*
X123995810Y-134123103D01*
X123866135Y-134206546D01*
X123779141Y-134333866D01*
X123748536Y-134485000D01*
X123748536Y-134598749D01*
X123726501Y-134481645D01*
X123750885Y-134361233D01*
X123750885Y-133811233D01*
X123724318Y-133670043D01*
X123640875Y-133540368D01*
X123513555Y-133453374D01*
X123362421Y-133422769D01*
X123040879Y-133422769D01*
X123029904Y-133367595D01*
X122920217Y-133203437D01*
X122658554Y-132941774D01*
X122658554Y-131472693D01*
X122667149Y-131476262D01*
X122685910Y-131476278D01*
X123896584Y-132686953D01*
X123866135Y-132706546D01*
X123779141Y-132833866D01*
X123748536Y-132985000D01*
X123748536Y-133485000D01*
X123775103Y-133626190D01*
X123858546Y-133755865D01*
X123985866Y-133842859D01*
X124137000Y-133873464D01*
X125037000Y-133873464D01*
X125178190Y-133846897D01*
X125307865Y-133763454D01*
X125394859Y-133636134D01*
X125425464Y-133485000D01*
X125425464Y-132985000D01*
X125398897Y-132843810D01*
X125315454Y-132714135D01*
X125218000Y-132647548D01*
X125218000Y-132485000D01*
X125169968Y-132243527D01*
X125033185Y-132038816D01*
X123343564Y-130349196D01*
X123272910Y-130301987D01*
X123189462Y-130218393D01*
X123129326Y-130193422D01*
X123909748Y-129413000D01*
X203716353Y-129413000D01*
X203897596Y-130324169D01*
X204413732Y-131096621D01*
X205186184Y-131612757D01*
X206097353Y-131794000D01*
X206190647Y-131794000D01*
X207101816Y-131612757D01*
X207874268Y-131096621D01*
X208390404Y-130324169D01*
X208571647Y-129413000D01*
X216116353Y-129413000D01*
X216297596Y-130324169D01*
X216813732Y-131096621D01*
X217586184Y-131612757D01*
X218497353Y-131794000D01*
X218590647Y-131794000D01*
X219501816Y-131612757D01*
X220274268Y-131096621D01*
X220790404Y-130324169D01*
X220971647Y-129413000D01*
X220790404Y-128501831D01*
X220274268Y-127729379D01*
X219501816Y-127213243D01*
X218590647Y-127032000D01*
X218497353Y-127032000D01*
X217586184Y-127213243D01*
X216813732Y-127729379D01*
X216297596Y-128501831D01*
X216116353Y-129413000D01*
X208571647Y-129413000D01*
X208390404Y-128501831D01*
X207874268Y-127729379D01*
X207101816Y-127213243D01*
X206190647Y-127032000D01*
X206097353Y-127032000D01*
X205186184Y-127213243D01*
X204413732Y-127729379D01*
X203897596Y-128501831D01*
X203716353Y-129413000D01*
X123909748Y-129413000D01*
X129703747Y-123619001D01*
X213643999Y-123619001D01*
X213837637Y-123580484D01*
X214001795Y-123470797D01*
X214388681Y-123083911D01*
X214593070Y-123168781D01*
X215092738Y-123169217D01*
X215554537Y-122978405D01*
X215908164Y-122625396D01*
X216099781Y-122163930D01*
X216100217Y-121664262D01*
X215909405Y-121202463D01*
X215556396Y-120848836D01*
X215094930Y-120657219D01*
X214595262Y-120656783D01*
X214133463Y-120847595D01*
X213779836Y-121200604D01*
X213737803Y-121301831D01*
X213659953Y-121113884D01*
X213406060Y-121030545D01*
X212523605Y-121913000D01*
X212537748Y-121927143D01*
X212358143Y-122106748D01*
X212344000Y-122092605D01*
X212329858Y-122106748D01*
X212150253Y-121927143D01*
X212164395Y-121913000D01*
X211281940Y-121030545D01*
X211028047Y-121113884D01*
X210955304Y-121313546D01*
X210909405Y-121202463D01*
X210558497Y-120850940D01*
X211461545Y-120850940D01*
X212344000Y-121733395D01*
X213226455Y-120850940D01*
X213143116Y-120597047D01*
X212578694Y-120391410D01*
X211978542Y-120417421D01*
X211544884Y-120597047D01*
X211461545Y-120850940D01*
X210558497Y-120850940D01*
X210556396Y-120848836D01*
X210094930Y-120657219D01*
X209595262Y-120656783D01*
X209133463Y-120847595D01*
X208779836Y-121200604D01*
X208694133Y-121407000D01*
X208606564Y-121407000D01*
X208412926Y-121445517D01*
X208248768Y-121555204D01*
X207653641Y-122150331D01*
X129242323Y-122150331D01*
X129048685Y-122188848D01*
X128884527Y-122298535D01*
X119961884Y-131221178D01*
X119913731Y-131201233D01*
X119897380Y-131201233D01*
X119905885Y-131159233D01*
X119905885Y-130359233D01*
X119879318Y-130218043D01*
X119868449Y-130201152D01*
X119877120Y-130197560D01*
X120055748Y-130018931D01*
X120152421Y-129785542D01*
X120152421Y-129544983D01*
X119993671Y-129386233D01*
X119269421Y-129386233D01*
X119269421Y-129406233D01*
X119015421Y-129406233D01*
X119015421Y-129386233D01*
X118291171Y-129386233D01*
X118132421Y-129544983D01*
X118132421Y-129785542D01*
X118146901Y-129820500D01*
X118027542Y-129770937D01*
X117756623Y-129770701D01*
X117739421Y-129777809D01*
X117739421Y-129544983D01*
X117580671Y-129386233D01*
X116856421Y-129386233D01*
X116856421Y-129406233D01*
X116602421Y-129406233D01*
X116602421Y-129386233D01*
X116582421Y-129386233D01*
X116582421Y-129132233D01*
X116602421Y-129132233D01*
X116602421Y-128382983D01*
X116856421Y-128382983D01*
X116856421Y-129132233D01*
X117580671Y-129132233D01*
X117739421Y-128973483D01*
X117739421Y-128732924D01*
X118132421Y-128732924D01*
X118132421Y-128973483D01*
X118291171Y-129132233D01*
X119015421Y-129132233D01*
X119015421Y-128382983D01*
X119269421Y-128382983D01*
X119269421Y-129132233D01*
X119993671Y-129132233D01*
X120152421Y-128973483D01*
X120152421Y-128732924D01*
X120055748Y-128499535D01*
X119877120Y-128320906D01*
X119643731Y-128224233D01*
X119428171Y-128224233D01*
X119269421Y-128382983D01*
X119015421Y-128382983D01*
X118856671Y-128224233D01*
X118641111Y-128224233D01*
X118407722Y-128320906D01*
X118229094Y-128499535D01*
X118132421Y-128732924D01*
X117739421Y-128732924D01*
X117642748Y-128499535D01*
X117464120Y-128320906D01*
X117230731Y-128224233D01*
X117015171Y-128224233D01*
X116856421Y-128382983D01*
X116602421Y-128382983D01*
X116535420Y-128315982D01*
X116535420Y-127585578D01*
X116717736Y-127403262D01*
X116827423Y-127239104D01*
X116865940Y-127045466D01*
X116865940Y-126999286D01*
X117000086Y-126943858D01*
X117318679Y-126625820D01*
X117491313Y-126210071D01*
X117491706Y-125759904D01*
X117319798Y-125343854D01*
X117001760Y-125025261D01*
X116586011Y-124852627D01*
X116135844Y-124852234D01*
X115719794Y-125024142D01*
X115401201Y-125342180D01*
X115228567Y-125757929D01*
X115228174Y-126208096D01*
X115400082Y-126624146D01*
X115718120Y-126942739D01*
X115738579Y-126951235D01*
X115671624Y-127018190D01*
X115561937Y-127182348D01*
X115523420Y-127375986D01*
X115523420Y-128251000D01*
X115347750Y-128251000D01*
X115189000Y-128409750D01*
X115189000Y-129159000D01*
X115209000Y-129159000D01*
X115209000Y-129413000D01*
X115189000Y-129413000D01*
X115189000Y-129433000D01*
X114935000Y-129433000D01*
X114935000Y-129413000D01*
X113538000Y-129413000D01*
X113538000Y-129433000D01*
X113284000Y-129433000D01*
X113284000Y-129413000D01*
X112559750Y-129413000D01*
X112401000Y-129571750D01*
X112401000Y-129685408D01*
X111984060Y-129268468D01*
X111984060Y-128759691D01*
X112401000Y-128759691D01*
X112401000Y-129000250D01*
X112559750Y-129159000D01*
X113284000Y-129159000D01*
X113284000Y-128409750D01*
X113538000Y-128409750D01*
X113538000Y-129159000D01*
X114935000Y-129159000D01*
X114935000Y-128409750D01*
X114776250Y-128251000D01*
X114560690Y-128251000D01*
X114327301Y-128347673D01*
X114236500Y-128438475D01*
X114145699Y-128347673D01*
X113912310Y-128251000D01*
X113696750Y-128251000D01*
X113538000Y-128409750D01*
X113284000Y-128409750D01*
X113125250Y-128251000D01*
X112909690Y-128251000D01*
X112676301Y-128347673D01*
X112497673Y-128526302D01*
X112401000Y-128759691D01*
X111984060Y-128759691D01*
X111984060Y-126999286D01*
X112118206Y-126943858D01*
X112436799Y-126625820D01*
X112609433Y-126210071D01*
X112609826Y-125759904D01*
X112437918Y-125343854D01*
X112119880Y-125025261D01*
X111704131Y-124852627D01*
X111253964Y-124852234D01*
X110837914Y-125024142D01*
X110519321Y-125342180D01*
X110346687Y-125757929D01*
X110346294Y-126208096D01*
X110518202Y-126624146D01*
X110836240Y-126942739D01*
X110972060Y-126999136D01*
X110972060Y-129478060D01*
X111010577Y-129671698D01*
X111120264Y-129835856D01*
X112428204Y-131143796D01*
X112592362Y-131253483D01*
X112662873Y-131267509D01*
X112674103Y-131327190D01*
X112757546Y-131456865D01*
X112884866Y-131543859D01*
X113036000Y-131574464D01*
X113210060Y-131574464D01*
X114629625Y-132994029D01*
X114793783Y-133103716D01*
X114848957Y-133114691D01*
X114848957Y-133422769D01*
X113262421Y-133422769D01*
X113121231Y-133449336D01*
X112991556Y-133532779D01*
X112904562Y-133660099D01*
X112873957Y-133811233D01*
X112873957Y-134361233D01*
X112898341Y-134490821D01*
X112873957Y-134611233D01*
X112873957Y-135161233D01*
X112898341Y-135290821D01*
X112873957Y-135411233D01*
X112873957Y-135632177D01*
X104264984Y-127023204D01*
X104100826Y-126913517D01*
X103907188Y-126875000D01*
X103896594Y-126877107D01*
X103886000Y-126875000D01*
X103659511Y-126875000D01*
X103659511Y-126380271D01*
X103632944Y-126239081D01*
X103549501Y-126109406D01*
X103422181Y-126022412D01*
X103327047Y-126003147D01*
X103327047Y-125974138D01*
X103461190Y-125948897D01*
X103590865Y-125865454D01*
X103606207Y-125843000D01*
X103909981Y-125843000D01*
X103919546Y-125857865D01*
X104046866Y-125944859D01*
X104198000Y-125975464D01*
X105098000Y-125975464D01*
X105239190Y-125948897D01*
X105368865Y-125865454D01*
X105455859Y-125738134D01*
X105486464Y-125587000D01*
X105486464Y-125087000D01*
X105459897Y-124945810D01*
X105376454Y-124816135D01*
X105249134Y-124729141D01*
X105213870Y-124722000D01*
X105224310Y-124722000D01*
X105457699Y-124625327D01*
X105636327Y-124446698D01*
X105733000Y-124213309D01*
X105733000Y-124120750D01*
X105574250Y-123962000D01*
X104775000Y-123962000D01*
X104775000Y-123984000D01*
X104521000Y-123984000D01*
X104521000Y-123962000D01*
X104501000Y-123962000D01*
X104501000Y-123712000D01*
X104521000Y-123712000D01*
X104521000Y-123690000D01*
X104775000Y-123690000D01*
X104775000Y-123712000D01*
X105574250Y-123712000D01*
X105733000Y-123553250D01*
X105733000Y-123460691D01*
X105636327Y-123227302D01*
X105457699Y-123048673D01*
X105402475Y-123025798D01*
X105495047Y-122802310D01*
X105495047Y-122586750D01*
X105336297Y-122428000D01*
X104587047Y-122428000D01*
X104587047Y-122448000D01*
X104333047Y-122448000D01*
X104333047Y-122428000D01*
X104313047Y-122428000D01*
X104313047Y-122174000D01*
X104333047Y-122174000D01*
X104333047Y-121449750D01*
X104587047Y-121449750D01*
X104587047Y-122174000D01*
X105336297Y-122174000D01*
X105495047Y-122015250D01*
X105495047Y-121799690D01*
X105398374Y-121566301D01*
X105219745Y-121387673D01*
X104986356Y-121291000D01*
X104745797Y-121291000D01*
X104587047Y-121449750D01*
X104333047Y-121449750D01*
X104174297Y-121291000D01*
X103933738Y-121291000D01*
X103700349Y-121387673D01*
X103521720Y-121566301D01*
X103518801Y-121573348D01*
X103511181Y-121568141D01*
X103466047Y-121559001D01*
X103466047Y-120896545D01*
X109403342Y-114959250D01*
X113368784Y-114959250D01*
X113635950Y-115226416D01*
X113800108Y-115336103D01*
X113993746Y-115374620D01*
X115021748Y-115374620D01*
X115215386Y-115336103D01*
X115271747Y-115298444D01*
X115271747Y-116334155D01*
X115157745Y-116220153D01*
X114993587Y-116110466D01*
X114799949Y-116071949D01*
X111996808Y-116071949D01*
X111987243Y-116057084D01*
X111859923Y-115970090D01*
X111824659Y-115962949D01*
X111835099Y-115962949D01*
X112068488Y-115866276D01*
X112247116Y-115687647D01*
X112343789Y-115454258D01*
X112343789Y-115361699D01*
X112185039Y-115202949D01*
X111385789Y-115202949D01*
X111385789Y-115224949D01*
X111131789Y-115224949D01*
X111131789Y-115202949D01*
X110332539Y-115202949D01*
X110173789Y-115361699D01*
X110173789Y-115454258D01*
X110270462Y-115687647D01*
X110449090Y-115866276D01*
X110682479Y-115962949D01*
X110684090Y-115962949D01*
X110667599Y-115966052D01*
X110537924Y-116049495D01*
X110450930Y-116176815D01*
X110420325Y-116327949D01*
X110420325Y-116827949D01*
X110446892Y-116969139D01*
X110530335Y-117098814D01*
X110622714Y-117161934D01*
X110537924Y-117216495D01*
X110450930Y-117343815D01*
X110420325Y-117494949D01*
X110420325Y-117994949D01*
X110446892Y-118136139D01*
X110530335Y-118265814D01*
X110657655Y-118352808D01*
X110808789Y-118383413D01*
X111708789Y-118383413D01*
X111849979Y-118356846D01*
X111979654Y-118273403D01*
X112066648Y-118146083D01*
X112097253Y-117994949D01*
X112097253Y-117494949D01*
X112070686Y-117353759D01*
X111987243Y-117224084D01*
X111894864Y-117160964D01*
X111979654Y-117106403D01*
X111994996Y-117083949D01*
X114590357Y-117083949D01*
X115271747Y-117765339D01*
X115271747Y-119460026D01*
X115252882Y-119472165D01*
X115165888Y-119599485D01*
X115143021Y-119712407D01*
X115123644Y-119609429D01*
X115040201Y-119479754D01*
X115004783Y-119455554D01*
X114975230Y-119306981D01*
X114865543Y-119142823D01*
X114609873Y-118887153D01*
X114445715Y-118777466D01*
X114252077Y-118738949D01*
X111996808Y-118738949D01*
X111987243Y-118724084D01*
X111859923Y-118637090D01*
X111708789Y-118606485D01*
X110808789Y-118606485D01*
X110667599Y-118633052D01*
X110537924Y-118716495D01*
X110450930Y-118843815D01*
X110420325Y-118994949D01*
X110420325Y-119494949D01*
X110446892Y-119636139D01*
X110530335Y-119765814D01*
X110657655Y-119852808D01*
X110808789Y-119883413D01*
X111708789Y-119883413D01*
X111849979Y-119856846D01*
X111979654Y-119773403D01*
X111994996Y-119750949D01*
X113865283Y-119750949D01*
X113865283Y-120893619D01*
X113891850Y-121034809D01*
X113896300Y-121041725D01*
X113848693Y-121156376D01*
X113848457Y-121427295D01*
X113951914Y-121677682D01*
X114143316Y-121869417D01*
X114393521Y-121973312D01*
X114664440Y-121973548D01*
X114914827Y-121870091D01*
X115106562Y-121678689D01*
X115210457Y-121428484D01*
X115210693Y-121157565D01*
X115134234Y-120972518D01*
X115142473Y-120931831D01*
X115161850Y-121034809D01*
X115245293Y-121164484D01*
X115372613Y-121251478D01*
X115523747Y-121282083D01*
X116031747Y-121282083D01*
X116172937Y-121255516D01*
X116302612Y-121172073D01*
X116389606Y-121044753D01*
X116412473Y-120931831D01*
X116431850Y-121034809D01*
X116515293Y-121164484D01*
X116642613Y-121251478D01*
X116793747Y-121282083D01*
X117301747Y-121282083D01*
X117442937Y-121255516D01*
X117508781Y-121213147D01*
X117525420Y-121253318D01*
X117704049Y-121431946D01*
X117937438Y-121528619D01*
X118031997Y-121528619D01*
X118190747Y-121369869D01*
X118190747Y-120449119D01*
X118170747Y-120449119D01*
X118170747Y-120195119D01*
X118190747Y-120195119D01*
X118190747Y-119274369D01*
X118444747Y-119274369D01*
X118444747Y-120195119D01*
X118464747Y-120195119D01*
X118464747Y-120449119D01*
X118444747Y-120449119D01*
X118444747Y-121369869D01*
X118603497Y-121528619D01*
X118698056Y-121528619D01*
X118931445Y-121431946D01*
X119110074Y-121253318D01*
X119126669Y-121213253D01*
X119182613Y-121251478D01*
X119333747Y-121282083D01*
X119841747Y-121282083D01*
X119982937Y-121255516D01*
X120112612Y-121172073D01*
X120199606Y-121044753D01*
X120222473Y-120931831D01*
X120241850Y-121034809D01*
X120325293Y-121164484D01*
X120452613Y-121251478D01*
X120603747Y-121282083D01*
X121111747Y-121282083D01*
X121252937Y-121255516D01*
X121382612Y-121172073D01*
X121469606Y-121044753D01*
X121492473Y-120931831D01*
X121511850Y-121034809D01*
X121595293Y-121164484D01*
X121722613Y-121251478D01*
X121873747Y-121282083D01*
X122381747Y-121282083D01*
X122522937Y-121255516D01*
X122652612Y-121172073D01*
X122739606Y-121044753D01*
X122770211Y-120893619D01*
X122770211Y-119750619D01*
X122743644Y-119609429D01*
X122660201Y-119479754D01*
X122532881Y-119392760D01*
X122381747Y-119362155D01*
X121873747Y-119362155D01*
X121732557Y-119388722D01*
X121602882Y-119472165D01*
X121515888Y-119599485D01*
X121493021Y-119712407D01*
X121473644Y-119609429D01*
X121390201Y-119479754D01*
X121262881Y-119392760D01*
X121111747Y-119362155D01*
X120603747Y-119362155D01*
X120462557Y-119388722D01*
X120332882Y-119472165D01*
X120245888Y-119599485D01*
X120223021Y-119712407D01*
X120203644Y-119609429D01*
X120120201Y-119479754D01*
X119992881Y-119392760D01*
X119841747Y-119362155D01*
X119333747Y-119362155D01*
X119192557Y-119388722D01*
X119126713Y-119431091D01*
X119110074Y-119390920D01*
X118931445Y-119212292D01*
X118698056Y-119115619D01*
X118603497Y-119115619D01*
X118444747Y-119274369D01*
X118190747Y-119274369D01*
X118031997Y-119115619D01*
X117937438Y-119115619D01*
X117704049Y-119212292D01*
X117525420Y-119390920D01*
X117508825Y-119430985D01*
X117452881Y-119392760D01*
X117301747Y-119362155D01*
X116838000Y-119362155D01*
X116838000Y-117361078D01*
X116799483Y-117167440D01*
X116689796Y-117003282D01*
X116283747Y-116597233D01*
X116283747Y-115374620D01*
X133436748Y-115374620D01*
X133630386Y-115336103D01*
X133794544Y-115226416D01*
X143232796Y-105788164D01*
X143342483Y-105624006D01*
X143381000Y-105430368D01*
X143381000Y-101092513D01*
X143988674Y-101092513D01*
X144274436Y-101784109D01*
X144803108Y-102313704D01*
X145494204Y-102600673D01*
X146242513Y-102601326D01*
X146934109Y-102315564D01*
X147463704Y-101786892D01*
X147750673Y-101095796D01*
X147750675Y-101092513D01*
X186988674Y-101092513D01*
X187274436Y-101784109D01*
X187803108Y-102313704D01*
X188494204Y-102600673D01*
X189242513Y-102601326D01*
X189934109Y-102315564D01*
X190463704Y-101786892D01*
X190750673Y-101095796D01*
X190751326Y-100347487D01*
X190465564Y-99655891D01*
X189936892Y-99126296D01*
X189245796Y-98839327D01*
X188497487Y-98838674D01*
X187805891Y-99124436D01*
X187276296Y-99653108D01*
X186989327Y-100344204D01*
X186988674Y-101092513D01*
X147750675Y-101092513D01*
X147751326Y-100347487D01*
X147465564Y-99655891D01*
X146936892Y-99126296D01*
X146245796Y-98839327D01*
X145497487Y-98838674D01*
X144805891Y-99124436D01*
X144276296Y-99653108D01*
X143989327Y-100344204D01*
X143988674Y-101092513D01*
X143381000Y-101092513D01*
X143381000Y-92876463D01*
X143730074Y-92527389D01*
X143844296Y-92698335D01*
X143876913Y-92730951D01*
X143876915Y-92730954D01*
X144811579Y-93355476D01*
X145914090Y-93574779D01*
X188913604Y-93574779D01*
X188913609Y-93574780D01*
X189355968Y-93486789D01*
X191191782Y-93486789D01*
X191191787Y-93486790D01*
X192294298Y-93267486D01*
X193228962Y-92642964D01*
X197935781Y-87936144D01*
X197935784Y-87936142D01*
X198560306Y-87001478D01*
X198598993Y-86806986D01*
X198672003Y-86439938D01*
X225478055Y-86439938D01*
X225564461Y-86696422D01*
X226137945Y-86906237D01*
X226748069Y-86880618D01*
X227192757Y-86696422D01*
X227279163Y-86439938D01*
X226378609Y-85539384D01*
X225478055Y-86439938D01*
X198672003Y-86439938D01*
X198779610Y-85898967D01*
X198779609Y-85898962D01*
X198779609Y-85119115D01*
X224832151Y-85119115D01*
X224857770Y-85729239D01*
X225041966Y-86173927D01*
X225298450Y-86260333D01*
X226199004Y-85359779D01*
X226558214Y-85359779D01*
X227458768Y-86260333D01*
X227715252Y-86173927D01*
X227925067Y-85600443D01*
X227899448Y-84990319D01*
X227715252Y-84545631D01*
X227458768Y-84459225D01*
X226558214Y-85359779D01*
X226199004Y-85359779D01*
X225298450Y-84459225D01*
X225041966Y-84545631D01*
X224832151Y-85119115D01*
X198779609Y-85119115D01*
X198779609Y-84279620D01*
X225478055Y-84279620D01*
X226378609Y-85180174D01*
X227279163Y-84279620D01*
X227192757Y-84023136D01*
X226619273Y-83813321D01*
X226009149Y-83838940D01*
X225564461Y-84023136D01*
X225478055Y-84279620D01*
X198779609Y-84279620D01*
X198779609Y-75009938D01*
X225478055Y-75009938D01*
X225564461Y-75266422D01*
X226137945Y-75476237D01*
X226748069Y-75450618D01*
X227192757Y-75266422D01*
X227279163Y-75009938D01*
X226378609Y-74109384D01*
X225478055Y-75009938D01*
X198779609Y-75009938D01*
X198779609Y-73689115D01*
X224832151Y-73689115D01*
X224857770Y-74299239D01*
X225041966Y-74743927D01*
X225298450Y-74830333D01*
X226199004Y-73929779D01*
X226558214Y-73929779D01*
X227458768Y-74830333D01*
X227715252Y-74743927D01*
X227925067Y-74170443D01*
X227899448Y-73560319D01*
X227715252Y-73115631D01*
X227458768Y-73029225D01*
X226558214Y-73929779D01*
X226199004Y-73929779D01*
X225298450Y-73029225D01*
X225041966Y-73115631D01*
X224832151Y-73689115D01*
X198779609Y-73689115D01*
X198779609Y-72849620D01*
X225478055Y-72849620D01*
X226378609Y-73750174D01*
X227279163Y-72849620D01*
X227192757Y-72593136D01*
X226619273Y-72383321D01*
X226009149Y-72408940D01*
X225564461Y-72593136D01*
X225478055Y-72849620D01*
X198779609Y-72849620D01*
X198779609Y-63579938D01*
X225478055Y-63579938D01*
X225564461Y-63836422D01*
X226137945Y-64046237D01*
X226748069Y-64020618D01*
X227192757Y-63836422D01*
X227279163Y-63579938D01*
X226378609Y-62679384D01*
X225478055Y-63579938D01*
X198779609Y-63579938D01*
X198779609Y-62499779D01*
X198731738Y-62259115D01*
X224832151Y-62259115D01*
X224857770Y-62869239D01*
X225041966Y-63313927D01*
X225298450Y-63400333D01*
X226199004Y-62499779D01*
X226558214Y-62499779D01*
X227458768Y-63400333D01*
X227715252Y-63313927D01*
X227925067Y-62740443D01*
X227899448Y-62130319D01*
X227715252Y-61685631D01*
X227458768Y-61599225D01*
X226558214Y-62499779D01*
X226199004Y-62499779D01*
X225298450Y-61599225D01*
X225041966Y-61685631D01*
X224832151Y-62259115D01*
X198731738Y-62259115D01*
X198564753Y-61419620D01*
X225478055Y-61419620D01*
X226378609Y-62320174D01*
X227279163Y-61419620D01*
X227192757Y-61163136D01*
X226619273Y-60953321D01*
X226009149Y-60978940D01*
X225564461Y-61163136D01*
X225478055Y-61419620D01*
X198564753Y-61419620D01*
X198560306Y-61397268D01*
X197935784Y-60462604D01*
X197001120Y-59838082D01*
X195898609Y-59618779D01*
X194796098Y-59838082D01*
X193861434Y-60462604D01*
X193236912Y-61397268D01*
X193017609Y-62499779D01*
X193017609Y-84705618D01*
X191312493Y-86410733D01*
X191704567Y-85823953D01*
X191847421Y-85105779D01*
X191704567Y-84387605D01*
X191297754Y-83778766D01*
X190688915Y-83371953D01*
X189970741Y-83229099D01*
X187856477Y-83229099D01*
X187138303Y-83371953D01*
X186529464Y-83778766D01*
X186122651Y-84387605D01*
X185979797Y-85105779D01*
X186122651Y-85823953D01*
X186529464Y-86432792D01*
X187138303Y-86839605D01*
X187856477Y-86982459D01*
X189970741Y-86982459D01*
X190688915Y-86839605D01*
X191275695Y-86447531D01*
X189998437Y-87724789D01*
X189001604Y-87724789D01*
X189001599Y-87724788D01*
X188559240Y-87812779D01*
X146045462Y-87812779D01*
X145881471Y-87780159D01*
X144778960Y-87999463D01*
X143844296Y-88623985D01*
X143219774Y-89558649D01*
X143000470Y-90661160D01*
X143193698Y-91632581D01*
X142517204Y-92309075D01*
X142407517Y-92473233D01*
X142369000Y-92666871D01*
X142369000Y-105220776D01*
X133227156Y-114362620D01*
X122770211Y-114362620D01*
X122770211Y-113400619D01*
X122752383Y-113305874D01*
X122808629Y-113170420D01*
X122808865Y-112899501D01*
X122705408Y-112649114D01*
X122633747Y-112577328D01*
X122633747Y-105384504D01*
X142948297Y-85069954D01*
X142947659Y-85073160D01*
X143090513Y-85791334D01*
X143497326Y-86400173D01*
X144106165Y-86806986D01*
X144824339Y-86949840D01*
X146938603Y-86949840D01*
X147656777Y-86806986D01*
X148265616Y-86400173D01*
X148672429Y-85791334D01*
X148815283Y-85073160D01*
X148672429Y-84354986D01*
X148265616Y-83746147D01*
X148183083Y-83691000D01*
X182745948Y-83691000D01*
X182939586Y-83652483D01*
X183103744Y-83542796D01*
X186414819Y-80231721D01*
X186708231Y-80670844D01*
X187237262Y-81024331D01*
X187861296Y-81148459D01*
X189965922Y-81148459D01*
X190589956Y-81024331D01*
X191118987Y-80670844D01*
X191472474Y-80141813D01*
X191596602Y-79517779D01*
X191472474Y-78893745D01*
X191118987Y-78364714D01*
X190589956Y-78011227D01*
X189965922Y-77887099D01*
X187861296Y-77887099D01*
X187237262Y-78011227D01*
X186708231Y-78364714D01*
X186354744Y-78893745D01*
X186327891Y-79028742D01*
X186219531Y-79050296D01*
X186104191Y-79127364D01*
X186055373Y-79159983D01*
X182536356Y-82679000D01*
X144117659Y-82679000D01*
X143924021Y-82717517D01*
X143759863Y-82827204D01*
X121769951Y-104817116D01*
X121660264Y-104981274D01*
X121621747Y-105174912D01*
X121621747Y-112577243D01*
X121550760Y-112648107D01*
X121446865Y-112898312D01*
X121446629Y-113169231D01*
X121504015Y-113308117D01*
X121493021Y-113362407D01*
X121473644Y-113259429D01*
X121390201Y-113129754D01*
X121262881Y-113042760D01*
X121111747Y-113012155D01*
X120603747Y-113012155D01*
X120462557Y-113038722D01*
X120332882Y-113122165D01*
X120314897Y-113148486D01*
X120315118Y-112895135D01*
X120211661Y-112644748D01*
X120020259Y-112453013D01*
X119770054Y-112349118D01*
X119499135Y-112348882D01*
X119310477Y-112426833D01*
X119310477Y-111469987D01*
X119283910Y-111328797D01*
X119200467Y-111199122D01*
X119073147Y-111112128D01*
X119037883Y-111104987D01*
X119048323Y-111104987D01*
X119281712Y-111008314D01*
X119460340Y-110829685D01*
X119557013Y-110596296D01*
X119557013Y-110255737D01*
X119398263Y-110096987D01*
X118424013Y-110096987D01*
X118424013Y-110116987D01*
X118170013Y-110116987D01*
X118170013Y-110096987D01*
X117195763Y-110096987D01*
X117037013Y-110255737D01*
X117037013Y-110596296D01*
X117133686Y-110829685D01*
X117312314Y-111008314D01*
X117545703Y-111104987D01*
X117547314Y-111104987D01*
X117530823Y-111108090D01*
X117401148Y-111191533D01*
X117314154Y-111318853D01*
X117311296Y-111332968D01*
X117213135Y-111332882D01*
X116962748Y-111436339D01*
X116771013Y-111627741D01*
X116667118Y-111877946D01*
X116666882Y-112148865D01*
X116770339Y-112399252D01*
X116961741Y-112590987D01*
X117211946Y-112694882D01*
X117364064Y-112695015D01*
X117393559Y-112740852D01*
X117520879Y-112827846D01*
X117672013Y-112858451D01*
X117686747Y-112858451D01*
X117686747Y-113344007D01*
X117683021Y-113362407D01*
X117663644Y-113259429D01*
X117580201Y-113129754D01*
X117452881Y-113042760D01*
X117301747Y-113012155D01*
X117120875Y-113012155D01*
X116826542Y-112717822D01*
X116662384Y-112608135D01*
X116468746Y-112569618D01*
X115263746Y-112569618D01*
X115070108Y-112608135D01*
X115013747Y-112645794D01*
X115013747Y-109343678D01*
X117037013Y-109343678D01*
X117037013Y-109684237D01*
X117195763Y-109842987D01*
X118170013Y-109842987D01*
X118170013Y-108993737D01*
X118424013Y-108993737D01*
X118424013Y-109842987D01*
X119398263Y-109842987D01*
X119557013Y-109684237D01*
X119557013Y-109343678D01*
X119460340Y-109110289D01*
X119281712Y-108931660D01*
X119048323Y-108834987D01*
X118582763Y-108834987D01*
X118424013Y-108993737D01*
X118170013Y-108993737D01*
X118011263Y-108834987D01*
X117545703Y-108834987D01*
X117312314Y-108931660D01*
X117133686Y-109110289D01*
X117037013Y-109343678D01*
X115013747Y-109343678D01*
X115013747Y-107697845D01*
X142720432Y-79991160D01*
X143299128Y-79991160D01*
X143322606Y-80109194D01*
X143676093Y-80638225D01*
X144205124Y-80991712D01*
X144829158Y-81115840D01*
X146933784Y-81115840D01*
X147557818Y-80991712D01*
X148086849Y-80638225D01*
X148440336Y-80109194D01*
X148564464Y-79485160D01*
X148440336Y-78861126D01*
X148086849Y-78332095D01*
X147557818Y-77978608D01*
X146933784Y-77854480D01*
X144829158Y-77854480D01*
X144205124Y-77978608D01*
X143676093Y-78332095D01*
X143322606Y-78861126D01*
X143299128Y-78979160D01*
X142510840Y-78979160D01*
X142317202Y-79017677D01*
X142153044Y-79127364D01*
X114149951Y-107130457D01*
X114040264Y-107294615D01*
X114001747Y-107488253D01*
X114001747Y-111698879D01*
X105970679Y-111698879D01*
X105777041Y-111737396D01*
X105612883Y-111847083D01*
X105220451Y-112239515D01*
X105196902Y-112114361D01*
X105113459Y-111984686D01*
X104986139Y-111897692D01*
X104835005Y-111867087D01*
X104262133Y-111867087D01*
X104039061Y-111644015D01*
X104835005Y-111644015D01*
X104976195Y-111617448D01*
X105105870Y-111534005D01*
X105192864Y-111406685D01*
X105223469Y-111255551D01*
X105223469Y-110755551D01*
X105196902Y-110614361D01*
X105113459Y-110484686D01*
X104986139Y-110397692D01*
X104891005Y-110378427D01*
X104891005Y-109031298D01*
X144135963Y-69786340D01*
X144205124Y-69832552D01*
X144829158Y-69956680D01*
X146933784Y-69956680D01*
X147557818Y-69832552D01*
X148086849Y-69479065D01*
X148440336Y-68950034D01*
X148564464Y-68326000D01*
X148440336Y-67701966D01*
X148086849Y-67172935D01*
X147557818Y-66819448D01*
X146933784Y-66695320D01*
X144829158Y-66695320D01*
X144205124Y-66819448D01*
X143676093Y-67172935D01*
X143322606Y-67701966D01*
X143198478Y-68326000D01*
X143322606Y-68950034D01*
X143410116Y-69081003D01*
X104027209Y-108463910D01*
X103917522Y-108628068D01*
X103879005Y-108821706D01*
X103879005Y-110377624D01*
X103793815Y-110393654D01*
X103664140Y-110477097D01*
X103577146Y-110604417D01*
X103546541Y-110755551D01*
X103546541Y-111151495D01*
X103048581Y-110653535D01*
X102884423Y-110543848D01*
X102690785Y-110505331D01*
X102613583Y-110505331D01*
X102606952Y-110470091D01*
X102523509Y-110340416D01*
X102396189Y-110253422D01*
X102245055Y-110222817D01*
X101444955Y-110222817D01*
X101303765Y-110249384D01*
X101174090Y-110332827D01*
X101087096Y-110460147D01*
X101056491Y-110611281D01*
X101056491Y-111411381D01*
X101083058Y-111552571D01*
X101166501Y-111682246D01*
X101293821Y-111769240D01*
X101444955Y-111799845D01*
X102245055Y-111799845D01*
X102386245Y-111773278D01*
X102515920Y-111689835D01*
X102571846Y-111607984D01*
X103009939Y-112046077D01*
X102922005Y-112134011D01*
X102922005Y-112883311D01*
X102942005Y-112883311D01*
X102942005Y-113137311D01*
X102922005Y-113137311D01*
X102922005Y-113157311D01*
X102668005Y-113157311D01*
X102668005Y-113137311D01*
X101918705Y-113137311D01*
X101759955Y-113296061D01*
X101759955Y-113536671D01*
X101856628Y-113770060D01*
X101967533Y-113880964D01*
X101938070Y-114026456D01*
X101938070Y-114926456D01*
X101964637Y-115067646D01*
X102048080Y-115197321D01*
X102175400Y-115284315D01*
X102326534Y-115314920D01*
X102826534Y-115314920D01*
X102967724Y-115288353D01*
X103097399Y-115204910D01*
X103184393Y-115077590D01*
X103203658Y-114982456D01*
X103699102Y-114982456D01*
X103892740Y-114943939D01*
X104056898Y-114834252D01*
X106180271Y-112710879D01*
X114001747Y-112710879D01*
X114001747Y-113110026D01*
X113982882Y-113122165D01*
X113895888Y-113249485D01*
X113878959Y-113333085D01*
X113797259Y-113251243D01*
X113547054Y-113147348D01*
X113276135Y-113147112D01*
X113025748Y-113250569D01*
X112953962Y-113322230D01*
X108927770Y-113322230D01*
X108734132Y-113360747D01*
X108624428Y-113434049D01*
X108569974Y-113470434D01*
X100722204Y-121318204D01*
X100612517Y-121482362D01*
X100598491Y-121552873D01*
X100538810Y-121564103D01*
X100521919Y-121574972D01*
X100518327Y-121566301D01*
X100339698Y-121387673D01*
X100106309Y-121291000D01*
X99865750Y-121291000D01*
X99707000Y-121449750D01*
X99707000Y-122174000D01*
X99727000Y-122174000D01*
X99727000Y-122428000D01*
X99707000Y-122428000D01*
X99707000Y-122448000D01*
X99453000Y-122448000D01*
X99453000Y-122428000D01*
X98703750Y-122428000D01*
X98545000Y-122586750D01*
X98545000Y-122802310D01*
X98626142Y-122998205D01*
X98504301Y-123048673D01*
X98325673Y-123227302D01*
X98229000Y-123460691D01*
X98229000Y-123553250D01*
X98387750Y-123712000D01*
X99187000Y-123712000D01*
X99187000Y-123690000D01*
X99441000Y-123690000D01*
X99441000Y-123712000D01*
X99461000Y-123712000D01*
X99461000Y-123962000D01*
X99441000Y-123962000D01*
X99441000Y-123984000D01*
X99187000Y-123984000D01*
X99187000Y-123962000D01*
X98387750Y-123962000D01*
X98229000Y-124120750D01*
X98229000Y-124213309D01*
X98325673Y-124446698D01*
X98504301Y-124625327D01*
X98737690Y-124722000D01*
X98739301Y-124722000D01*
X98722810Y-124725103D01*
X98593135Y-124808546D01*
X98506141Y-124935866D01*
X98475536Y-125087000D01*
X98475536Y-125587000D01*
X98502103Y-125728190D01*
X98585546Y-125857865D01*
X98712866Y-125944859D01*
X98864000Y-125975464D01*
X99764000Y-125975464D01*
X99905190Y-125948897D01*
X100034865Y-125865454D01*
X100050207Y-125843000D01*
X100353981Y-125843000D01*
X100363546Y-125857865D01*
X100490866Y-125944859D01*
X100530463Y-125952877D01*
X100530463Y-125973753D01*
X100445273Y-125989783D01*
X100315598Y-126073226D01*
X100228604Y-126200546D01*
X100197999Y-126351680D01*
X100197999Y-126851680D01*
X100202387Y-126875000D01*
X97724000Y-126875000D01*
X97530362Y-126913517D01*
X97366204Y-127023204D01*
X95827000Y-128562408D01*
X95827000Y-128535998D01*
X95670252Y-128535998D01*
X95827000Y-128379250D01*
X95827000Y-128286691D01*
X95730327Y-128053302D01*
X95551699Y-127874673D01*
X95318310Y-127778000D01*
X95027750Y-127778000D01*
X94869000Y-127936750D01*
X94869000Y-128538000D01*
X94889000Y-128538000D01*
X94889000Y-128788000D01*
X94869000Y-128788000D01*
X94869000Y-128810000D01*
X94615000Y-128810000D01*
X94615000Y-128788000D01*
X94595000Y-128788000D01*
X94595000Y-128538000D01*
X94615000Y-128538000D01*
X94615000Y-127936750D01*
X94456250Y-127778000D01*
X94172099Y-127778000D01*
X94141137Y-127703252D01*
X93962509Y-127524623D01*
X93729120Y-127427950D01*
X93488510Y-127427950D01*
X93329760Y-127586700D01*
X93329760Y-128336000D01*
X93349760Y-128336000D01*
X93349760Y-128590000D01*
X93329760Y-128590000D01*
X93329760Y-129339300D01*
X93488510Y-129498050D01*
X93729120Y-129498050D01*
X93905829Y-129424855D01*
X93932301Y-129451327D01*
X94165690Y-129548000D01*
X94167301Y-129548000D01*
X94150810Y-129551103D01*
X94021135Y-129634546D01*
X94005793Y-129657000D01*
X93829915Y-129657000D01*
X93753944Y-129605091D01*
X93602810Y-129574486D01*
X92802710Y-129574486D01*
X92661520Y-129601053D01*
X92531845Y-129684496D01*
X92444851Y-129811816D01*
X92414246Y-129962950D01*
X92414246Y-130763050D01*
X92440813Y-130904240D01*
X92524256Y-131033915D01*
X92651576Y-131120909D01*
X92802710Y-131151514D01*
X93602810Y-131151514D01*
X93744000Y-131124947D01*
X93873675Y-131041504D01*
X93960669Y-130914184D01*
X93991274Y-130763050D01*
X93991274Y-130669000D01*
X94003981Y-130669000D01*
X94013546Y-130683865D01*
X94140866Y-130770859D01*
X94292000Y-130801464D01*
X95192000Y-130801464D01*
X95333190Y-130774897D01*
X95462865Y-130691454D01*
X95549859Y-130564134D01*
X95580464Y-130413000D01*
X95580464Y-130240128D01*
X97933592Y-127887000D01*
X100197999Y-127887000D01*
X100197999Y-128351680D01*
X100224566Y-128492870D01*
X100308009Y-128622545D01*
X100435329Y-128709539D01*
X100586463Y-128740144D01*
X101159335Y-128740144D01*
X101482259Y-129063068D01*
X101646417Y-129172755D01*
X101840055Y-129211272D01*
X103421868Y-129211272D01*
X110904384Y-136693788D01*
X110866748Y-136709339D01*
X110675013Y-136900741D01*
X110619263Y-137035000D01*
X85021990Y-137035000D01*
X83244607Y-135257617D01*
X83244607Y-134020777D01*
X83341841Y-134118011D01*
X83287943Y-134388976D01*
X83287943Y-134748514D01*
X83382683Y-135224802D01*
X83652478Y-135628579D01*
X84056255Y-135898374D01*
X84532543Y-135993114D01*
X85008831Y-135898374D01*
X85412608Y-135628579D01*
X85682403Y-135224802D01*
X85685247Y-135210502D01*
X85780589Y-135483065D01*
X86170507Y-135919477D01*
X86697752Y-136173454D01*
X86713517Y-136176103D01*
X86945543Y-136054962D01*
X86945543Y-134695745D01*
X87199543Y-134695745D01*
X87199543Y-136054962D01*
X87431569Y-136176103D01*
X87447334Y-136173454D01*
X87974579Y-135919477D01*
X88364497Y-135483065D01*
X88557727Y-134930658D01*
X88413467Y-134695745D01*
X87199543Y-134695745D01*
X86945543Y-134695745D01*
X86925543Y-134695745D01*
X86925543Y-134441745D01*
X86945543Y-134441745D01*
X86945543Y-133082528D01*
X87199543Y-133082528D01*
X87199543Y-134441745D01*
X88413467Y-134441745D01*
X88557727Y-134206832D01*
X88364497Y-133654425D01*
X87974579Y-133218013D01*
X87447334Y-132964036D01*
X87431569Y-132961387D01*
X87199543Y-133082528D01*
X86945543Y-133082528D01*
X86713517Y-132961387D01*
X86697752Y-132964036D01*
X86170507Y-133218013D01*
X85780589Y-133654425D01*
X85685247Y-133926988D01*
X85682403Y-133912688D01*
X85412608Y-133508911D01*
X85008831Y-133239116D01*
X84532543Y-133144376D01*
X84215922Y-133207356D01*
X81826030Y-130817464D01*
X83058000Y-130817464D01*
X83199190Y-130790897D01*
X83328865Y-130707454D01*
X83415859Y-130580134D01*
X83446464Y-130429000D01*
X83446464Y-130207137D01*
X83594172Y-130428197D01*
X84047391Y-130731029D01*
X84582000Y-130837369D01*
X85116609Y-130731029D01*
X85569828Y-130428197D01*
X85826541Y-130044000D01*
X90499592Y-130044000D01*
X90525276Y-130083915D01*
X90652596Y-130170909D01*
X90803730Y-130201514D01*
X91603830Y-130201514D01*
X91745020Y-130174947D01*
X91874695Y-130091504D01*
X91961689Y-129964184D01*
X91992294Y-129813050D01*
X91992294Y-129012950D01*
X91965727Y-128871760D01*
X91886573Y-128748750D01*
X92167710Y-128748750D01*
X92167710Y-128989359D01*
X92264383Y-129222748D01*
X92443011Y-129401377D01*
X92676400Y-129498050D01*
X92917010Y-129498050D01*
X93075760Y-129339300D01*
X93075760Y-128590000D01*
X92326460Y-128590000D01*
X92167710Y-128748750D01*
X91886573Y-128748750D01*
X91882284Y-128742085D01*
X91754964Y-128655091D01*
X91603830Y-128624486D01*
X90803730Y-128624486D01*
X90662540Y-128651053D01*
X90532865Y-128734496D01*
X90500407Y-128782000D01*
X85826541Y-128782000D01*
X85569828Y-128397803D01*
X85116609Y-128094971D01*
X84582000Y-127988631D01*
X84047391Y-128094971D01*
X83594172Y-128397803D01*
X83446464Y-128618863D01*
X83446464Y-128397000D01*
X83419897Y-128255810D01*
X83336454Y-128126135D01*
X83209134Y-128039141D01*
X83058000Y-128008536D01*
X82822832Y-128008536D01*
X82894727Y-127936641D01*
X92167710Y-127936641D01*
X92167710Y-128177250D01*
X92326460Y-128336000D01*
X93075760Y-128336000D01*
X93075760Y-127586700D01*
X92917010Y-127427950D01*
X92676400Y-127427950D01*
X92443011Y-127524623D01*
X92264383Y-127703252D01*
X92167710Y-127936641D01*
X82894727Y-127936641D01*
X89031678Y-121799690D01*
X98545000Y-121799690D01*
X98545000Y-122015250D01*
X98703750Y-122174000D01*
X99453000Y-122174000D01*
X99453000Y-121449750D01*
X99294250Y-121291000D01*
X99053691Y-121291000D01*
X98820302Y-121387673D01*
X98641673Y-121566301D01*
X98545000Y-121799690D01*
X89031678Y-121799690D01*
X89854184Y-120977184D01*
X89990968Y-120772474D01*
X90013980Y-120656783D01*
X90039000Y-120531000D01*
X90039000Y-112610261D01*
X92486491Y-112610261D01*
X92486491Y-113410361D01*
X92513058Y-113551551D01*
X92596501Y-113681226D01*
X92723821Y-113768220D01*
X92769005Y-113777370D01*
X92769005Y-114294927D01*
X92807522Y-114488565D01*
X92818070Y-114504351D01*
X92818070Y-114926456D01*
X92844637Y-115067646D01*
X92928080Y-115197321D01*
X93055400Y-115284315D01*
X93206534Y-115314920D01*
X93706534Y-115314920D01*
X93847724Y-115288353D01*
X93977399Y-115204910D01*
X94064393Y-115077590D01*
X94094998Y-114926456D01*
X94094998Y-114026456D01*
X94068431Y-113885266D01*
X93984988Y-113755591D01*
X93915709Y-113708255D01*
X93945920Y-113688815D01*
X94032914Y-113561495D01*
X94063519Y-113410361D01*
X94063519Y-112610261D01*
X94039752Y-112483951D01*
X94139955Y-112483951D01*
X94139955Y-112724561D01*
X94298705Y-112883311D01*
X95048005Y-112883311D01*
X95048005Y-112134011D01*
X94889255Y-111975261D01*
X94648646Y-111975261D01*
X94415257Y-112071934D01*
X94236628Y-112250562D01*
X94139955Y-112483951D01*
X94039752Y-112483951D01*
X94036952Y-112469071D01*
X93953509Y-112339396D01*
X93826189Y-112252402D01*
X93675055Y-112221797D01*
X92874955Y-112221797D01*
X92733765Y-112248364D01*
X92604090Y-112331807D01*
X92517096Y-112459127D01*
X92486491Y-112610261D01*
X90039000Y-112610261D01*
X90039000Y-110611281D01*
X93436491Y-110611281D01*
X93436491Y-111411381D01*
X93463058Y-111552571D01*
X93546501Y-111682246D01*
X93673821Y-111769240D01*
X93824955Y-111799845D01*
X94625055Y-111799845D01*
X94766245Y-111773278D01*
X94895920Y-111689835D01*
X94951846Y-111607984D01*
X95389939Y-112046077D01*
X95302005Y-112134011D01*
X95302005Y-112883311D01*
X95322005Y-112883311D01*
X95322005Y-113137311D01*
X95302005Y-113137311D01*
X95302005Y-113157311D01*
X95048005Y-113157311D01*
X95048005Y-113137311D01*
X94298705Y-113137311D01*
X94139955Y-113296061D01*
X94139955Y-113536671D01*
X94236628Y-113770060D01*
X94347533Y-113880964D01*
X94318070Y-114026456D01*
X94318070Y-114926456D01*
X94344637Y-115067646D01*
X94428080Y-115197321D01*
X94555400Y-115284315D01*
X94706534Y-115314920D01*
X95206534Y-115314920D01*
X95347724Y-115288353D01*
X95477399Y-115204910D01*
X95564393Y-115077590D01*
X95573049Y-115034843D01*
X95748946Y-115107882D01*
X96019865Y-115108118D01*
X96270252Y-115004661D01*
X96461987Y-114813259D01*
X96565882Y-114563054D01*
X96566118Y-114292135D01*
X96462661Y-114041748D01*
X96271259Y-113850013D01*
X96103210Y-113780232D01*
X96113382Y-113770060D01*
X96210055Y-113536671D01*
X96210055Y-113296061D01*
X96051307Y-113137313D01*
X96210055Y-113137313D01*
X96210055Y-113122762D01*
X96315005Y-113144015D01*
X97215005Y-113144015D01*
X97356195Y-113117448D01*
X97485870Y-113034005D01*
X97572864Y-112906685D01*
X97603469Y-112755551D01*
X97603469Y-112610261D01*
X100106491Y-112610261D01*
X100106491Y-113410361D01*
X100133058Y-113551551D01*
X100216501Y-113681226D01*
X100343821Y-113768220D01*
X100389005Y-113777370D01*
X100389005Y-114294927D01*
X100427522Y-114488565D01*
X100438070Y-114504351D01*
X100438070Y-114926456D01*
X100464637Y-115067646D01*
X100548080Y-115197321D01*
X100675400Y-115284315D01*
X100826534Y-115314920D01*
X101326534Y-115314920D01*
X101467724Y-115288353D01*
X101597399Y-115204910D01*
X101684393Y-115077590D01*
X101714998Y-114926456D01*
X101714998Y-114026456D01*
X101688431Y-113885266D01*
X101604988Y-113755591D01*
X101535709Y-113708255D01*
X101565920Y-113688815D01*
X101652914Y-113561495D01*
X101683519Y-113410361D01*
X101683519Y-112610261D01*
X101659752Y-112483951D01*
X101759955Y-112483951D01*
X101759955Y-112724561D01*
X101918705Y-112883311D01*
X102668005Y-112883311D01*
X102668005Y-112134011D01*
X102509255Y-111975261D01*
X102268646Y-111975261D01*
X102035257Y-112071934D01*
X101856628Y-112250562D01*
X101759955Y-112483951D01*
X101659752Y-112483951D01*
X101656952Y-112469071D01*
X101573509Y-112339396D01*
X101446189Y-112252402D01*
X101295055Y-112221797D01*
X100494955Y-112221797D01*
X100353765Y-112248364D01*
X100224090Y-112331807D01*
X100137096Y-112459127D01*
X100106491Y-112610261D01*
X97603469Y-112610261D01*
X97603469Y-112255551D01*
X97576902Y-112114361D01*
X97493459Y-111984686D01*
X97366139Y-111897692D01*
X97215005Y-111867087D01*
X96642133Y-111867087D01*
X96419061Y-111644015D01*
X97215005Y-111644015D01*
X97356195Y-111617448D01*
X97485870Y-111534005D01*
X97572864Y-111406685D01*
X97603469Y-111255551D01*
X97603469Y-110755551D01*
X97576902Y-110614361D01*
X97493459Y-110484686D01*
X97366139Y-110397692D01*
X97271005Y-110378427D01*
X97271005Y-101092513D01*
X100988674Y-101092513D01*
X101274436Y-101784109D01*
X101803108Y-102313704D01*
X102494204Y-102600673D01*
X103242513Y-102601326D01*
X103934109Y-102315564D01*
X104463704Y-101786892D01*
X104750673Y-101095796D01*
X104751326Y-100347487D01*
X104465564Y-99655891D01*
X103936892Y-99126296D01*
X103245796Y-98839327D01*
X102497487Y-98838674D01*
X101805891Y-99124436D01*
X101276296Y-99653108D01*
X100989327Y-100344204D01*
X100988674Y-101092513D01*
X97271005Y-101092513D01*
X97271005Y-73512827D01*
X100997492Y-69786340D01*
X101066653Y-69832552D01*
X101690687Y-69956680D01*
X103795313Y-69956680D01*
X104419347Y-69832552D01*
X104948378Y-69479065D01*
X105301865Y-68950034D01*
X105425993Y-68326000D01*
X105301865Y-67701966D01*
X104948378Y-67172935D01*
X104419347Y-66819448D01*
X103795313Y-66695320D01*
X101690687Y-66695320D01*
X101066653Y-66819448D01*
X100537622Y-67172935D01*
X100184135Y-67701966D01*
X100060007Y-68326000D01*
X100184135Y-68950034D01*
X100271645Y-69081003D01*
X96407209Y-72945439D01*
X96297522Y-73109597D01*
X96259005Y-73303235D01*
X96259005Y-110377624D01*
X96173815Y-110393654D01*
X96044140Y-110477097D01*
X95957146Y-110604417D01*
X95926541Y-110755551D01*
X95926541Y-111151495D01*
X95428581Y-110653535D01*
X95264423Y-110543848D01*
X95070785Y-110505331D01*
X94993583Y-110505331D01*
X94986952Y-110470091D01*
X94903509Y-110340416D01*
X94776189Y-110253422D01*
X94625055Y-110222817D01*
X93824955Y-110222817D01*
X93683765Y-110249384D01*
X93554090Y-110332827D01*
X93467096Y-110460147D01*
X93436491Y-110611281D01*
X90039000Y-110611281D01*
X90039000Y-91440000D01*
X89990968Y-91198527D01*
X89990968Y-91198526D01*
X89854184Y-90993815D01*
X89154000Y-90293632D01*
X89154000Y-84019078D01*
X89165760Y-83973104D01*
X89154000Y-83944419D01*
X89154000Y-83178179D01*
X89165760Y-83149494D01*
X89154000Y-83103520D01*
X89154000Y-79819078D01*
X89165760Y-79773104D01*
X89154000Y-79744419D01*
X89154000Y-78978179D01*
X89165760Y-78949494D01*
X89154000Y-78903520D01*
X89154000Y-75619078D01*
X89165760Y-75573104D01*
X89154000Y-75544419D01*
X89154000Y-74778179D01*
X89165760Y-74749494D01*
X89154000Y-74703520D01*
X89154000Y-71619078D01*
X89165760Y-71573104D01*
X89154000Y-71544419D01*
X89154000Y-70778179D01*
X89165760Y-70749494D01*
X89154000Y-70703520D01*
X89154000Y-67419078D01*
X89165760Y-67373104D01*
X89154000Y-67344419D01*
X89154000Y-66578179D01*
X89165760Y-66549494D01*
X89154000Y-66503520D01*
X89154000Y-61442299D01*
X100168690Y-61442299D01*
X100168695Y-61442300D01*
X100372733Y-61401714D01*
X100358855Y-61410987D01*
X99952042Y-62019826D01*
X99809188Y-62738000D01*
X99952042Y-63456174D01*
X100358855Y-64065013D01*
X100967694Y-64471826D01*
X101685868Y-64614680D01*
X103800132Y-64614680D01*
X104518306Y-64471826D01*
X105127145Y-64065013D01*
X105533958Y-63456174D01*
X105676812Y-62738000D01*
X142947659Y-62738000D01*
X143090513Y-63456174D01*
X143497326Y-64065013D01*
X144106165Y-64471826D01*
X144824339Y-64614680D01*
X146938603Y-64614680D01*
X147656777Y-64471826D01*
X148265616Y-64065013D01*
X148672429Y-63456174D01*
X148815283Y-62738000D01*
X148672429Y-62019826D01*
X148265616Y-61410987D01*
X147656777Y-61004174D01*
X146938603Y-60861320D01*
X144824339Y-60861320D01*
X144106165Y-61004174D01*
X143497326Y-61410987D01*
X143090513Y-62019826D01*
X142947659Y-62738000D01*
X105676812Y-62738000D01*
X105533958Y-62019826D01*
X105127145Y-61410987D01*
X104518306Y-61004174D01*
X103800132Y-60861320D01*
X101812493Y-60861320D01*
X102205870Y-60598474D01*
X102692887Y-60111457D01*
X103097369Y-60031000D01*
X145881466Y-60031000D01*
X145881471Y-60031001D01*
X146983982Y-59811697D01*
X147918646Y-59187175D01*
X148543168Y-58252511D01*
X148762472Y-57150000D01*
X148543168Y-56047489D01*
X148339246Y-55742298D01*
X147918646Y-55112825D01*
X147918643Y-55112823D01*
X145194714Y-52388893D01*
X144260050Y-51764371D01*
X143157539Y-51545067D01*
X143157534Y-51545068D01*
X87103184Y-51545068D01*
X86820332Y-51488805D01*
X87381674Y-51256863D01*
X87911269Y-50728191D01*
X88198238Y-50037095D01*
X88198891Y-49288786D01*
X87913129Y-48597190D01*
X87384457Y-48067595D01*
X86693361Y-47780626D01*
X85945052Y-47779973D01*
X85253456Y-48065735D01*
X84723861Y-48594407D01*
X84436892Y-49285503D01*
X84436239Y-50033812D01*
X84722001Y-50725408D01*
X85250673Y-51255003D01*
X85941769Y-51541972D01*
X86465214Y-51542429D01*
X85675054Y-51699602D01*
X85551472Y-51782177D01*
X83954079Y-50184785D01*
X83506051Y-49885421D01*
X82977565Y-49780299D01*
X80059175Y-49780299D01*
X79530689Y-49885421D01*
X79082661Y-50184784D01*
X77128486Y-52138960D01*
X76829122Y-52586988D01*
X76724000Y-53115474D01*
X71247000Y-53115474D01*
X71247000Y-46092513D01*
X100988674Y-46092513D01*
X101274436Y-46784109D01*
X101803108Y-47313704D01*
X102494204Y-47600673D01*
X103242513Y-47601326D01*
X103934109Y-47315564D01*
X104463704Y-46786892D01*
X104750673Y-46095796D01*
X104750675Y-46092513D01*
X143988674Y-46092513D01*
X144274436Y-46784109D01*
X144803108Y-47313704D01*
X145494204Y-47600673D01*
X146242513Y-47601326D01*
X146934109Y-47315564D01*
X147463704Y-46786892D01*
X147750673Y-46095796D01*
X147750675Y-46092513D01*
X186988674Y-46092513D01*
X187274436Y-46784109D01*
X187803108Y-47313704D01*
X188494204Y-47600673D01*
X189242513Y-47601326D01*
X189934109Y-47315564D01*
X190463704Y-46786892D01*
X190750673Y-46095796D01*
X190751326Y-45347487D01*
X190465564Y-44655891D01*
X189936892Y-44126296D01*
X189245796Y-43839327D01*
X188497487Y-43838674D01*
X187805891Y-44124436D01*
X187276296Y-44653108D01*
X186989327Y-45344204D01*
X186988674Y-46092513D01*
X147750675Y-46092513D01*
X147751326Y-45347487D01*
X147465564Y-44655891D01*
X146936892Y-44126296D01*
X146245796Y-43839327D01*
X145497487Y-43838674D01*
X144805891Y-44124436D01*
X144276296Y-44653108D01*
X143989327Y-45344204D01*
X143988674Y-46092513D01*
X104750675Y-46092513D01*
X104751326Y-45347487D01*
X104465564Y-44655891D01*
X103936892Y-44126296D01*
X103245796Y-43839327D01*
X102497487Y-43838674D01*
X101805891Y-44124436D01*
X101276296Y-44653108D01*
X100989327Y-45344204D01*
X100988674Y-46092513D01*
X71247000Y-46092513D01*
X71247000Y-42037000D01*
X229743000Y-42037000D01*
X229743000Y-151003000D01*
X229743000Y-151003000D01*
G37*
X229743000Y-151003000D02*
X71247000Y-151003000D01*
X71247000Y-53115474D01*
X76724000Y-53115474D01*
X76724000Y-76988734D01*
X76829122Y-77517220D01*
X77128486Y-77965248D01*
X78232000Y-79068762D01*
X78232000Y-80053836D01*
X77128486Y-81157350D01*
X76829122Y-81605378D01*
X76724000Y-82133864D01*
X76724000Y-102685757D01*
X76808632Y-103111231D01*
X76829122Y-103214243D01*
X77128486Y-103662271D01*
X81057959Y-107591745D01*
X81505988Y-107891109D01*
X82034474Y-107996230D01*
X82427000Y-107918153D01*
X82427000Y-115943631D01*
X82384523Y-115986108D01*
X82356915Y-115944790D01*
X82208978Y-115845942D01*
X82034474Y-115811231D01*
X81859970Y-115845942D01*
X81712033Y-115944790D01*
X81613185Y-116092727D01*
X81578474Y-116267231D01*
X81578474Y-116319231D01*
X81526474Y-116319231D01*
X81351970Y-116353942D01*
X81204033Y-116452790D01*
X81105185Y-116600727D01*
X81070474Y-116775231D01*
X81105185Y-116949735D01*
X81204033Y-117097672D01*
X81245352Y-117125280D01*
X80129815Y-118240817D01*
X79993031Y-118445528D01*
X79944999Y-118687001D01*
X79944999Y-130789001D01*
X79979133Y-130960602D01*
X79993031Y-131030474D01*
X80129815Y-131235185D01*
X80219814Y-131325185D01*
X80424525Y-131461969D01*
X80464588Y-131469938D01*
X80665999Y-131510001D01*
X80733831Y-131510001D01*
X82388111Y-133164281D01*
X81128943Y-133164281D01*
X80987753Y-133190848D01*
X80858078Y-133274291D01*
X80771084Y-133401611D01*
X80740479Y-133552745D01*
X80740479Y-135584745D01*
X80767046Y-135725935D01*
X80850489Y-135855610D01*
X80977809Y-135942604D01*
X81128943Y-135973209D01*
X82529015Y-135973209D01*
X84454602Y-137898796D01*
X84618760Y-138008483D01*
X84812398Y-138047000D01*
X85418696Y-138047000D01*
X84994120Y-138471576D01*
X84532543Y-138379762D01*
X84070966Y-138471576D01*
X83701738Y-138102348D01*
X83537580Y-137992661D01*
X83343942Y-137954144D01*
X81422014Y-137954144D01*
X81228376Y-137992661D01*
X81064218Y-138102348D01*
X80446146Y-138720420D01*
X80336459Y-138884578D01*
X80297942Y-139078216D01*
X80297942Y-143312346D01*
X80336459Y-143505984D01*
X80446146Y-143670142D01*
X81024800Y-144248796D01*
X81188958Y-144358483D01*
X81382596Y-144397000D01*
X85345683Y-144397000D01*
X88303947Y-147355264D01*
X88468105Y-147464951D01*
X88661743Y-147503468D01*
X158020219Y-147503468D01*
X158005936Y-147574000D01*
X158005936Y-149606000D01*
X158032503Y-149747190D01*
X158115946Y-149876865D01*
X158243266Y-149963859D01*
X158394400Y-149994464D01*
X160121600Y-149994464D01*
X160262790Y-149967897D01*
X160392465Y-149884454D01*
X160479459Y-149757134D01*
X160510064Y-149606000D01*
X160510064Y-149508817D01*
X160895964Y-149940732D01*
X161423209Y-150194709D01*
X161438974Y-150197358D01*
X161671000Y-150076217D01*
X161671000Y-148717000D01*
X161651000Y-148717000D01*
X161651000Y-148463000D01*
X161671000Y-148463000D01*
X161671000Y-148443000D01*
X161925000Y-148443000D01*
X161925000Y-148463000D01*
X161945000Y-148463000D01*
X161945000Y-148717000D01*
X161925000Y-148717000D01*
X161925000Y-150076217D01*
X162157026Y-150197358D01*
X162172791Y-150194709D01*
X162700036Y-149940732D01*
X163089954Y-149504320D01*
X163185296Y-149231757D01*
X163188140Y-149246057D01*
X163457935Y-149649834D01*
X163861712Y-149919629D01*
X164338000Y-150014369D01*
X164814288Y-149919629D01*
X165218065Y-149649834D01*
X165487860Y-149246057D01*
X165582600Y-148769769D01*
X165582600Y-148410231D01*
X165487860Y-147933943D01*
X165218065Y-147530166D01*
X165178109Y-147503468D01*
X166037891Y-147503468D01*
X165997935Y-147530166D01*
X165728140Y-147933943D01*
X165633400Y-148410231D01*
X165633400Y-148769769D01*
X165728140Y-149246057D01*
X165997935Y-149649834D01*
X166401712Y-149919629D01*
X166878000Y-150014369D01*
X167354288Y-149919629D01*
X167758065Y-149649834D01*
X168027860Y-149246057D01*
X168122600Y-148769769D01*
X168122600Y-148410231D01*
X168027860Y-147933943D01*
X167758065Y-147530166D01*
X167718109Y-147503468D01*
X168577891Y-147503468D01*
X168537935Y-147530166D01*
X168268140Y-147933943D01*
X168173400Y-148410231D01*
X168173400Y-148769769D01*
X168268140Y-149246057D01*
X168537935Y-149649834D01*
X168941712Y-149919629D01*
X169418000Y-150014369D01*
X169894288Y-149919629D01*
X170298065Y-149649834D01*
X170567860Y-149246057D01*
X170662600Y-148769769D01*
X170662600Y-148410231D01*
X170567860Y-147933943D01*
X170298065Y-147530166D01*
X170258109Y-147503468D01*
X170308276Y-147503468D01*
X170796628Y-147991820D01*
X170713400Y-148410231D01*
X170713400Y-148769769D01*
X170808140Y-149246057D01*
X171077935Y-149649834D01*
X171481712Y-149919629D01*
X171958000Y-150014369D01*
X172434288Y-149919629D01*
X172838065Y-149649834D01*
X173107860Y-149246057D01*
X173202600Y-148769769D01*
X173202600Y-148410231D01*
X173107860Y-147933943D01*
X172838065Y-147530166D01*
X172434288Y-147260371D01*
X171958000Y-147165631D01*
X171493932Y-147257940D01*
X171289451Y-147053459D01*
X172398267Y-147053459D01*
X173336628Y-147991820D01*
X173253400Y-148410231D01*
X173253400Y-148769769D01*
X173348140Y-149246057D01*
X173617935Y-149649834D01*
X174021712Y-149919629D01*
X174498000Y-150014369D01*
X174974288Y-149919629D01*
X175378065Y-149649834D01*
X175647860Y-149246057D01*
X175742600Y-148769769D01*
X175742600Y-148410231D01*
X175793400Y-148410231D01*
X175793400Y-148769769D01*
X175888140Y-149246057D01*
X176157935Y-149649834D01*
X176561712Y-149919629D01*
X177038000Y-150014369D01*
X177514288Y-149919629D01*
X177918065Y-149649834D01*
X178187860Y-149246057D01*
X178217708Y-149096000D01*
X178708073Y-149096000D01*
X178724103Y-149181190D01*
X178807546Y-149310865D01*
X178934866Y-149397859D01*
X179086000Y-149428464D01*
X179586000Y-149428464D01*
X179727190Y-149401897D01*
X179856865Y-149318454D01*
X179943859Y-149191134D01*
X179974464Y-149040000D01*
X179974464Y-148140000D01*
X180197536Y-148140000D01*
X180197536Y-149040000D01*
X180224103Y-149181190D01*
X180307546Y-149310865D01*
X180434866Y-149397859D01*
X180586000Y-149428464D01*
X181086000Y-149428464D01*
X181227190Y-149401897D01*
X181356865Y-149318454D01*
X181408059Y-149243530D01*
X181473930Y-149270882D01*
X181744849Y-149271118D01*
X181995236Y-149167661D01*
X182186971Y-148976259D01*
X182290866Y-148726054D01*
X182291102Y-148455135D01*
X182187645Y-148204748D01*
X181996243Y-148013013D01*
X181746038Y-147909118D01*
X181475119Y-147908882D01*
X181407902Y-147936655D01*
X181364454Y-147869135D01*
X181237134Y-147782141D01*
X181086000Y-147751536D01*
X180586000Y-147751536D01*
X180444810Y-147778103D01*
X180315135Y-147861546D01*
X180228141Y-147988866D01*
X180197536Y-148140000D01*
X179974464Y-148140000D01*
X179947897Y-147998810D01*
X179864454Y-147869135D01*
X179737134Y-147782141D01*
X179586000Y-147751536D01*
X179086000Y-147751536D01*
X178944810Y-147778103D01*
X178815135Y-147861546D01*
X178728141Y-147988866D01*
X178708876Y-148084000D01*
X178217708Y-148084000D01*
X178187860Y-147933943D01*
X177918065Y-147530166D01*
X177514288Y-147260371D01*
X177038000Y-147165631D01*
X176561712Y-147260371D01*
X176157935Y-147530166D01*
X175888140Y-147933943D01*
X175793400Y-148410231D01*
X175742600Y-148410231D01*
X175647860Y-147933943D01*
X175378065Y-147530166D01*
X174974288Y-147260371D01*
X174498000Y-147165631D01*
X174033932Y-147257940D01*
X172965655Y-146189663D01*
X172801497Y-146079976D01*
X172607859Y-146041459D01*
X121337586Y-146041459D01*
X124944796Y-142434249D01*
X125054483Y-142270091D01*
X125093000Y-142076453D01*
X125093000Y-137319026D01*
X125212302Y-137438327D01*
X125445691Y-137535000D01*
X125686250Y-137535000D01*
X125845000Y-137376250D01*
X125845000Y-136652000D01*
X126099000Y-136652000D01*
X126099000Y-137376250D01*
X126257750Y-137535000D01*
X126498309Y-137535000D01*
X126643016Y-137475060D01*
X208961545Y-137475060D01*
X209044884Y-137728953D01*
X209609306Y-137934590D01*
X210209458Y-137908579D01*
X210643116Y-137728953D01*
X210726455Y-137475060D01*
X209844000Y-136592605D01*
X208961545Y-137475060D01*
X126643016Y-137475060D01*
X126731698Y-137438327D01*
X126910327Y-137259699D01*
X127007000Y-137026310D01*
X127007000Y-136810750D01*
X126848250Y-136652000D01*
X126099000Y-136652000D01*
X125845000Y-136652000D01*
X125825000Y-136652000D01*
X125825000Y-136398000D01*
X125845000Y-136398000D01*
X125845000Y-135673750D01*
X126099000Y-135673750D01*
X126099000Y-136398000D01*
X126848250Y-136398000D01*
X127007000Y-136239250D01*
X127007000Y-136178306D01*
X208322410Y-136178306D01*
X208348421Y-136778458D01*
X208528047Y-137212116D01*
X208781940Y-137295455D01*
X209664395Y-136413000D01*
X210023605Y-136413000D01*
X210906060Y-137295455D01*
X211159953Y-137212116D01*
X211360473Y-136661738D01*
X213587783Y-136661738D01*
X213778595Y-137123537D01*
X214131604Y-137477164D01*
X214593070Y-137668781D01*
X215092738Y-137669217D01*
X215554537Y-137478405D01*
X215908164Y-137125396D01*
X216099781Y-136663930D01*
X216100217Y-136164262D01*
X215909405Y-135702463D01*
X215556396Y-135348836D01*
X215094930Y-135157219D01*
X214595262Y-135156783D01*
X214133463Y-135347595D01*
X213779836Y-135700604D01*
X213588219Y-136162070D01*
X213587783Y-136661738D01*
X211360473Y-136661738D01*
X211365590Y-136647694D01*
X211339579Y-136047542D01*
X211159953Y-135613884D01*
X210906060Y-135530545D01*
X210023605Y-136413000D01*
X209664395Y-136413000D01*
X208781940Y-135530545D01*
X208528047Y-135613884D01*
X208322410Y-136178306D01*
X127007000Y-136178306D01*
X127007000Y-136023690D01*
X126910327Y-135790301D01*
X126731698Y-135611673D01*
X126498309Y-135515000D01*
X126257750Y-135515000D01*
X126099000Y-135673750D01*
X125845000Y-135673750D01*
X125686250Y-135515000D01*
X125445691Y-135515000D01*
X125212302Y-135611673D01*
X125093000Y-135730974D01*
X125093000Y-135362927D01*
X125156703Y-135350940D01*
X208961545Y-135350940D01*
X209844000Y-136233395D01*
X210726455Y-135350940D01*
X210643116Y-135097047D01*
X210078694Y-134891410D01*
X209478542Y-134917421D01*
X209044884Y-135097047D01*
X208961545Y-135350940D01*
X125156703Y-135350940D01*
X125178190Y-135346897D01*
X125307865Y-135263454D01*
X125394859Y-135136134D01*
X125425464Y-134985000D01*
X125425464Y-134485000D01*
X125398897Y-134343810D01*
X125315454Y-134214135D01*
X125188134Y-134127141D01*
X125037000Y-134096536D01*
X124137000Y-134096536D01*
X123995810Y-134123103D01*
X123866135Y-134206546D01*
X123779141Y-134333866D01*
X123748536Y-134485000D01*
X123748536Y-134598749D01*
X123726501Y-134481645D01*
X123750885Y-134361233D01*
X123750885Y-133811233D01*
X123724318Y-133670043D01*
X123640875Y-133540368D01*
X123513555Y-133453374D01*
X123362421Y-133422769D01*
X123040879Y-133422769D01*
X123029904Y-133367595D01*
X122920217Y-133203437D01*
X122658554Y-132941774D01*
X122658554Y-131472693D01*
X122667149Y-131476262D01*
X122685910Y-131476278D01*
X123896584Y-132686953D01*
X123866135Y-132706546D01*
X123779141Y-132833866D01*
X123748536Y-132985000D01*
X123748536Y-133485000D01*
X123775103Y-133626190D01*
X123858546Y-133755865D01*
X123985866Y-133842859D01*
X124137000Y-133873464D01*
X125037000Y-133873464D01*
X125178190Y-133846897D01*
X125307865Y-133763454D01*
X125394859Y-133636134D01*
X125425464Y-133485000D01*
X125425464Y-132985000D01*
X125398897Y-132843810D01*
X125315454Y-132714135D01*
X125218000Y-132647548D01*
X125218000Y-132485000D01*
X125169968Y-132243527D01*
X125033185Y-132038816D01*
X123343564Y-130349196D01*
X123272910Y-130301987D01*
X123189462Y-130218393D01*
X123129326Y-130193422D01*
X123909748Y-129413000D01*
X203716353Y-129413000D01*
X203897596Y-130324169D01*
X204413732Y-131096621D01*
X205186184Y-131612757D01*
X206097353Y-131794000D01*
X206190647Y-131794000D01*
X207101816Y-131612757D01*
X207874268Y-131096621D01*
X208390404Y-130324169D01*
X208571647Y-129413000D01*
X216116353Y-129413000D01*
X216297596Y-130324169D01*
X216813732Y-131096621D01*
X217586184Y-131612757D01*
X218497353Y-131794000D01*
X218590647Y-131794000D01*
X219501816Y-131612757D01*
X220274268Y-131096621D01*
X220790404Y-130324169D01*
X220971647Y-129413000D01*
X220790404Y-128501831D01*
X220274268Y-127729379D01*
X219501816Y-127213243D01*
X218590647Y-127032000D01*
X218497353Y-127032000D01*
X217586184Y-127213243D01*
X216813732Y-127729379D01*
X216297596Y-128501831D01*
X216116353Y-129413000D01*
X208571647Y-129413000D01*
X208390404Y-128501831D01*
X207874268Y-127729379D01*
X207101816Y-127213243D01*
X206190647Y-127032000D01*
X206097353Y-127032000D01*
X205186184Y-127213243D01*
X204413732Y-127729379D01*
X203897596Y-128501831D01*
X203716353Y-129413000D01*
X123909748Y-129413000D01*
X129703747Y-123619001D01*
X213643999Y-123619001D01*
X213837637Y-123580484D01*
X214001795Y-123470797D01*
X214388681Y-123083911D01*
X214593070Y-123168781D01*
X215092738Y-123169217D01*
X215554537Y-122978405D01*
X215908164Y-122625396D01*
X216099781Y-122163930D01*
X216100217Y-121664262D01*
X215909405Y-121202463D01*
X215556396Y-120848836D01*
X215094930Y-120657219D01*
X214595262Y-120656783D01*
X214133463Y-120847595D01*
X213779836Y-121200604D01*
X213737803Y-121301831D01*
X213659953Y-121113884D01*
X213406060Y-121030545D01*
X212523605Y-121913000D01*
X212537748Y-121927143D01*
X212358143Y-122106748D01*
X212344000Y-122092605D01*
X212329858Y-122106748D01*
X212150253Y-121927143D01*
X212164395Y-121913000D01*
X211281940Y-121030545D01*
X211028047Y-121113884D01*
X210955304Y-121313546D01*
X210909405Y-121202463D01*
X210558497Y-120850940D01*
X211461545Y-120850940D01*
X212344000Y-121733395D01*
X213226455Y-120850940D01*
X213143116Y-120597047D01*
X212578694Y-120391410D01*
X211978542Y-120417421D01*
X211544884Y-120597047D01*
X211461545Y-120850940D01*
X210558497Y-120850940D01*
X210556396Y-120848836D01*
X210094930Y-120657219D01*
X209595262Y-120656783D01*
X209133463Y-120847595D01*
X208779836Y-121200604D01*
X208694133Y-121407000D01*
X208606564Y-121407000D01*
X208412926Y-121445517D01*
X208248768Y-121555204D01*
X207653641Y-122150331D01*
X129242323Y-122150331D01*
X129048685Y-122188848D01*
X128884527Y-122298535D01*
X119961884Y-131221178D01*
X119913731Y-131201233D01*
X119897380Y-131201233D01*
X119905885Y-131159233D01*
X119905885Y-130359233D01*
X119879318Y-130218043D01*
X119868449Y-130201152D01*
X119877120Y-130197560D01*
X120055748Y-130018931D01*
X120152421Y-129785542D01*
X120152421Y-129544983D01*
X119993671Y-129386233D01*
X119269421Y-129386233D01*
X119269421Y-129406233D01*
X119015421Y-129406233D01*
X119015421Y-129386233D01*
X118291171Y-129386233D01*
X118132421Y-129544983D01*
X118132421Y-129785542D01*
X118146901Y-129820500D01*
X118027542Y-129770937D01*
X117756623Y-129770701D01*
X117739421Y-129777809D01*
X117739421Y-129544983D01*
X117580671Y-129386233D01*
X116856421Y-129386233D01*
X116856421Y-129406233D01*
X116602421Y-129406233D01*
X116602421Y-129386233D01*
X116582421Y-129386233D01*
X116582421Y-129132233D01*
X116602421Y-129132233D01*
X116602421Y-128382983D01*
X116856421Y-128382983D01*
X116856421Y-129132233D01*
X117580671Y-129132233D01*
X117739421Y-128973483D01*
X117739421Y-128732924D01*
X118132421Y-128732924D01*
X118132421Y-128973483D01*
X118291171Y-129132233D01*
X119015421Y-129132233D01*
X119015421Y-128382983D01*
X119269421Y-128382983D01*
X119269421Y-129132233D01*
X119993671Y-129132233D01*
X120152421Y-128973483D01*
X120152421Y-128732924D01*
X120055748Y-128499535D01*
X119877120Y-128320906D01*
X119643731Y-128224233D01*
X119428171Y-128224233D01*
X119269421Y-128382983D01*
X119015421Y-128382983D01*
X118856671Y-128224233D01*
X118641111Y-128224233D01*
X118407722Y-128320906D01*
X118229094Y-128499535D01*
X118132421Y-128732924D01*
X117739421Y-128732924D01*
X117642748Y-128499535D01*
X117464120Y-128320906D01*
X117230731Y-128224233D01*
X117015171Y-128224233D01*
X116856421Y-128382983D01*
X116602421Y-128382983D01*
X116535420Y-128315982D01*
X116535420Y-127585578D01*
X116717736Y-127403262D01*
X116827423Y-127239104D01*
X116865940Y-127045466D01*
X116865940Y-126999286D01*
X117000086Y-126943858D01*
X117318679Y-126625820D01*
X117491313Y-126210071D01*
X117491706Y-125759904D01*
X117319798Y-125343854D01*
X117001760Y-125025261D01*
X116586011Y-124852627D01*
X116135844Y-124852234D01*
X115719794Y-125024142D01*
X115401201Y-125342180D01*
X115228567Y-125757929D01*
X115228174Y-126208096D01*
X115400082Y-126624146D01*
X115718120Y-126942739D01*
X115738579Y-126951235D01*
X115671624Y-127018190D01*
X115561937Y-127182348D01*
X115523420Y-127375986D01*
X115523420Y-128251000D01*
X115347750Y-128251000D01*
X115189000Y-128409750D01*
X115189000Y-129159000D01*
X115209000Y-129159000D01*
X115209000Y-129413000D01*
X115189000Y-129413000D01*
X115189000Y-129433000D01*
X114935000Y-129433000D01*
X114935000Y-129413000D01*
X113538000Y-129413000D01*
X113538000Y-129433000D01*
X113284000Y-129433000D01*
X113284000Y-129413000D01*
X112559750Y-129413000D01*
X112401000Y-129571750D01*
X112401000Y-129685408D01*
X111984060Y-129268468D01*
X111984060Y-128759691D01*
X112401000Y-128759691D01*
X112401000Y-129000250D01*
X112559750Y-129159000D01*
X113284000Y-129159000D01*
X113284000Y-128409750D01*
X113538000Y-128409750D01*
X113538000Y-129159000D01*
X114935000Y-129159000D01*
X114935000Y-128409750D01*
X114776250Y-128251000D01*
X114560690Y-128251000D01*
X114327301Y-128347673D01*
X114236500Y-128438475D01*
X114145699Y-128347673D01*
X113912310Y-128251000D01*
X113696750Y-128251000D01*
X113538000Y-128409750D01*
X113284000Y-128409750D01*
X113125250Y-128251000D01*
X112909690Y-128251000D01*
X112676301Y-128347673D01*
X112497673Y-128526302D01*
X112401000Y-128759691D01*
X111984060Y-128759691D01*
X111984060Y-126999286D01*
X112118206Y-126943858D01*
X112436799Y-126625820D01*
X112609433Y-126210071D01*
X112609826Y-125759904D01*
X112437918Y-125343854D01*
X112119880Y-125025261D01*
X111704131Y-124852627D01*
X111253964Y-124852234D01*
X110837914Y-125024142D01*
X110519321Y-125342180D01*
X110346687Y-125757929D01*
X110346294Y-126208096D01*
X110518202Y-126624146D01*
X110836240Y-126942739D01*
X110972060Y-126999136D01*
X110972060Y-129478060D01*
X111010577Y-129671698D01*
X111120264Y-129835856D01*
X112428204Y-131143796D01*
X112592362Y-131253483D01*
X112662873Y-131267509D01*
X112674103Y-131327190D01*
X112757546Y-131456865D01*
X112884866Y-131543859D01*
X113036000Y-131574464D01*
X113210060Y-131574464D01*
X114629625Y-132994029D01*
X114793783Y-133103716D01*
X114848957Y-133114691D01*
X114848957Y-133422769D01*
X113262421Y-133422769D01*
X113121231Y-133449336D01*
X112991556Y-133532779D01*
X112904562Y-133660099D01*
X112873957Y-133811233D01*
X112873957Y-134361233D01*
X112898341Y-134490821D01*
X112873957Y-134611233D01*
X112873957Y-135161233D01*
X112898341Y-135290821D01*
X112873957Y-135411233D01*
X112873957Y-135632177D01*
X104264984Y-127023204D01*
X104100826Y-126913517D01*
X103907188Y-126875000D01*
X103896594Y-126877107D01*
X103886000Y-126875000D01*
X103659511Y-126875000D01*
X103659511Y-126380271D01*
X103632944Y-126239081D01*
X103549501Y-126109406D01*
X103422181Y-126022412D01*
X103327047Y-126003147D01*
X103327047Y-125974138D01*
X103461190Y-125948897D01*
X103590865Y-125865454D01*
X103606207Y-125843000D01*
X103909981Y-125843000D01*
X103919546Y-125857865D01*
X104046866Y-125944859D01*
X104198000Y-125975464D01*
X105098000Y-125975464D01*
X105239190Y-125948897D01*
X105368865Y-125865454D01*
X105455859Y-125738134D01*
X105486464Y-125587000D01*
X105486464Y-125087000D01*
X105459897Y-124945810D01*
X105376454Y-124816135D01*
X105249134Y-124729141D01*
X105213870Y-124722000D01*
X105224310Y-124722000D01*
X105457699Y-124625327D01*
X105636327Y-124446698D01*
X105733000Y-124213309D01*
X105733000Y-124120750D01*
X105574250Y-123962000D01*
X104775000Y-123962000D01*
X104775000Y-123984000D01*
X104521000Y-123984000D01*
X104521000Y-123962000D01*
X104501000Y-123962000D01*
X104501000Y-123712000D01*
X104521000Y-123712000D01*
X104521000Y-123690000D01*
X104775000Y-123690000D01*
X104775000Y-123712000D01*
X105574250Y-123712000D01*
X105733000Y-123553250D01*
X105733000Y-123460691D01*
X105636327Y-123227302D01*
X105457699Y-123048673D01*
X105402475Y-123025798D01*
X105495047Y-122802310D01*
X105495047Y-122586750D01*
X105336297Y-122428000D01*
X104587047Y-122428000D01*
X104587047Y-122448000D01*
X104333047Y-122448000D01*
X104333047Y-122428000D01*
X104313047Y-122428000D01*
X104313047Y-122174000D01*
X104333047Y-122174000D01*
X104333047Y-121449750D01*
X104587047Y-121449750D01*
X104587047Y-122174000D01*
X105336297Y-122174000D01*
X105495047Y-122015250D01*
X105495047Y-121799690D01*
X105398374Y-121566301D01*
X105219745Y-121387673D01*
X104986356Y-121291000D01*
X104745797Y-121291000D01*
X104587047Y-121449750D01*
X104333047Y-121449750D01*
X104174297Y-121291000D01*
X103933738Y-121291000D01*
X103700349Y-121387673D01*
X103521720Y-121566301D01*
X103518801Y-121573348D01*
X103511181Y-121568141D01*
X103466047Y-121559001D01*
X103466047Y-120896545D01*
X109403342Y-114959250D01*
X113368784Y-114959250D01*
X113635950Y-115226416D01*
X113800108Y-115336103D01*
X113993746Y-115374620D01*
X115021748Y-115374620D01*
X115215386Y-115336103D01*
X115271747Y-115298444D01*
X115271747Y-116334155D01*
X115157745Y-116220153D01*
X114993587Y-116110466D01*
X114799949Y-116071949D01*
X111996808Y-116071949D01*
X111987243Y-116057084D01*
X111859923Y-115970090D01*
X111824659Y-115962949D01*
X111835099Y-115962949D01*
X112068488Y-115866276D01*
X112247116Y-115687647D01*
X112343789Y-115454258D01*
X112343789Y-115361699D01*
X112185039Y-115202949D01*
X111385789Y-115202949D01*
X111385789Y-115224949D01*
X111131789Y-115224949D01*
X111131789Y-115202949D01*
X110332539Y-115202949D01*
X110173789Y-115361699D01*
X110173789Y-115454258D01*
X110270462Y-115687647D01*
X110449090Y-115866276D01*
X110682479Y-115962949D01*
X110684090Y-115962949D01*
X110667599Y-115966052D01*
X110537924Y-116049495D01*
X110450930Y-116176815D01*
X110420325Y-116327949D01*
X110420325Y-116827949D01*
X110446892Y-116969139D01*
X110530335Y-117098814D01*
X110622714Y-117161934D01*
X110537924Y-117216495D01*
X110450930Y-117343815D01*
X110420325Y-117494949D01*
X110420325Y-117994949D01*
X110446892Y-118136139D01*
X110530335Y-118265814D01*
X110657655Y-118352808D01*
X110808789Y-118383413D01*
X111708789Y-118383413D01*
X111849979Y-118356846D01*
X111979654Y-118273403D01*
X112066648Y-118146083D01*
X112097253Y-117994949D01*
X112097253Y-117494949D01*
X112070686Y-117353759D01*
X111987243Y-117224084D01*
X111894864Y-117160964D01*
X111979654Y-117106403D01*
X111994996Y-117083949D01*
X114590357Y-117083949D01*
X115271747Y-117765339D01*
X115271747Y-119460026D01*
X115252882Y-119472165D01*
X115165888Y-119599485D01*
X115143021Y-119712407D01*
X115123644Y-119609429D01*
X115040201Y-119479754D01*
X115004783Y-119455554D01*
X114975230Y-119306981D01*
X114865543Y-119142823D01*
X114609873Y-118887153D01*
X114445715Y-118777466D01*
X114252077Y-118738949D01*
X111996808Y-118738949D01*
X111987243Y-118724084D01*
X111859923Y-118637090D01*
X111708789Y-118606485D01*
X110808789Y-118606485D01*
X110667599Y-118633052D01*
X110537924Y-118716495D01*
X110450930Y-118843815D01*
X110420325Y-118994949D01*
X110420325Y-119494949D01*
X110446892Y-119636139D01*
X110530335Y-119765814D01*
X110657655Y-119852808D01*
X110808789Y-119883413D01*
X111708789Y-119883413D01*
X111849979Y-119856846D01*
X111979654Y-119773403D01*
X111994996Y-119750949D01*
X113865283Y-119750949D01*
X113865283Y-120893619D01*
X113891850Y-121034809D01*
X113896300Y-121041725D01*
X113848693Y-121156376D01*
X113848457Y-121427295D01*
X113951914Y-121677682D01*
X114143316Y-121869417D01*
X114393521Y-121973312D01*
X114664440Y-121973548D01*
X114914827Y-121870091D01*
X115106562Y-121678689D01*
X115210457Y-121428484D01*
X115210693Y-121157565D01*
X115134234Y-120972518D01*
X115142473Y-120931831D01*
X115161850Y-121034809D01*
X115245293Y-121164484D01*
X115372613Y-121251478D01*
X115523747Y-121282083D01*
X116031747Y-121282083D01*
X116172937Y-121255516D01*
X116302612Y-121172073D01*
X116389606Y-121044753D01*
X116412473Y-120931831D01*
X116431850Y-121034809D01*
X116515293Y-121164484D01*
X116642613Y-121251478D01*
X116793747Y-121282083D01*
X117301747Y-121282083D01*
X117442937Y-121255516D01*
X117508781Y-121213147D01*
X117525420Y-121253318D01*
X117704049Y-121431946D01*
X117937438Y-121528619D01*
X118031997Y-121528619D01*
X118190747Y-121369869D01*
X118190747Y-120449119D01*
X118170747Y-120449119D01*
X118170747Y-120195119D01*
X118190747Y-120195119D01*
X118190747Y-119274369D01*
X118444747Y-119274369D01*
X118444747Y-120195119D01*
X118464747Y-120195119D01*
X118464747Y-120449119D01*
X118444747Y-120449119D01*
X118444747Y-121369869D01*
X118603497Y-121528619D01*
X118698056Y-121528619D01*
X118931445Y-121431946D01*
X119110074Y-121253318D01*
X119126669Y-121213253D01*
X119182613Y-121251478D01*
X119333747Y-121282083D01*
X119841747Y-121282083D01*
X119982937Y-121255516D01*
X120112612Y-121172073D01*
X120199606Y-121044753D01*
X120222473Y-120931831D01*
X120241850Y-121034809D01*
X120325293Y-121164484D01*
X120452613Y-121251478D01*
X120603747Y-121282083D01*
X121111747Y-121282083D01*
X121252937Y-121255516D01*
X121382612Y-121172073D01*
X121469606Y-121044753D01*
X121492473Y-120931831D01*
X121511850Y-121034809D01*
X121595293Y-121164484D01*
X121722613Y-121251478D01*
X121873747Y-121282083D01*
X122381747Y-121282083D01*
X122522937Y-121255516D01*
X122652612Y-121172073D01*
X122739606Y-121044753D01*
X122770211Y-120893619D01*
X122770211Y-119750619D01*
X122743644Y-119609429D01*
X122660201Y-119479754D01*
X122532881Y-119392760D01*
X122381747Y-119362155D01*
X121873747Y-119362155D01*
X121732557Y-119388722D01*
X121602882Y-119472165D01*
X121515888Y-119599485D01*
X121493021Y-119712407D01*
X121473644Y-119609429D01*
X121390201Y-119479754D01*
X121262881Y-119392760D01*
X121111747Y-119362155D01*
X120603747Y-119362155D01*
X120462557Y-119388722D01*
X120332882Y-119472165D01*
X120245888Y-119599485D01*
X120223021Y-119712407D01*
X120203644Y-119609429D01*
X120120201Y-119479754D01*
X119992881Y-119392760D01*
X119841747Y-119362155D01*
X119333747Y-119362155D01*
X119192557Y-119388722D01*
X119126713Y-119431091D01*
X119110074Y-119390920D01*
X118931445Y-119212292D01*
X118698056Y-119115619D01*
X118603497Y-119115619D01*
X118444747Y-119274369D01*
X118190747Y-119274369D01*
X118031997Y-119115619D01*
X117937438Y-119115619D01*
X117704049Y-119212292D01*
X117525420Y-119390920D01*
X117508825Y-119430985D01*
X117452881Y-119392760D01*
X117301747Y-119362155D01*
X116838000Y-119362155D01*
X116838000Y-117361078D01*
X116799483Y-117167440D01*
X116689796Y-117003282D01*
X116283747Y-116597233D01*
X116283747Y-115374620D01*
X133436748Y-115374620D01*
X133630386Y-115336103D01*
X133794544Y-115226416D01*
X143232796Y-105788164D01*
X143342483Y-105624006D01*
X143381000Y-105430368D01*
X143381000Y-101092513D01*
X143988674Y-101092513D01*
X144274436Y-101784109D01*
X144803108Y-102313704D01*
X145494204Y-102600673D01*
X146242513Y-102601326D01*
X146934109Y-102315564D01*
X147463704Y-101786892D01*
X147750673Y-101095796D01*
X147750675Y-101092513D01*
X186988674Y-101092513D01*
X187274436Y-101784109D01*
X187803108Y-102313704D01*
X188494204Y-102600673D01*
X189242513Y-102601326D01*
X189934109Y-102315564D01*
X190463704Y-101786892D01*
X190750673Y-101095796D01*
X190751326Y-100347487D01*
X190465564Y-99655891D01*
X189936892Y-99126296D01*
X189245796Y-98839327D01*
X188497487Y-98838674D01*
X187805891Y-99124436D01*
X187276296Y-99653108D01*
X186989327Y-100344204D01*
X186988674Y-101092513D01*
X147750675Y-101092513D01*
X147751326Y-100347487D01*
X147465564Y-99655891D01*
X146936892Y-99126296D01*
X146245796Y-98839327D01*
X145497487Y-98838674D01*
X144805891Y-99124436D01*
X144276296Y-99653108D01*
X143989327Y-100344204D01*
X143988674Y-101092513D01*
X143381000Y-101092513D01*
X143381000Y-92876463D01*
X143730074Y-92527389D01*
X143844296Y-92698335D01*
X143876913Y-92730951D01*
X143876915Y-92730954D01*
X144811579Y-93355476D01*
X145914090Y-93574779D01*
X188913604Y-93574779D01*
X188913609Y-93574780D01*
X189355968Y-93486789D01*
X191191782Y-93486789D01*
X191191787Y-93486790D01*
X192294298Y-93267486D01*
X193228962Y-92642964D01*
X197935781Y-87936144D01*
X197935784Y-87936142D01*
X198560306Y-87001478D01*
X198598993Y-86806986D01*
X198672003Y-86439938D01*
X225478055Y-86439938D01*
X225564461Y-86696422D01*
X226137945Y-86906237D01*
X226748069Y-86880618D01*
X227192757Y-86696422D01*
X227279163Y-86439938D01*
X226378609Y-85539384D01*
X225478055Y-86439938D01*
X198672003Y-86439938D01*
X198779610Y-85898967D01*
X198779609Y-85898962D01*
X198779609Y-85119115D01*
X224832151Y-85119115D01*
X224857770Y-85729239D01*
X225041966Y-86173927D01*
X225298450Y-86260333D01*
X226199004Y-85359779D01*
X226558214Y-85359779D01*
X227458768Y-86260333D01*
X227715252Y-86173927D01*
X227925067Y-85600443D01*
X227899448Y-84990319D01*
X227715252Y-84545631D01*
X227458768Y-84459225D01*
X226558214Y-85359779D01*
X226199004Y-85359779D01*
X225298450Y-84459225D01*
X225041966Y-84545631D01*
X224832151Y-85119115D01*
X198779609Y-85119115D01*
X198779609Y-84279620D01*
X225478055Y-84279620D01*
X226378609Y-85180174D01*
X227279163Y-84279620D01*
X227192757Y-84023136D01*
X226619273Y-83813321D01*
X226009149Y-83838940D01*
X225564461Y-84023136D01*
X225478055Y-84279620D01*
X198779609Y-84279620D01*
X198779609Y-75009938D01*
X225478055Y-75009938D01*
X225564461Y-75266422D01*
X226137945Y-75476237D01*
X226748069Y-75450618D01*
X227192757Y-75266422D01*
X227279163Y-75009938D01*
X226378609Y-74109384D01*
X225478055Y-75009938D01*
X198779609Y-75009938D01*
X198779609Y-73689115D01*
X224832151Y-73689115D01*
X224857770Y-74299239D01*
X225041966Y-74743927D01*
X225298450Y-74830333D01*
X226199004Y-73929779D01*
X226558214Y-73929779D01*
X227458768Y-74830333D01*
X227715252Y-74743927D01*
X227925067Y-74170443D01*
X227899448Y-73560319D01*
X227715252Y-73115631D01*
X227458768Y-73029225D01*
X226558214Y-73929779D01*
X226199004Y-73929779D01*
X225298450Y-73029225D01*
X225041966Y-73115631D01*
X224832151Y-73689115D01*
X198779609Y-73689115D01*
X198779609Y-72849620D01*
X225478055Y-72849620D01*
X226378609Y-73750174D01*
X227279163Y-72849620D01*
X227192757Y-72593136D01*
X226619273Y-72383321D01*
X226009149Y-72408940D01*
X225564461Y-72593136D01*
X225478055Y-72849620D01*
X198779609Y-72849620D01*
X198779609Y-63579938D01*
X225478055Y-63579938D01*
X225564461Y-63836422D01*
X226137945Y-64046237D01*
X226748069Y-64020618D01*
X227192757Y-63836422D01*
X227279163Y-63579938D01*
X226378609Y-62679384D01*
X225478055Y-63579938D01*
X198779609Y-63579938D01*
X198779609Y-62499779D01*
X198731738Y-62259115D01*
X224832151Y-62259115D01*
X224857770Y-62869239D01*
X225041966Y-63313927D01*
X225298450Y-63400333D01*
X226199004Y-62499779D01*
X226558214Y-62499779D01*
X227458768Y-63400333D01*
X227715252Y-63313927D01*
X227925067Y-62740443D01*
X227899448Y-62130319D01*
X227715252Y-61685631D01*
X227458768Y-61599225D01*
X226558214Y-62499779D01*
X226199004Y-62499779D01*
X225298450Y-61599225D01*
X225041966Y-61685631D01*
X224832151Y-62259115D01*
X198731738Y-62259115D01*
X198564753Y-61419620D01*
X225478055Y-61419620D01*
X226378609Y-62320174D01*
X227279163Y-61419620D01*
X227192757Y-61163136D01*
X226619273Y-60953321D01*
X226009149Y-60978940D01*
X225564461Y-61163136D01*
X225478055Y-61419620D01*
X198564753Y-61419620D01*
X198560306Y-61397268D01*
X197935784Y-60462604D01*
X197001120Y-59838082D01*
X195898609Y-59618779D01*
X194796098Y-59838082D01*
X193861434Y-60462604D01*
X193236912Y-61397268D01*
X193017609Y-62499779D01*
X193017609Y-84705618D01*
X191312493Y-86410733D01*
X191704567Y-85823953D01*
X191847421Y-85105779D01*
X191704567Y-84387605D01*
X191297754Y-83778766D01*
X190688915Y-83371953D01*
X189970741Y-83229099D01*
X187856477Y-83229099D01*
X187138303Y-83371953D01*
X186529464Y-83778766D01*
X186122651Y-84387605D01*
X185979797Y-85105779D01*
X186122651Y-85823953D01*
X186529464Y-86432792D01*
X187138303Y-86839605D01*
X187856477Y-86982459D01*
X189970741Y-86982459D01*
X190688915Y-86839605D01*
X191275695Y-86447531D01*
X189998437Y-87724789D01*
X189001604Y-87724789D01*
X189001599Y-87724788D01*
X188559240Y-87812779D01*
X146045462Y-87812779D01*
X145881471Y-87780159D01*
X144778960Y-87999463D01*
X143844296Y-88623985D01*
X143219774Y-89558649D01*
X143000470Y-90661160D01*
X143193698Y-91632581D01*
X142517204Y-92309075D01*
X142407517Y-92473233D01*
X142369000Y-92666871D01*
X142369000Y-105220776D01*
X133227156Y-114362620D01*
X122770211Y-114362620D01*
X122770211Y-113400619D01*
X122752383Y-113305874D01*
X122808629Y-113170420D01*
X122808865Y-112899501D01*
X122705408Y-112649114D01*
X122633747Y-112577328D01*
X122633747Y-105384504D01*
X142948297Y-85069954D01*
X142947659Y-85073160D01*
X143090513Y-85791334D01*
X143497326Y-86400173D01*
X144106165Y-86806986D01*
X144824339Y-86949840D01*
X146938603Y-86949840D01*
X147656777Y-86806986D01*
X148265616Y-86400173D01*
X148672429Y-85791334D01*
X148815283Y-85073160D01*
X148672429Y-84354986D01*
X148265616Y-83746147D01*
X148183083Y-83691000D01*
X182745948Y-83691000D01*
X182939586Y-83652483D01*
X183103744Y-83542796D01*
X186414819Y-80231721D01*
X186708231Y-80670844D01*
X187237262Y-81024331D01*
X187861296Y-81148459D01*
X189965922Y-81148459D01*
X190589956Y-81024331D01*
X191118987Y-80670844D01*
X191472474Y-80141813D01*
X191596602Y-79517779D01*
X191472474Y-78893745D01*
X191118987Y-78364714D01*
X190589956Y-78011227D01*
X189965922Y-77887099D01*
X187861296Y-77887099D01*
X187237262Y-78011227D01*
X186708231Y-78364714D01*
X186354744Y-78893745D01*
X186327891Y-79028742D01*
X186219531Y-79050296D01*
X186104191Y-79127364D01*
X186055373Y-79159983D01*
X182536356Y-82679000D01*
X144117659Y-82679000D01*
X143924021Y-82717517D01*
X143759863Y-82827204D01*
X121769951Y-104817116D01*
X121660264Y-104981274D01*
X121621747Y-105174912D01*
X121621747Y-112577243D01*
X121550760Y-112648107D01*
X121446865Y-112898312D01*
X121446629Y-113169231D01*
X121504015Y-113308117D01*
X121493021Y-113362407D01*
X121473644Y-113259429D01*
X121390201Y-113129754D01*
X121262881Y-113042760D01*
X121111747Y-113012155D01*
X120603747Y-113012155D01*
X120462557Y-113038722D01*
X120332882Y-113122165D01*
X120314897Y-113148486D01*
X120315118Y-112895135D01*
X120211661Y-112644748D01*
X120020259Y-112453013D01*
X119770054Y-112349118D01*
X119499135Y-112348882D01*
X119310477Y-112426833D01*
X119310477Y-111469987D01*
X119283910Y-111328797D01*
X119200467Y-111199122D01*
X119073147Y-111112128D01*
X119037883Y-111104987D01*
X119048323Y-111104987D01*
X119281712Y-111008314D01*
X119460340Y-110829685D01*
X119557013Y-110596296D01*
X119557013Y-110255737D01*
X119398263Y-110096987D01*
X118424013Y-110096987D01*
X118424013Y-110116987D01*
X118170013Y-110116987D01*
X118170013Y-110096987D01*
X117195763Y-110096987D01*
X117037013Y-110255737D01*
X117037013Y-110596296D01*
X117133686Y-110829685D01*
X117312314Y-111008314D01*
X117545703Y-111104987D01*
X117547314Y-111104987D01*
X117530823Y-111108090D01*
X117401148Y-111191533D01*
X117314154Y-111318853D01*
X117311296Y-111332968D01*
X117213135Y-111332882D01*
X116962748Y-111436339D01*
X116771013Y-111627741D01*
X116667118Y-111877946D01*
X116666882Y-112148865D01*
X116770339Y-112399252D01*
X116961741Y-112590987D01*
X117211946Y-112694882D01*
X117364064Y-112695015D01*
X117393559Y-112740852D01*
X117520879Y-112827846D01*
X117672013Y-112858451D01*
X117686747Y-112858451D01*
X117686747Y-113344007D01*
X117683021Y-113362407D01*
X117663644Y-113259429D01*
X117580201Y-113129754D01*
X117452881Y-113042760D01*
X117301747Y-113012155D01*
X117120875Y-113012155D01*
X116826542Y-112717822D01*
X116662384Y-112608135D01*
X116468746Y-112569618D01*
X115263746Y-112569618D01*
X115070108Y-112608135D01*
X115013747Y-112645794D01*
X115013747Y-109343678D01*
X117037013Y-109343678D01*
X117037013Y-109684237D01*
X117195763Y-109842987D01*
X118170013Y-109842987D01*
X118170013Y-108993737D01*
X118424013Y-108993737D01*
X118424013Y-109842987D01*
X119398263Y-109842987D01*
X119557013Y-109684237D01*
X119557013Y-109343678D01*
X119460340Y-109110289D01*
X119281712Y-108931660D01*
X119048323Y-108834987D01*
X118582763Y-108834987D01*
X118424013Y-108993737D01*
X118170013Y-108993737D01*
X118011263Y-108834987D01*
X117545703Y-108834987D01*
X117312314Y-108931660D01*
X117133686Y-109110289D01*
X117037013Y-109343678D01*
X115013747Y-109343678D01*
X115013747Y-107697845D01*
X142720432Y-79991160D01*
X143299128Y-79991160D01*
X143322606Y-80109194D01*
X143676093Y-80638225D01*
X144205124Y-80991712D01*
X144829158Y-81115840D01*
X146933784Y-81115840D01*
X147557818Y-80991712D01*
X148086849Y-80638225D01*
X148440336Y-80109194D01*
X148564464Y-79485160D01*
X148440336Y-78861126D01*
X148086849Y-78332095D01*
X147557818Y-77978608D01*
X146933784Y-77854480D01*
X144829158Y-77854480D01*
X144205124Y-77978608D01*
X143676093Y-78332095D01*
X143322606Y-78861126D01*
X143299128Y-78979160D01*
X142510840Y-78979160D01*
X142317202Y-79017677D01*
X142153044Y-79127364D01*
X114149951Y-107130457D01*
X114040264Y-107294615D01*
X114001747Y-107488253D01*
X114001747Y-111698879D01*
X105970679Y-111698879D01*
X105777041Y-111737396D01*
X105612883Y-111847083D01*
X105220451Y-112239515D01*
X105196902Y-112114361D01*
X105113459Y-111984686D01*
X104986139Y-111897692D01*
X104835005Y-111867087D01*
X104262133Y-111867087D01*
X104039061Y-111644015D01*
X104835005Y-111644015D01*
X104976195Y-111617448D01*
X105105870Y-111534005D01*
X105192864Y-111406685D01*
X105223469Y-111255551D01*
X105223469Y-110755551D01*
X105196902Y-110614361D01*
X105113459Y-110484686D01*
X104986139Y-110397692D01*
X104891005Y-110378427D01*
X104891005Y-109031298D01*
X144135963Y-69786340D01*
X144205124Y-69832552D01*
X144829158Y-69956680D01*
X146933784Y-69956680D01*
X147557818Y-69832552D01*
X148086849Y-69479065D01*
X148440336Y-68950034D01*
X148564464Y-68326000D01*
X148440336Y-67701966D01*
X148086849Y-67172935D01*
X147557818Y-66819448D01*
X146933784Y-66695320D01*
X144829158Y-66695320D01*
X144205124Y-66819448D01*
X143676093Y-67172935D01*
X143322606Y-67701966D01*
X143198478Y-68326000D01*
X143322606Y-68950034D01*
X143410116Y-69081003D01*
X104027209Y-108463910D01*
X103917522Y-108628068D01*
X103879005Y-108821706D01*
X103879005Y-110377624D01*
X103793815Y-110393654D01*
X103664140Y-110477097D01*
X103577146Y-110604417D01*
X103546541Y-110755551D01*
X103546541Y-111151495D01*
X103048581Y-110653535D01*
X102884423Y-110543848D01*
X102690785Y-110505331D01*
X102613583Y-110505331D01*
X102606952Y-110470091D01*
X102523509Y-110340416D01*
X102396189Y-110253422D01*
X102245055Y-110222817D01*
X101444955Y-110222817D01*
X101303765Y-110249384D01*
X101174090Y-110332827D01*
X101087096Y-110460147D01*
X101056491Y-110611281D01*
X101056491Y-111411381D01*
X101083058Y-111552571D01*
X101166501Y-111682246D01*
X101293821Y-111769240D01*
X101444955Y-111799845D01*
X102245055Y-111799845D01*
X102386245Y-111773278D01*
X102515920Y-111689835D01*
X102571846Y-111607984D01*
X103009939Y-112046077D01*
X102922005Y-112134011D01*
X102922005Y-112883311D01*
X102942005Y-112883311D01*
X102942005Y-113137311D01*
X102922005Y-113137311D01*
X102922005Y-113157311D01*
X102668005Y-113157311D01*
X102668005Y-113137311D01*
X101918705Y-113137311D01*
X101759955Y-113296061D01*
X101759955Y-113536671D01*
X101856628Y-113770060D01*
X101967533Y-113880964D01*
X101938070Y-114026456D01*
X101938070Y-114926456D01*
X101964637Y-115067646D01*
X102048080Y-115197321D01*
X102175400Y-115284315D01*
X102326534Y-115314920D01*
X102826534Y-115314920D01*
X102967724Y-115288353D01*
X103097399Y-115204910D01*
X103184393Y-115077590D01*
X103203658Y-114982456D01*
X103699102Y-114982456D01*
X103892740Y-114943939D01*
X104056898Y-114834252D01*
X106180271Y-112710879D01*
X114001747Y-112710879D01*
X114001747Y-113110026D01*
X113982882Y-113122165D01*
X113895888Y-113249485D01*
X113878959Y-113333085D01*
X113797259Y-113251243D01*
X113547054Y-113147348D01*
X113276135Y-113147112D01*
X113025748Y-113250569D01*
X112953962Y-113322230D01*
X108927770Y-113322230D01*
X108734132Y-113360747D01*
X108624428Y-113434049D01*
X108569974Y-113470434D01*
X100722204Y-121318204D01*
X100612517Y-121482362D01*
X100598491Y-121552873D01*
X100538810Y-121564103D01*
X100521919Y-121574972D01*
X100518327Y-121566301D01*
X100339698Y-121387673D01*
X100106309Y-121291000D01*
X99865750Y-121291000D01*
X99707000Y-121449750D01*
X99707000Y-122174000D01*
X99727000Y-122174000D01*
X99727000Y-122428000D01*
X99707000Y-122428000D01*
X99707000Y-122448000D01*
X99453000Y-122448000D01*
X99453000Y-122428000D01*
X98703750Y-122428000D01*
X98545000Y-122586750D01*
X98545000Y-122802310D01*
X98626142Y-122998205D01*
X98504301Y-123048673D01*
X98325673Y-123227302D01*
X98229000Y-123460691D01*
X98229000Y-123553250D01*
X98387750Y-123712000D01*
X99187000Y-123712000D01*
X99187000Y-123690000D01*
X99441000Y-123690000D01*
X99441000Y-123712000D01*
X99461000Y-123712000D01*
X99461000Y-123962000D01*
X99441000Y-123962000D01*
X99441000Y-123984000D01*
X99187000Y-123984000D01*
X99187000Y-123962000D01*
X98387750Y-123962000D01*
X98229000Y-124120750D01*
X98229000Y-124213309D01*
X98325673Y-124446698D01*
X98504301Y-124625327D01*
X98737690Y-124722000D01*
X98739301Y-124722000D01*
X98722810Y-124725103D01*
X98593135Y-124808546D01*
X98506141Y-124935866D01*
X98475536Y-125087000D01*
X98475536Y-125587000D01*
X98502103Y-125728190D01*
X98585546Y-125857865D01*
X98712866Y-125944859D01*
X98864000Y-125975464D01*
X99764000Y-125975464D01*
X99905190Y-125948897D01*
X100034865Y-125865454D01*
X100050207Y-125843000D01*
X100353981Y-125843000D01*
X100363546Y-125857865D01*
X100490866Y-125944859D01*
X100530463Y-125952877D01*
X100530463Y-125973753D01*
X100445273Y-125989783D01*
X100315598Y-126073226D01*
X100228604Y-126200546D01*
X100197999Y-126351680D01*
X100197999Y-126851680D01*
X100202387Y-126875000D01*
X97724000Y-126875000D01*
X97530362Y-126913517D01*
X97366204Y-127023204D01*
X95827000Y-128562408D01*
X95827000Y-128535998D01*
X95670252Y-128535998D01*
X95827000Y-128379250D01*
X95827000Y-128286691D01*
X95730327Y-128053302D01*
X95551699Y-127874673D01*
X95318310Y-127778000D01*
X95027750Y-127778000D01*
X94869000Y-127936750D01*
X94869000Y-128538000D01*
X94889000Y-128538000D01*
X94889000Y-128788000D01*
X94869000Y-128788000D01*
X94869000Y-128810000D01*
X94615000Y-128810000D01*
X94615000Y-128788000D01*
X94595000Y-128788000D01*
X94595000Y-128538000D01*
X94615000Y-128538000D01*
X94615000Y-127936750D01*
X94456250Y-127778000D01*
X94172099Y-127778000D01*
X94141137Y-127703252D01*
X93962509Y-127524623D01*
X93729120Y-127427950D01*
X93488510Y-127427950D01*
X93329760Y-127586700D01*
X93329760Y-128336000D01*
X93349760Y-128336000D01*
X93349760Y-128590000D01*
X93329760Y-128590000D01*
X93329760Y-129339300D01*
X93488510Y-129498050D01*
X93729120Y-129498050D01*
X93905829Y-129424855D01*
X93932301Y-129451327D01*
X94165690Y-129548000D01*
X94167301Y-129548000D01*
X94150810Y-129551103D01*
X94021135Y-129634546D01*
X94005793Y-129657000D01*
X93829915Y-129657000D01*
X93753944Y-129605091D01*
X93602810Y-129574486D01*
X92802710Y-129574486D01*
X92661520Y-129601053D01*
X92531845Y-129684496D01*
X92444851Y-129811816D01*
X92414246Y-129962950D01*
X92414246Y-130763050D01*
X92440813Y-130904240D01*
X92524256Y-131033915D01*
X92651576Y-131120909D01*
X92802710Y-131151514D01*
X93602810Y-131151514D01*
X93744000Y-131124947D01*
X93873675Y-131041504D01*
X93960669Y-130914184D01*
X93991274Y-130763050D01*
X93991274Y-130669000D01*
X94003981Y-130669000D01*
X94013546Y-130683865D01*
X94140866Y-130770859D01*
X94292000Y-130801464D01*
X95192000Y-130801464D01*
X95333190Y-130774897D01*
X95462865Y-130691454D01*
X95549859Y-130564134D01*
X95580464Y-130413000D01*
X95580464Y-130240128D01*
X97933592Y-127887000D01*
X100197999Y-127887000D01*
X100197999Y-128351680D01*
X100224566Y-128492870D01*
X100308009Y-128622545D01*
X100435329Y-128709539D01*
X100586463Y-128740144D01*
X101159335Y-128740144D01*
X101482259Y-129063068D01*
X101646417Y-129172755D01*
X101840055Y-129211272D01*
X103421868Y-129211272D01*
X110904384Y-136693788D01*
X110866748Y-136709339D01*
X110675013Y-136900741D01*
X110619263Y-137035000D01*
X85021990Y-137035000D01*
X83244607Y-135257617D01*
X83244607Y-134020777D01*
X83341841Y-134118011D01*
X83287943Y-134388976D01*
X83287943Y-134748514D01*
X83382683Y-135224802D01*
X83652478Y-135628579D01*
X84056255Y-135898374D01*
X84532543Y-135993114D01*
X85008831Y-135898374D01*
X85412608Y-135628579D01*
X85682403Y-135224802D01*
X85685247Y-135210502D01*
X85780589Y-135483065D01*
X86170507Y-135919477D01*
X86697752Y-136173454D01*
X86713517Y-136176103D01*
X86945543Y-136054962D01*
X86945543Y-134695745D01*
X87199543Y-134695745D01*
X87199543Y-136054962D01*
X87431569Y-136176103D01*
X87447334Y-136173454D01*
X87974579Y-135919477D01*
X88364497Y-135483065D01*
X88557727Y-134930658D01*
X88413467Y-134695745D01*
X87199543Y-134695745D01*
X86945543Y-134695745D01*
X86925543Y-134695745D01*
X86925543Y-134441745D01*
X86945543Y-134441745D01*
X86945543Y-133082528D01*
X87199543Y-133082528D01*
X87199543Y-134441745D01*
X88413467Y-134441745D01*
X88557727Y-134206832D01*
X88364497Y-133654425D01*
X87974579Y-133218013D01*
X87447334Y-132964036D01*
X87431569Y-132961387D01*
X87199543Y-133082528D01*
X86945543Y-133082528D01*
X86713517Y-132961387D01*
X86697752Y-132964036D01*
X86170507Y-133218013D01*
X85780589Y-133654425D01*
X85685247Y-133926988D01*
X85682403Y-133912688D01*
X85412608Y-133508911D01*
X85008831Y-133239116D01*
X84532543Y-133144376D01*
X84215922Y-133207356D01*
X81826030Y-130817464D01*
X83058000Y-130817464D01*
X83199190Y-130790897D01*
X83328865Y-130707454D01*
X83415859Y-130580134D01*
X83446464Y-130429000D01*
X83446464Y-130207137D01*
X83594172Y-130428197D01*
X84047391Y-130731029D01*
X84582000Y-130837369D01*
X85116609Y-130731029D01*
X85569828Y-130428197D01*
X85826541Y-130044000D01*
X90499592Y-130044000D01*
X90525276Y-130083915D01*
X90652596Y-130170909D01*
X90803730Y-130201514D01*
X91603830Y-130201514D01*
X91745020Y-130174947D01*
X91874695Y-130091504D01*
X91961689Y-129964184D01*
X91992294Y-129813050D01*
X91992294Y-129012950D01*
X91965727Y-128871760D01*
X91886573Y-128748750D01*
X92167710Y-128748750D01*
X92167710Y-128989359D01*
X92264383Y-129222748D01*
X92443011Y-129401377D01*
X92676400Y-129498050D01*
X92917010Y-129498050D01*
X93075760Y-129339300D01*
X93075760Y-128590000D01*
X92326460Y-128590000D01*
X92167710Y-128748750D01*
X91886573Y-128748750D01*
X91882284Y-128742085D01*
X91754964Y-128655091D01*
X91603830Y-128624486D01*
X90803730Y-128624486D01*
X90662540Y-128651053D01*
X90532865Y-128734496D01*
X90500407Y-128782000D01*
X85826541Y-128782000D01*
X85569828Y-128397803D01*
X85116609Y-128094971D01*
X84582000Y-127988631D01*
X84047391Y-128094971D01*
X83594172Y-128397803D01*
X83446464Y-128618863D01*
X83446464Y-128397000D01*
X83419897Y-128255810D01*
X83336454Y-128126135D01*
X83209134Y-128039141D01*
X83058000Y-128008536D01*
X82822832Y-128008536D01*
X82894727Y-127936641D01*
X92167710Y-127936641D01*
X92167710Y-128177250D01*
X92326460Y-128336000D01*
X93075760Y-128336000D01*
X93075760Y-127586700D01*
X92917010Y-127427950D01*
X92676400Y-127427950D01*
X92443011Y-127524623D01*
X92264383Y-127703252D01*
X92167710Y-127936641D01*
X82894727Y-127936641D01*
X89031678Y-121799690D01*
X98545000Y-121799690D01*
X98545000Y-122015250D01*
X98703750Y-122174000D01*
X99453000Y-122174000D01*
X99453000Y-121449750D01*
X99294250Y-121291000D01*
X99053691Y-121291000D01*
X98820302Y-121387673D01*
X98641673Y-121566301D01*
X98545000Y-121799690D01*
X89031678Y-121799690D01*
X89854184Y-120977184D01*
X89990968Y-120772474D01*
X90013980Y-120656783D01*
X90039000Y-120531000D01*
X90039000Y-112610261D01*
X92486491Y-112610261D01*
X92486491Y-113410361D01*
X92513058Y-113551551D01*
X92596501Y-113681226D01*
X92723821Y-113768220D01*
X92769005Y-113777370D01*
X92769005Y-114294927D01*
X92807522Y-114488565D01*
X92818070Y-114504351D01*
X92818070Y-114926456D01*
X92844637Y-115067646D01*
X92928080Y-115197321D01*
X93055400Y-115284315D01*
X93206534Y-115314920D01*
X93706534Y-115314920D01*
X93847724Y-115288353D01*
X93977399Y-115204910D01*
X94064393Y-115077590D01*
X94094998Y-114926456D01*
X94094998Y-114026456D01*
X94068431Y-113885266D01*
X93984988Y-113755591D01*
X93915709Y-113708255D01*
X93945920Y-113688815D01*
X94032914Y-113561495D01*
X94063519Y-113410361D01*
X94063519Y-112610261D01*
X94039752Y-112483951D01*
X94139955Y-112483951D01*
X94139955Y-112724561D01*
X94298705Y-112883311D01*
X95048005Y-112883311D01*
X95048005Y-112134011D01*
X94889255Y-111975261D01*
X94648646Y-111975261D01*
X94415257Y-112071934D01*
X94236628Y-112250562D01*
X94139955Y-112483951D01*
X94039752Y-112483951D01*
X94036952Y-112469071D01*
X93953509Y-112339396D01*
X93826189Y-112252402D01*
X93675055Y-112221797D01*
X92874955Y-112221797D01*
X92733765Y-112248364D01*
X92604090Y-112331807D01*
X92517096Y-112459127D01*
X92486491Y-112610261D01*
X90039000Y-112610261D01*
X90039000Y-110611281D01*
X93436491Y-110611281D01*
X93436491Y-111411381D01*
X93463058Y-111552571D01*
X93546501Y-111682246D01*
X93673821Y-111769240D01*
X93824955Y-111799845D01*
X94625055Y-111799845D01*
X94766245Y-111773278D01*
X94895920Y-111689835D01*
X94951846Y-111607984D01*
X95389939Y-112046077D01*
X95302005Y-112134011D01*
X95302005Y-112883311D01*
X95322005Y-112883311D01*
X95322005Y-113137311D01*
X95302005Y-113137311D01*
X95302005Y-113157311D01*
X95048005Y-113157311D01*
X95048005Y-113137311D01*
X94298705Y-113137311D01*
X94139955Y-113296061D01*
X94139955Y-113536671D01*
X94236628Y-113770060D01*
X94347533Y-113880964D01*
X94318070Y-114026456D01*
X94318070Y-114926456D01*
X94344637Y-115067646D01*
X94428080Y-115197321D01*
X94555400Y-115284315D01*
X94706534Y-115314920D01*
X95206534Y-115314920D01*
X95347724Y-115288353D01*
X95477399Y-115204910D01*
X95564393Y-115077590D01*
X95573049Y-115034843D01*
X95748946Y-115107882D01*
X96019865Y-115108118D01*
X96270252Y-115004661D01*
X96461987Y-114813259D01*
X96565882Y-114563054D01*
X96566118Y-114292135D01*
X96462661Y-114041748D01*
X96271259Y-113850013D01*
X96103210Y-113780232D01*
X96113382Y-113770060D01*
X96210055Y-113536671D01*
X96210055Y-113296061D01*
X96051307Y-113137313D01*
X96210055Y-113137313D01*
X96210055Y-113122762D01*
X96315005Y-113144015D01*
X97215005Y-113144015D01*
X97356195Y-113117448D01*
X97485870Y-113034005D01*
X97572864Y-112906685D01*
X97603469Y-112755551D01*
X97603469Y-112610261D01*
X100106491Y-112610261D01*
X100106491Y-113410361D01*
X100133058Y-113551551D01*
X100216501Y-113681226D01*
X100343821Y-113768220D01*
X100389005Y-113777370D01*
X100389005Y-114294927D01*
X100427522Y-114488565D01*
X100438070Y-114504351D01*
X100438070Y-114926456D01*
X100464637Y-115067646D01*
X100548080Y-115197321D01*
X100675400Y-115284315D01*
X100826534Y-115314920D01*
X101326534Y-115314920D01*
X101467724Y-115288353D01*
X101597399Y-115204910D01*
X101684393Y-115077590D01*
X101714998Y-114926456D01*
X101714998Y-114026456D01*
X101688431Y-113885266D01*
X101604988Y-113755591D01*
X101535709Y-113708255D01*
X101565920Y-113688815D01*
X101652914Y-113561495D01*
X101683519Y-113410361D01*
X101683519Y-112610261D01*
X101659752Y-112483951D01*
X101759955Y-112483951D01*
X101759955Y-112724561D01*
X101918705Y-112883311D01*
X102668005Y-112883311D01*
X102668005Y-112134011D01*
X102509255Y-111975261D01*
X102268646Y-111975261D01*
X102035257Y-112071934D01*
X101856628Y-112250562D01*
X101759955Y-112483951D01*
X101659752Y-112483951D01*
X101656952Y-112469071D01*
X101573509Y-112339396D01*
X101446189Y-112252402D01*
X101295055Y-112221797D01*
X100494955Y-112221797D01*
X100353765Y-112248364D01*
X100224090Y-112331807D01*
X100137096Y-112459127D01*
X100106491Y-112610261D01*
X97603469Y-112610261D01*
X97603469Y-112255551D01*
X97576902Y-112114361D01*
X97493459Y-111984686D01*
X97366139Y-111897692D01*
X97215005Y-111867087D01*
X96642133Y-111867087D01*
X96419061Y-111644015D01*
X97215005Y-111644015D01*
X97356195Y-111617448D01*
X97485870Y-111534005D01*
X97572864Y-111406685D01*
X97603469Y-111255551D01*
X97603469Y-110755551D01*
X97576902Y-110614361D01*
X97493459Y-110484686D01*
X97366139Y-110397692D01*
X97271005Y-110378427D01*
X97271005Y-101092513D01*
X100988674Y-101092513D01*
X101274436Y-101784109D01*
X101803108Y-102313704D01*
X102494204Y-102600673D01*
X103242513Y-102601326D01*
X103934109Y-102315564D01*
X104463704Y-101786892D01*
X104750673Y-101095796D01*
X104751326Y-100347487D01*
X104465564Y-99655891D01*
X103936892Y-99126296D01*
X103245796Y-98839327D01*
X102497487Y-98838674D01*
X101805891Y-99124436D01*
X101276296Y-99653108D01*
X100989327Y-100344204D01*
X100988674Y-101092513D01*
X97271005Y-101092513D01*
X97271005Y-73512827D01*
X100997492Y-69786340D01*
X101066653Y-69832552D01*
X101690687Y-69956680D01*
X103795313Y-69956680D01*
X104419347Y-69832552D01*
X104948378Y-69479065D01*
X105301865Y-68950034D01*
X105425993Y-68326000D01*
X105301865Y-67701966D01*
X104948378Y-67172935D01*
X104419347Y-66819448D01*
X103795313Y-66695320D01*
X101690687Y-66695320D01*
X101066653Y-66819448D01*
X100537622Y-67172935D01*
X100184135Y-67701966D01*
X100060007Y-68326000D01*
X100184135Y-68950034D01*
X100271645Y-69081003D01*
X96407209Y-72945439D01*
X96297522Y-73109597D01*
X96259005Y-73303235D01*
X96259005Y-110377624D01*
X96173815Y-110393654D01*
X96044140Y-110477097D01*
X95957146Y-110604417D01*
X95926541Y-110755551D01*
X95926541Y-111151495D01*
X95428581Y-110653535D01*
X95264423Y-110543848D01*
X95070785Y-110505331D01*
X94993583Y-110505331D01*
X94986952Y-110470091D01*
X94903509Y-110340416D01*
X94776189Y-110253422D01*
X94625055Y-110222817D01*
X93824955Y-110222817D01*
X93683765Y-110249384D01*
X93554090Y-110332827D01*
X93467096Y-110460147D01*
X93436491Y-110611281D01*
X90039000Y-110611281D01*
X90039000Y-91440000D01*
X89990968Y-91198527D01*
X89990968Y-91198526D01*
X89854184Y-90993815D01*
X89154000Y-90293632D01*
X89154000Y-84019078D01*
X89165760Y-83973104D01*
X89154000Y-83944419D01*
X89154000Y-83178179D01*
X89165760Y-83149494D01*
X89154000Y-83103520D01*
X89154000Y-79819078D01*
X89165760Y-79773104D01*
X89154000Y-79744419D01*
X89154000Y-78978179D01*
X89165760Y-78949494D01*
X89154000Y-78903520D01*
X89154000Y-75619078D01*
X89165760Y-75573104D01*
X89154000Y-75544419D01*
X89154000Y-74778179D01*
X89165760Y-74749494D01*
X89154000Y-74703520D01*
X89154000Y-71619078D01*
X89165760Y-71573104D01*
X89154000Y-71544419D01*
X89154000Y-70778179D01*
X89165760Y-70749494D01*
X89154000Y-70703520D01*
X89154000Y-67419078D01*
X89165760Y-67373104D01*
X89154000Y-67344419D01*
X89154000Y-66578179D01*
X89165760Y-66549494D01*
X89154000Y-66503520D01*
X89154000Y-61442299D01*
X100168690Y-61442299D01*
X100168695Y-61442300D01*
X100372733Y-61401714D01*
X100358855Y-61410987D01*
X99952042Y-62019826D01*
X99809188Y-62738000D01*
X99952042Y-63456174D01*
X100358855Y-64065013D01*
X100967694Y-64471826D01*
X101685868Y-64614680D01*
X103800132Y-64614680D01*
X104518306Y-64471826D01*
X105127145Y-64065013D01*
X105533958Y-63456174D01*
X105676812Y-62738000D01*
X142947659Y-62738000D01*
X143090513Y-63456174D01*
X143497326Y-64065013D01*
X144106165Y-64471826D01*
X144824339Y-64614680D01*
X146938603Y-64614680D01*
X147656777Y-64471826D01*
X148265616Y-64065013D01*
X148672429Y-63456174D01*
X148815283Y-62738000D01*
X148672429Y-62019826D01*
X148265616Y-61410987D01*
X147656777Y-61004174D01*
X146938603Y-60861320D01*
X144824339Y-60861320D01*
X144106165Y-61004174D01*
X143497326Y-61410987D01*
X143090513Y-62019826D01*
X142947659Y-62738000D01*
X105676812Y-62738000D01*
X105533958Y-62019826D01*
X105127145Y-61410987D01*
X104518306Y-61004174D01*
X103800132Y-60861320D01*
X101812493Y-60861320D01*
X102205870Y-60598474D01*
X102692887Y-60111457D01*
X103097369Y-60031000D01*
X145881466Y-60031000D01*
X145881471Y-60031001D01*
X146983982Y-59811697D01*
X147918646Y-59187175D01*
X148543168Y-58252511D01*
X148762472Y-57150000D01*
X148543168Y-56047489D01*
X148339246Y-55742298D01*
X147918646Y-55112825D01*
X147918643Y-55112823D01*
X145194714Y-52388893D01*
X144260050Y-51764371D01*
X143157539Y-51545067D01*
X143157534Y-51545068D01*
X87103184Y-51545068D01*
X86820332Y-51488805D01*
X87381674Y-51256863D01*
X87911269Y-50728191D01*
X88198238Y-50037095D01*
X88198891Y-49288786D01*
X87913129Y-48597190D01*
X87384457Y-48067595D01*
X86693361Y-47780626D01*
X85945052Y-47779973D01*
X85253456Y-48065735D01*
X84723861Y-48594407D01*
X84436892Y-49285503D01*
X84436239Y-50033812D01*
X84722001Y-50725408D01*
X85250673Y-51255003D01*
X85941769Y-51541972D01*
X86465214Y-51542429D01*
X85675054Y-51699602D01*
X85551472Y-51782177D01*
X83954079Y-50184785D01*
X83506051Y-49885421D01*
X82977565Y-49780299D01*
X80059175Y-49780299D01*
X79530689Y-49885421D01*
X79082661Y-50184784D01*
X77128486Y-52138960D01*
X76829122Y-52586988D01*
X76724000Y-53115474D01*
X71247000Y-53115474D01*
X71247000Y-46092513D01*
X100988674Y-46092513D01*
X101274436Y-46784109D01*
X101803108Y-47313704D01*
X102494204Y-47600673D01*
X103242513Y-47601326D01*
X103934109Y-47315564D01*
X104463704Y-46786892D01*
X104750673Y-46095796D01*
X104750675Y-46092513D01*
X143988674Y-46092513D01*
X144274436Y-46784109D01*
X144803108Y-47313704D01*
X145494204Y-47600673D01*
X146242513Y-47601326D01*
X146934109Y-47315564D01*
X147463704Y-46786892D01*
X147750673Y-46095796D01*
X147750675Y-46092513D01*
X186988674Y-46092513D01*
X187274436Y-46784109D01*
X187803108Y-47313704D01*
X188494204Y-47600673D01*
X189242513Y-47601326D01*
X189934109Y-47315564D01*
X190463704Y-46786892D01*
X190750673Y-46095796D01*
X190751326Y-45347487D01*
X190465564Y-44655891D01*
X189936892Y-44126296D01*
X189245796Y-43839327D01*
X188497487Y-43838674D01*
X187805891Y-44124436D01*
X187276296Y-44653108D01*
X186989327Y-45344204D01*
X186988674Y-46092513D01*
X147750675Y-46092513D01*
X147751326Y-45347487D01*
X147465564Y-44655891D01*
X146936892Y-44126296D01*
X146245796Y-43839327D01*
X145497487Y-43838674D01*
X144805891Y-44124436D01*
X144276296Y-44653108D01*
X143989327Y-45344204D01*
X143988674Y-46092513D01*
X104750675Y-46092513D01*
X104751326Y-45347487D01*
X104465564Y-44655891D01*
X103936892Y-44126296D01*
X103245796Y-43839327D01*
X102497487Y-43838674D01*
X101805891Y-44124436D01*
X101276296Y-44653108D01*
X100989327Y-45344204D01*
X100988674Y-46092513D01*
X71247000Y-46092513D01*
X71247000Y-42037000D01*
X229743000Y-42037000D01*
X229743000Y-151003000D01*
G36*
X118039421Y-132509233D02*
X118048957Y-132509233D01*
X118048957Y-132763233D01*
X118039421Y-132763233D01*
X118039421Y-133912483D01*
X118198171Y-134071233D01*
X118313731Y-134071233D01*
X118547120Y-133974560D01*
X118696982Y-133824697D01*
X118727860Y-133824697D01*
X118877722Y-133974560D01*
X119111111Y-134071233D01*
X119226671Y-134071233D01*
X119385421Y-133912483D01*
X119385421Y-132763233D01*
X119375885Y-132763233D01*
X119375885Y-132509233D01*
X119385421Y-132509233D01*
X119385421Y-132489233D01*
X119639421Y-132489233D01*
X119639421Y-132509233D01*
X119648957Y-132509233D01*
X119648957Y-132763233D01*
X119639421Y-132763233D01*
X119639421Y-133912483D01*
X119798171Y-134071233D01*
X119913731Y-134071233D01*
X120147120Y-133974560D01*
X120296982Y-133824697D01*
X120477028Y-133824697D01*
X120476882Y-133992865D01*
X120580339Y-134243252D01*
X120771741Y-134434987D01*
X121021946Y-134538882D01*
X121292865Y-134539118D01*
X121397299Y-134495967D01*
X121373957Y-134611233D01*
X121373957Y-135161233D01*
X121398341Y-135290821D01*
X121373957Y-135411233D01*
X121373957Y-135961233D01*
X121398341Y-136090821D01*
X121373957Y-136211233D01*
X121373957Y-136761233D01*
X121398341Y-136890821D01*
X121373957Y-137011233D01*
X121373957Y-137561233D01*
X121398341Y-137690821D01*
X121373957Y-137811233D01*
X121373957Y-138361233D01*
X121377346Y-138379244D01*
X121215388Y-138379103D01*
X120965001Y-138482560D01*
X120773266Y-138673962D01*
X120669371Y-138924167D01*
X120669135Y-139195086D01*
X120772592Y-139445473D01*
X120963994Y-139637208D01*
X121214199Y-139741103D01*
X121373957Y-139741242D01*
X121373957Y-139947769D01*
X120837421Y-139947769D01*
X120707833Y-139972153D01*
X120587421Y-139947769D01*
X120037421Y-139947769D01*
X119907833Y-139972153D01*
X119787421Y-139947769D01*
X119496982Y-139947769D01*
X119347120Y-139797906D01*
X119113731Y-139701233D01*
X118998171Y-139701233D01*
X118839421Y-139859983D01*
X118839421Y-141009233D01*
X118848957Y-141009233D01*
X118848957Y-141263233D01*
X118839421Y-141263233D01*
X118839421Y-142412483D01*
X118998171Y-142571233D01*
X119113731Y-142571233D01*
X119347120Y-142474560D01*
X119496982Y-142324697D01*
X119657094Y-142324697D01*
X119657036Y-142390866D01*
X119760493Y-142641253D01*
X119951895Y-142832988D01*
X120202100Y-142936883D01*
X120473019Y-142937119D01*
X120723406Y-142833662D01*
X120915141Y-142642260D01*
X121019036Y-142392055D01*
X121019095Y-142324697D01*
X121387421Y-142324697D01*
X121528611Y-142298130D01*
X121658286Y-142214687D01*
X121745280Y-142087367D01*
X121775885Y-141936233D01*
X121775885Y-141838531D01*
X121971242Y-141838701D01*
X122221629Y-141735244D01*
X122413364Y-141543842D01*
X122517259Y-141293637D01*
X122517378Y-141156626D01*
X122630086Y-141156724D01*
X122880473Y-141053267D01*
X123072208Y-140861865D01*
X123176103Y-140611660D01*
X123176331Y-140349697D01*
X123362421Y-140349697D01*
X123503611Y-140323130D01*
X123633286Y-140239687D01*
X123720280Y-140112367D01*
X123750885Y-139961233D01*
X123750885Y-139411233D01*
X123726501Y-139281645D01*
X123750885Y-139161233D01*
X123750885Y-138611233D01*
X123726501Y-138481645D01*
X123750885Y-138361233D01*
X123750885Y-137968047D01*
X123832869Y-137968118D01*
X124081000Y-137865593D01*
X124081000Y-141866861D01*
X120356412Y-145591449D01*
X89311425Y-145591449D01*
X88480959Y-144760983D01*
X115084421Y-144760983D01*
X115084421Y-145001542D01*
X115181094Y-145234931D01*
X115359722Y-145413560D01*
X115593111Y-145510233D01*
X115808671Y-145510233D01*
X115967421Y-145351483D01*
X115967421Y-144602233D01*
X116221421Y-144602233D01*
X116221421Y-145351483D01*
X116380171Y-145510233D01*
X116595731Y-145510233D01*
X116829120Y-145413560D01*
X117007748Y-145234931D01*
X117104421Y-145001542D01*
X117104421Y-144760983D01*
X116945671Y-144602233D01*
X116221421Y-144602233D01*
X115967421Y-144602233D01*
X115243171Y-144602233D01*
X115084421Y-144760983D01*
X88480959Y-144760983D01*
X87578543Y-143858567D01*
X87578543Y-143343135D01*
X87952608Y-143093193D01*
X88222403Y-142689416D01*
X88317143Y-142213128D01*
X88317143Y-142164362D01*
X88222403Y-141688074D01*
X87982720Y-141329363D01*
X88077638Y-141310483D01*
X88241796Y-141200796D01*
X90017096Y-139425496D01*
X111482004Y-139425496D01*
X113550537Y-141494029D01*
X113714695Y-141603716D01*
X113908333Y-141642233D01*
X114848957Y-141642233D01*
X114848957Y-141936233D01*
X114875524Y-142077423D01*
X114958967Y-142207098D01*
X115062895Y-142278109D01*
X114810536Y-142277889D01*
X114560149Y-142381346D01*
X114368414Y-142572748D01*
X114264519Y-142822953D01*
X114264283Y-143093872D01*
X114367740Y-143344259D01*
X114559142Y-143535994D01*
X114809347Y-143639889D01*
X115080266Y-143640125D01*
X115162292Y-143606233D01*
X115290395Y-143606233D01*
X115181094Y-143715535D01*
X115084421Y-143948924D01*
X115084421Y-144189483D01*
X115243171Y-144348233D01*
X115967421Y-144348233D01*
X115967421Y-144328233D01*
X116221421Y-144328233D01*
X116221421Y-144348233D01*
X116945671Y-144348233D01*
X117104421Y-144189483D01*
X117104421Y-143948924D01*
X117007748Y-143715535D01*
X116829120Y-143536906D01*
X116822073Y-143533987D01*
X116827280Y-143526367D01*
X116857885Y-143375233D01*
X116857885Y-143054835D01*
X116895389Y-142998706D01*
X116943421Y-142757233D01*
X116943421Y-142324697D01*
X117387421Y-142324697D01*
X117517009Y-142300313D01*
X117637421Y-142324697D01*
X117927860Y-142324697D01*
X118077722Y-142474560D01*
X118311111Y-142571233D01*
X118426671Y-142571233D01*
X118585421Y-142412483D01*
X118585421Y-141263233D01*
X118575885Y-141263233D01*
X118575885Y-141009233D01*
X118585421Y-141009233D01*
X118585421Y-139859983D01*
X118426671Y-139701233D01*
X118311111Y-139701233D01*
X118077722Y-139797906D01*
X117927860Y-139947769D01*
X117637421Y-139947769D01*
X117507833Y-139972153D01*
X117387421Y-139947769D01*
X116837421Y-139947769D01*
X116707833Y-139972153D01*
X116587421Y-139947769D01*
X116037421Y-139947769D01*
X115907833Y-139972153D01*
X115787421Y-139947769D01*
X115250885Y-139947769D01*
X115250885Y-139411233D01*
X115226501Y-139281645D01*
X115250885Y-139161233D01*
X115250885Y-138611233D01*
X115226501Y-138481645D01*
X115250885Y-138361233D01*
X115250885Y-137811233D01*
X115226501Y-137681645D01*
X115250885Y-137561233D01*
X115250885Y-137011233D01*
X115226501Y-136881645D01*
X115250885Y-136761233D01*
X115250885Y-136211233D01*
X115226501Y-136081645D01*
X115250885Y-135961233D01*
X115250885Y-135411233D01*
X115226501Y-135281645D01*
X115250885Y-135161233D01*
X115250885Y-134611233D01*
X115226501Y-134481645D01*
X115250885Y-134361233D01*
X115250885Y-133824697D01*
X115787421Y-133824697D01*
X115917009Y-133800313D01*
X116037421Y-133824697D01*
X116587421Y-133824697D01*
X116717009Y-133800313D01*
X116837421Y-133824697D01*
X117127860Y-133824697D01*
X117277722Y-133974560D01*
X117511111Y-134071233D01*
X117626671Y-134071233D01*
X117785421Y-133912483D01*
X117785421Y-132763233D01*
X117775885Y-132763233D01*
X117775885Y-132509233D01*
X117785421Y-132509233D01*
X117785421Y-132489233D01*
X118039421Y-132489233D01*
X118039421Y-132509233D01*
X118039421Y-132509233D01*
G37*
X118039421Y-132509233D02*
X118048957Y-132509233D01*
X118048957Y-132763233D01*
X118039421Y-132763233D01*
X118039421Y-133912483D01*
X118198171Y-134071233D01*
X118313731Y-134071233D01*
X118547120Y-133974560D01*
X118696982Y-133824697D01*
X118727860Y-133824697D01*
X118877722Y-133974560D01*
X119111111Y-134071233D01*
X119226671Y-134071233D01*
X119385421Y-133912483D01*
X119385421Y-132763233D01*
X119375885Y-132763233D01*
X119375885Y-132509233D01*
X119385421Y-132509233D01*
X119385421Y-132489233D01*
X119639421Y-132489233D01*
X119639421Y-132509233D01*
X119648957Y-132509233D01*
X119648957Y-132763233D01*
X119639421Y-132763233D01*
X119639421Y-133912483D01*
X119798171Y-134071233D01*
X119913731Y-134071233D01*
X120147120Y-133974560D01*
X120296982Y-133824697D01*
X120477028Y-133824697D01*
X120476882Y-133992865D01*
X120580339Y-134243252D01*
X120771741Y-134434987D01*
X121021946Y-134538882D01*
X121292865Y-134539118D01*
X121397299Y-134495967D01*
X121373957Y-134611233D01*
X121373957Y-135161233D01*
X121398341Y-135290821D01*
X121373957Y-135411233D01*
X121373957Y-135961233D01*
X121398341Y-136090821D01*
X121373957Y-136211233D01*
X121373957Y-136761233D01*
X121398341Y-136890821D01*
X121373957Y-137011233D01*
X121373957Y-137561233D01*
X121398341Y-137690821D01*
X121373957Y-137811233D01*
X121373957Y-138361233D01*
X121377346Y-138379244D01*
X121215388Y-138379103D01*
X120965001Y-138482560D01*
X120773266Y-138673962D01*
X120669371Y-138924167D01*
X120669135Y-139195086D01*
X120772592Y-139445473D01*
X120963994Y-139637208D01*
X121214199Y-139741103D01*
X121373957Y-139741242D01*
X121373957Y-139947769D01*
X120837421Y-139947769D01*
X120707833Y-139972153D01*
X120587421Y-139947769D01*
X120037421Y-139947769D01*
X119907833Y-139972153D01*
X119787421Y-139947769D01*
X119496982Y-139947769D01*
X119347120Y-139797906D01*
X119113731Y-139701233D01*
X118998171Y-139701233D01*
X118839421Y-139859983D01*
X118839421Y-141009233D01*
X118848957Y-141009233D01*
X118848957Y-141263233D01*
X118839421Y-141263233D01*
X118839421Y-142412483D01*
X118998171Y-142571233D01*
X119113731Y-142571233D01*
X119347120Y-142474560D01*
X119496982Y-142324697D01*
X119657094Y-142324697D01*
X119657036Y-142390866D01*
X119760493Y-142641253D01*
X119951895Y-142832988D01*
X120202100Y-142936883D01*
X120473019Y-142937119D01*
X120723406Y-142833662D01*
X120915141Y-142642260D01*
X121019036Y-142392055D01*
X121019095Y-142324697D01*
X121387421Y-142324697D01*
X121528611Y-142298130D01*
X121658286Y-142214687D01*
X121745280Y-142087367D01*
X121775885Y-141936233D01*
X121775885Y-141838531D01*
X121971242Y-141838701D01*
X122221629Y-141735244D01*
X122413364Y-141543842D01*
X122517259Y-141293637D01*
X122517378Y-141156626D01*
X122630086Y-141156724D01*
X122880473Y-141053267D01*
X123072208Y-140861865D01*
X123176103Y-140611660D01*
X123176331Y-140349697D01*
X123362421Y-140349697D01*
X123503611Y-140323130D01*
X123633286Y-140239687D01*
X123720280Y-140112367D01*
X123750885Y-139961233D01*
X123750885Y-139411233D01*
X123726501Y-139281645D01*
X123750885Y-139161233D01*
X123750885Y-138611233D01*
X123726501Y-138481645D01*
X123750885Y-138361233D01*
X123750885Y-137968047D01*
X123832869Y-137968118D01*
X124081000Y-137865593D01*
X124081000Y-141866861D01*
X120356412Y-145591449D01*
X89311425Y-145591449D01*
X88480959Y-144760983D01*
X115084421Y-144760983D01*
X115084421Y-145001542D01*
X115181094Y-145234931D01*
X115359722Y-145413560D01*
X115593111Y-145510233D01*
X115808671Y-145510233D01*
X115967421Y-145351483D01*
X115967421Y-144602233D01*
X116221421Y-144602233D01*
X116221421Y-145351483D01*
X116380171Y-145510233D01*
X116595731Y-145510233D01*
X116829120Y-145413560D01*
X117007748Y-145234931D01*
X117104421Y-145001542D01*
X117104421Y-144760983D01*
X116945671Y-144602233D01*
X116221421Y-144602233D01*
X115967421Y-144602233D01*
X115243171Y-144602233D01*
X115084421Y-144760983D01*
X88480959Y-144760983D01*
X87578543Y-143858567D01*
X87578543Y-143343135D01*
X87952608Y-143093193D01*
X88222403Y-142689416D01*
X88317143Y-142213128D01*
X88317143Y-142164362D01*
X88222403Y-141688074D01*
X87982720Y-141329363D01*
X88077638Y-141310483D01*
X88241796Y-141200796D01*
X90017096Y-139425496D01*
X111482004Y-139425496D01*
X113550537Y-141494029D01*
X113714695Y-141603716D01*
X113908333Y-141642233D01*
X114848957Y-141642233D01*
X114848957Y-141936233D01*
X114875524Y-142077423D01*
X114958967Y-142207098D01*
X115062895Y-142278109D01*
X114810536Y-142277889D01*
X114560149Y-142381346D01*
X114368414Y-142572748D01*
X114264519Y-142822953D01*
X114264283Y-143093872D01*
X114367740Y-143344259D01*
X114559142Y-143535994D01*
X114809347Y-143639889D01*
X115080266Y-143640125D01*
X115162292Y-143606233D01*
X115290395Y-143606233D01*
X115181094Y-143715535D01*
X115084421Y-143948924D01*
X115084421Y-144189483D01*
X115243171Y-144348233D01*
X115967421Y-144348233D01*
X115967421Y-144328233D01*
X116221421Y-144328233D01*
X116221421Y-144348233D01*
X116945671Y-144348233D01*
X117104421Y-144189483D01*
X117104421Y-143948924D01*
X117007748Y-143715535D01*
X116829120Y-143536906D01*
X116822073Y-143533987D01*
X116827280Y-143526367D01*
X116857885Y-143375233D01*
X116857885Y-143054835D01*
X116895389Y-142998706D01*
X116943421Y-142757233D01*
X116943421Y-142324697D01*
X117387421Y-142324697D01*
X117517009Y-142300313D01*
X117637421Y-142324697D01*
X117927860Y-142324697D01*
X118077722Y-142474560D01*
X118311111Y-142571233D01*
X118426671Y-142571233D01*
X118585421Y-142412483D01*
X118585421Y-141263233D01*
X118575885Y-141263233D01*
X118575885Y-141009233D01*
X118585421Y-141009233D01*
X118585421Y-139859983D01*
X118426671Y-139701233D01*
X118311111Y-139701233D01*
X118077722Y-139797906D01*
X117927860Y-139947769D01*
X117637421Y-139947769D01*
X117507833Y-139972153D01*
X117387421Y-139947769D01*
X116837421Y-139947769D01*
X116707833Y-139972153D01*
X116587421Y-139947769D01*
X116037421Y-139947769D01*
X115907833Y-139972153D01*
X115787421Y-139947769D01*
X115250885Y-139947769D01*
X115250885Y-139411233D01*
X115226501Y-139281645D01*
X115250885Y-139161233D01*
X115250885Y-138611233D01*
X115226501Y-138481645D01*
X115250885Y-138361233D01*
X115250885Y-137811233D01*
X115226501Y-137681645D01*
X115250885Y-137561233D01*
X115250885Y-137011233D01*
X115226501Y-136881645D01*
X115250885Y-136761233D01*
X115250885Y-136211233D01*
X115226501Y-136081645D01*
X115250885Y-135961233D01*
X115250885Y-135411233D01*
X115226501Y-135281645D01*
X115250885Y-135161233D01*
X115250885Y-134611233D01*
X115226501Y-134481645D01*
X115250885Y-134361233D01*
X115250885Y-133824697D01*
X115787421Y-133824697D01*
X115917009Y-133800313D01*
X116037421Y-133824697D01*
X116587421Y-133824697D01*
X116717009Y-133800313D01*
X116837421Y-133824697D01*
X117127860Y-133824697D01*
X117277722Y-133974560D01*
X117511111Y-134071233D01*
X117626671Y-134071233D01*
X117785421Y-133912483D01*
X117785421Y-132763233D01*
X117775885Y-132763233D01*
X117775885Y-132509233D01*
X117785421Y-132509233D01*
X117785421Y-132489233D01*
X118039421Y-132489233D01*
X118039421Y-132509233D01*
G36*
X87199543Y-139521745D02*
X87219543Y-139521745D01*
X87219543Y-139775745D01*
X87199543Y-139775745D01*
X87199543Y-139795745D01*
X86945543Y-139795745D01*
X86945543Y-139775745D01*
X86925543Y-139775745D01*
X86925543Y-139521745D01*
X86945543Y-139521745D01*
X86945543Y-139501745D01*
X87199543Y-139501745D01*
X87199543Y-139521745D01*
X87199543Y-139521745D01*
G37*
X87199543Y-139521745D02*
X87219543Y-139521745D01*
X87219543Y-139775745D01*
X87199543Y-139775745D01*
X87199543Y-139795745D01*
X86945543Y-139795745D01*
X86945543Y-139775745D01*
X86925543Y-139775745D01*
X86925543Y-139521745D01*
X86945543Y-139521745D01*
X86945543Y-139501745D01*
X87199543Y-139501745D01*
X87199543Y-139521745D01*
G36*
X88777000Y-120269632D02*
X81595816Y-127450816D01*
X81459032Y-127655527D01*
X81411000Y-127897000D01*
X81411000Y-128008536D01*
X81206999Y-128008536D01*
X81206999Y-120391330D01*
X81505988Y-120591109D01*
X82034474Y-120696230D01*
X82562960Y-120591109D01*
X83010988Y-120291745D01*
X83015572Y-120287161D01*
X86322149Y-120287161D01*
X86390209Y-120528162D01*
X86909508Y-120712998D01*
X87460012Y-120685036D01*
X87838739Y-120528162D01*
X87906799Y-120287161D01*
X87114474Y-119494836D01*
X86322149Y-120287161D01*
X83015572Y-120287161D01*
X84192468Y-119110265D01*
X85716707Y-119110265D01*
X85744669Y-119660769D01*
X85901543Y-120039496D01*
X86142544Y-120107556D01*
X86934869Y-119315231D01*
X87294079Y-119315231D01*
X88086404Y-120107556D01*
X88327405Y-120039496D01*
X88512241Y-119520197D01*
X88484279Y-118969693D01*
X88327405Y-118590966D01*
X88086404Y-118522906D01*
X87294079Y-119315231D01*
X86934869Y-119315231D01*
X86142544Y-118522906D01*
X85901543Y-118590966D01*
X85716707Y-119110265D01*
X84192468Y-119110265D01*
X84959432Y-118343301D01*
X86322149Y-118343301D01*
X87114474Y-119135626D01*
X87906799Y-118343301D01*
X87838739Y-118102300D01*
X87319440Y-117917464D01*
X86768936Y-117945426D01*
X86390209Y-118102300D01*
X86322149Y-118343301D01*
X84959432Y-118343301D01*
X85558515Y-117744219D01*
X85857878Y-117296191D01*
X85890328Y-117133052D01*
X85963000Y-116767705D01*
X85963000Y-107587161D01*
X86322149Y-107587161D01*
X86390209Y-107828162D01*
X86909508Y-108012998D01*
X87460012Y-107985036D01*
X87838739Y-107828162D01*
X87906799Y-107587161D01*
X87114474Y-106794836D01*
X86322149Y-107587161D01*
X85963000Y-107587161D01*
X85963000Y-107356852D01*
X86142544Y-107407556D01*
X86934869Y-106615231D01*
X87294079Y-106615231D01*
X88086404Y-107407556D01*
X88327405Y-107339496D01*
X88512241Y-106820197D01*
X88484279Y-106269693D01*
X88327405Y-105890966D01*
X88086404Y-105822906D01*
X87294079Y-106615231D01*
X86934869Y-106615231D01*
X86142544Y-105822906D01*
X85954640Y-105875971D01*
X85908360Y-105643301D01*
X86322149Y-105643301D01*
X87114474Y-106435626D01*
X87906799Y-105643301D01*
X87838739Y-105402300D01*
X87319440Y-105217464D01*
X86768936Y-105245426D01*
X86390209Y-105402300D01*
X86322149Y-105643301D01*
X85908360Y-105643301D01*
X85857878Y-105389514D01*
X85755791Y-105236730D01*
X85558515Y-104941486D01*
X82658565Y-102041537D01*
X82658565Y-97233812D01*
X84436239Y-97233812D01*
X84722001Y-97925408D01*
X85250673Y-98455003D01*
X85941769Y-98741972D01*
X86690078Y-98742625D01*
X87381674Y-98456863D01*
X87911269Y-97928191D01*
X88198238Y-97237095D01*
X88198891Y-96488786D01*
X87913129Y-95797190D01*
X87384457Y-95267595D01*
X86693361Y-94980626D01*
X85945052Y-94979973D01*
X85253456Y-95265735D01*
X84723861Y-95794407D01*
X84436892Y-96485503D01*
X84436239Y-97233812D01*
X82658565Y-97233812D01*
X82658565Y-93980000D01*
X88777000Y-93980000D01*
X88777000Y-120269632D01*
X88777000Y-120269632D01*
G37*
X88777000Y-120269632D02*
X81595816Y-127450816D01*
X81459032Y-127655527D01*
X81411000Y-127897000D01*
X81411000Y-128008536D01*
X81206999Y-128008536D01*
X81206999Y-120391330D01*
X81505988Y-120591109D01*
X82034474Y-120696230D01*
X82562960Y-120591109D01*
X83010988Y-120291745D01*
X83015572Y-120287161D01*
X86322149Y-120287161D01*
X86390209Y-120528162D01*
X86909508Y-120712998D01*
X87460012Y-120685036D01*
X87838739Y-120528162D01*
X87906799Y-120287161D01*
X87114474Y-119494836D01*
X86322149Y-120287161D01*
X83015572Y-120287161D01*
X84192468Y-119110265D01*
X85716707Y-119110265D01*
X85744669Y-119660769D01*
X85901543Y-120039496D01*
X86142544Y-120107556D01*
X86934869Y-119315231D01*
X87294079Y-119315231D01*
X88086404Y-120107556D01*
X88327405Y-120039496D01*
X88512241Y-119520197D01*
X88484279Y-118969693D01*
X88327405Y-118590966D01*
X88086404Y-118522906D01*
X87294079Y-119315231D01*
X86934869Y-119315231D01*
X86142544Y-118522906D01*
X85901543Y-118590966D01*
X85716707Y-119110265D01*
X84192468Y-119110265D01*
X84959432Y-118343301D01*
X86322149Y-118343301D01*
X87114474Y-119135626D01*
X87906799Y-118343301D01*
X87838739Y-118102300D01*
X87319440Y-117917464D01*
X86768936Y-117945426D01*
X86390209Y-118102300D01*
X86322149Y-118343301D01*
X84959432Y-118343301D01*
X85558515Y-117744219D01*
X85857878Y-117296191D01*
X85890328Y-117133052D01*
X85963000Y-116767705D01*
X85963000Y-107587161D01*
X86322149Y-107587161D01*
X86390209Y-107828162D01*
X86909508Y-108012998D01*
X87460012Y-107985036D01*
X87838739Y-107828162D01*
X87906799Y-107587161D01*
X87114474Y-106794836D01*
X86322149Y-107587161D01*
X85963000Y-107587161D01*
X85963000Y-107356852D01*
X86142544Y-107407556D01*
X86934869Y-106615231D01*
X87294079Y-106615231D01*
X88086404Y-107407556D01*
X88327405Y-107339496D01*
X88512241Y-106820197D01*
X88484279Y-106269693D01*
X88327405Y-105890966D01*
X88086404Y-105822906D01*
X87294079Y-106615231D01*
X86934869Y-106615231D01*
X86142544Y-105822906D01*
X85954640Y-105875971D01*
X85908360Y-105643301D01*
X86322149Y-105643301D01*
X87114474Y-106435626D01*
X87906799Y-105643301D01*
X87838739Y-105402300D01*
X87319440Y-105217464D01*
X86768936Y-105245426D01*
X86390209Y-105402300D01*
X86322149Y-105643301D01*
X85908360Y-105643301D01*
X85857878Y-105389514D01*
X85755791Y-105236730D01*
X85558515Y-104941486D01*
X82658565Y-102041537D01*
X82658565Y-97233812D01*
X84436239Y-97233812D01*
X84722001Y-97925408D01*
X85250673Y-98455003D01*
X85941769Y-98741972D01*
X86690078Y-98742625D01*
X87381674Y-98456863D01*
X87911269Y-97928191D01*
X88198238Y-97237095D01*
X88198891Y-96488786D01*
X87913129Y-95797190D01*
X87384457Y-95267595D01*
X86693361Y-94980626D01*
X85945052Y-94979973D01*
X85253456Y-95265735D01*
X84723861Y-95794407D01*
X84436892Y-96485503D01*
X84436239Y-97233812D01*
X82658565Y-97233812D01*
X82658565Y-93980000D01*
X88777000Y-93980000D01*
X88777000Y-120269632D01*
G36*
X84932320Y-64058840D02*
X85527637Y-64456618D01*
X86229861Y-64596299D01*
X87525269Y-64596299D01*
X88227493Y-64456618D01*
X88822810Y-64058840D01*
X88900000Y-63943317D01*
X88900000Y-86928942D01*
X88722810Y-86663758D01*
X88127493Y-86265980D01*
X87425269Y-86126299D01*
X86129861Y-86126299D01*
X85427637Y-86265980D01*
X84832320Y-86663758D01*
X84712555Y-86842999D01*
X84712555Y-63729938D01*
X84932320Y-64058840D01*
X84932320Y-64058840D01*
G37*
X84932320Y-64058840D02*
X85527637Y-64456618D01*
X86229861Y-64596299D01*
X87525269Y-64596299D01*
X88227493Y-64456618D01*
X88822810Y-64058840D01*
X88900000Y-63943317D01*
X88900000Y-86928942D01*
X88722810Y-86663758D01*
X88127493Y-86265980D01*
X87425269Y-86126299D01*
X86129861Y-86126299D01*
X85427637Y-86265980D01*
X84832320Y-86663758D01*
X84712555Y-86842999D01*
X84712555Y-63729938D01*
X84932320Y-64058840D01*
G36*
X82942555Y-86476498D02*
X82627493Y-86265980D01*
X81925269Y-86126299D01*
X80629861Y-86126299D01*
X79927637Y-86265980D01*
X79740000Y-86391355D01*
X79740000Y-82811104D01*
X81154804Y-81396299D01*
X81925269Y-81396299D01*
X82627493Y-81256618D01*
X82942555Y-81046100D01*
X82942555Y-86476498D01*
X82942555Y-86476498D01*
G37*
X82942555Y-86476498D02*
X82627493Y-86265980D01*
X81925269Y-86126299D01*
X80629861Y-86126299D01*
X79927637Y-86265980D01*
X79740000Y-86391355D01*
X79740000Y-82811104D01*
X81154804Y-81396299D01*
X81925269Y-81396299D01*
X82627493Y-81256618D01*
X82942555Y-81046100D01*
X82942555Y-86476498D01*
G36*
X82942555Y-78076498D02*
X82627493Y-77865980D01*
X81925269Y-77726299D01*
X81154804Y-77726299D01*
X79740000Y-76311494D01*
X79740000Y-72731243D01*
X79927637Y-72856618D01*
X80629861Y-72996299D01*
X81925269Y-72996299D01*
X82627493Y-72856618D01*
X82942555Y-72646100D01*
X82942555Y-78076498D01*
X82942555Y-78076498D01*
G37*
X82942555Y-78076498D02*
X82627493Y-77865980D01*
X81925269Y-77726299D01*
X81154804Y-77726299D01*
X79740000Y-76311494D01*
X79740000Y-72731243D01*
X79927637Y-72856618D01*
X80629861Y-72996299D01*
X81925269Y-72996299D01*
X82627493Y-72856618D01*
X82942555Y-72646100D01*
X82942555Y-78076498D01*
G36*
X82942555Y-69676498D02*
X82627493Y-69465980D01*
X81925269Y-69326299D01*
X81154804Y-69326299D01*
X79740000Y-67911494D01*
X79740000Y-64331243D01*
X79927637Y-64456618D01*
X80629861Y-64596299D01*
X81925269Y-64596299D01*
X82627493Y-64456618D01*
X82942555Y-64246100D01*
X82942555Y-69676498D01*
X82942555Y-69676498D01*
G37*
X82942555Y-69676498D02*
X82627493Y-69465980D01*
X81925269Y-69326299D01*
X81154804Y-69326299D01*
X79740000Y-67911494D01*
X79740000Y-64331243D01*
X79927637Y-64456618D01*
X80629861Y-64596299D01*
X81925269Y-64596299D01*
X82627493Y-64456618D01*
X82942555Y-64246100D01*
X82942555Y-69676498D01*
M02*
